<?xml version="1.0" encoding="UTF-8" standalone="no"?>
<!-- Created with Inkscape (http://www.inkscape.org/) -->

<svg
   xmlns:dc="http://purl.org/dc/elements/1.1/"
   xmlns:cc="http://creativecommons.org/ns#"
   xmlns:rdf="http://www.w3.org/1999/02/22-rdf-syntax-ns#"
   xmlns:svg="http://www.w3.org/2000/svg"
   xmlns="http://www.w3.org/2000/svg"
   xmlns:sodipodi="http://sodipodi.sourceforge.net/DTD/sodipodi-0.dtd"
   xmlns:inkscape="http://www.inkscape.org/namespaces/inkscape"
   width="461.03128"
   height="219.89172"
   id="svg2"
   version="1.1"
   inkscape:version="0.48.4 r9939"
   sodipodi:docname="New document 1">
  <defs
     id="defs4">
    <clipPath
       id="clipEmfPath1"
       clipPathUnits="userSpaceOnUse">
      <rect
         id="rect2990"
         height="38.73093"
         width="28.735851"
         y="181.66055"
         x="314.845" />
    </clipPath>
    <clipPath
       id="clipEmfPath2"
       clipPathUnits="userSpaceOnUse">
      <rect
         id="rect2993"
         height="17.491388"
         width="8.7456942"
         y="338.93314"
         x="484.16162" />
    </clipPath>
  </defs>
  <sodipodi:namedview
     id="base"
     pagecolor="#ffffff"
     bordercolor="#666666"
     borderopacity="1.0"
     inkscape:pageopacity="0.0"
     inkscape:pageshadow="2"
     inkscape:zoom="0.35"
     inkscape:cx="1076.9537"
     inkscape:cy="-504.33985"
     inkscape:document-units="px"
     inkscape:current-layer="layer1"
     showgrid="false"
     fit-margin-top="0"
     fit-margin-left="0"
     fit-margin-right="0"
     fit-margin-bottom="0"
     inkscape:window-width="878"
     inkscape:window-height="775"
     inkscape:window-x="754"
     inkscape:window-y="110"
     inkscape:window-maximized="0" />
  <metadata
     id="metadata7">
    <rdf:RDF>
      <cc:Work
         rdf:about="">
        <dc:format>image/svg+xml</dc:format>
        <dc:type
           rdf:resource="http://purl.org/dc/dcmitype/StillImage" />
        <dc:title></dc:title>
      </cc:Work>
    </rdf:RDF>
  </metadata>
  <g
     inkscape:label="Layer 1"
     inkscape:groupmode="layer"
     id="layer1"
     transform="translate(701.95373,191.8694)">
    <g
       id="g2995"
       transform="translate(-801.26618,-346.79313)">
      <path
         id="path2997"
         d="m 284.85975,284.85975 1.24939,0 0,88.70633 -1.24939,0 0,-88.70633 z"
         style="fill:#a0a0a0;fill-opacity:1;fill-rule:evenodd;stroke:none"
         inkscape:connector-curvature="0" />
      <path
         id="path2999"
         d="m 284.85975,284.85975 88.70633,0 0,1.24939 -88.70633,0 0,-1.24939 z"
         style="fill:#a0a0a0;fill-opacity:1;fill-rule:evenodd;stroke:none"
         inkscape:connector-curvature="0" />
      <path
         id="path3001"
         d="m 284.85975,373.56608 88.70633,0 0,1.24938 -88.70633,0 0,-1.24938 z"
         style="fill:#a0a0a0;fill-opacity:1;fill-rule:evenodd;stroke:none"
         inkscape:connector-curvature="0" />
      <path
         id="path3003"
         d="m 373.56608,284.85975 1.24938,0 0,89.95571 -1.24938,0 0,-89.95571 z"
         style="fill:#a0a0a0;fill-opacity:1;fill-rule:evenodd;stroke:none"
         inkscape:connector-curvature="0" />
      <path
         id="path3005"
         d="m 286.10914,286.10914 1.24938,0 0,86.20755 -1.24938,0 0,-86.20755 z"
         style="fill:#a0a0a0;fill-opacity:1;fill-rule:evenodd;stroke:none"
         inkscape:connector-curvature="0" />
      <path
         id="path3007"
         d="m 286.10914,286.10914 86.20755,0 0,1.24938 -86.20755,0 0,-1.24938 z"
         style="fill:#a0a0a0;fill-opacity:1;fill-rule:evenodd;stroke:none"
         inkscape:connector-curvature="0" />
      <path
         id="path3009"
         d="m 286.10914,372.31669 86.20755,0 0,1.24939 -86.20755,0 0,-1.24939 z"
         style="fill:#a0a0a0;fill-opacity:1;fill-rule:evenodd;stroke:none"
         inkscape:connector-curvature="0" />
      <path
         id="path3011"
         d="m 372.31669,286.10914 1.24939,0 0,87.45694 -1.24939,0 0,-87.45694 z"
         style="fill:#a0a0a0;fill-opacity:1;fill-rule:evenodd;stroke:none"
         inkscape:connector-curvature="0" />
      <path
         id="path3013"
         d="m 286.10914,286.10914 1.24938,0 0,86.20755 -1.24938,0 0,-86.20755 z"
         style="fill:#ffffff;fill-opacity:1;fill-rule:evenodd;stroke:none"
         inkscape:connector-curvature="0" />
      <path
         id="path3015"
         d="m 286.10914,286.10914 86.20755,0 0,1.24938 -86.20755,0 0,-1.24938 z"
         style="fill:#ffffff;fill-opacity:1;fill-rule:evenodd;stroke:none"
         inkscape:connector-curvature="0" />
      <path
         id="path3017"
         d="m 286.10914,372.31669 86.20755,0 0,1.24939 -86.20755,0 0,-1.24939 z"
         style="fill:#696969;fill-opacity:1;fill-rule:evenodd;stroke:none"
         inkscape:connector-curvature="0" />
      <path
         id="path3019"
         d="m 372.31669,286.10914 1.24939,0 0,87.45694 -1.24939,0 0,-87.45694 z"
         style="fill:#696969;fill-opacity:1;fill-rule:evenodd;stroke:none"
         inkscape:connector-curvature="0" />
      <path
         id="path3021"
         d="m 287.35852,287.35852 1.24939,0 0,83.70879 -1.24939,0 0,-83.70879 z"
         style="fill:#ffffff;fill-opacity:1;fill-rule:evenodd;stroke:none"
         inkscape:connector-curvature="0" />
      <path
         id="path3023"
         d="m 287.35852,287.35852 83.70879,0 0,1.24939 -83.70879,0 0,-1.24939 z"
         style="fill:#ffffff;fill-opacity:1;fill-rule:evenodd;stroke:none"
         inkscape:connector-curvature="0" />
      <path
         id="path3025"
         d="m 287.35852,371.06731 83.70879,0 0,1.24938 -83.70879,0 0,-1.24938 z"
         style="fill:#a0a0a0;fill-opacity:1;fill-rule:evenodd;stroke:none"
         inkscape:connector-curvature="0" />
      <path
         id="path3027"
         d="m 371.06731,287.35852 1.24938,0 0,84.95817 -1.24938,0 0,-84.95817 z"
         style="fill:#a0a0a0;fill-opacity:1;fill-rule:evenodd;stroke:none"
         inkscape:connector-curvature="0" />
      <path
         id="path3029"
         d="m 288.60791,288.60791 82.4594,0 0,82.4594 -82.4594,0 0,-82.4594 z"
         style="fill:#f0f0f5;fill-opacity:1;fill-rule:evenodd;stroke:none"
         inkscape:connector-curvature="0" />
      <path
         id="path3031"
         d="m 297.3536,297.3536 64.96802,0 0,64.96802 -64.96802,0 0,-64.96802 64.96802,0"
         style="fill:none;stroke:#000000;stroke-width:1.24938488px;stroke-linecap:round;stroke-linejoin:round;stroke-opacity:1;stroke-dasharray:none"
         inkscape:connector-curvature="0" />
      <path
         id="path3033"
         d="m 316.09437,329.83761 0,1.24938 0,0 0,1.24939 -1.24938,1.24938 0,0 0,1.24939 -1.24939,0 0,0 -1.24938,1.24938 -1.24938,0 0,0 -1.24939,0 -1.24938,0 0,0 -1.24939,0 0,-1.24938 -1.24938,0 -1.24939,0 0,-1.24939 0,0 -1.24938,-1.24938 0,-1.24939 0,0 0,-1.24938 0,-1.24939 0,0 0,-1.24938 1.24938,0 0,-1.24939 0,-1.24938 1.24939,0 1.24938,0 0,-1.24939 1.24939,0 0,0 1.24938,0 1.24939,0 0,0 1.24938,0 1.24938,1.24939 0,0 1.24939,0 0,1.24938 0,1.24939 1.24938,0 0,1.24938 0,0 0,1.24939 z"
         style="fill:#aad5ff;fill-opacity:1;fill-rule:evenodd;stroke:#000000;stroke-width:1.24938488px;stroke-linecap:round;stroke-linejoin:round;stroke-opacity:1;stroke-dasharray:none"
         inkscape:connector-curvature="0" />
      <path
         id="path3035"
         d="m 336.08453,329.83761 0,1.24938 0,0 0,1.24939 -1.24938,1.24938 0,0 0,1.24939 -1.24939,0 0,0 -1.24938,1.24938 -1.24939,0 0,0 -1.24938,0 -1.24939,0 0,0 -1.24938,0 0,-1.24938 -1.24939,0 -1.24938,0 0,-1.24939 0,0 -1.24939,-1.24938 0,-1.24939 0,0 0,-1.24938 0,-1.24939 0,0 0,-1.24938 1.24939,0 0,-1.24939 0,-1.24938 1.24938,0 1.24939,0 0,-1.24939 1.24938,0 0,0 1.24939,0 1.24938,0 0,0 1.24939,0 1.24938,1.24939 0,0 1.24939,0 0,1.24938 0,1.24939 1.24938,0 0,1.24938 0,0 0,1.24939 z"
         style="fill:#aad5ff;fill-opacity:1;fill-rule:evenodd;stroke:#000000;stroke-width:1.24938488px;stroke-linecap:round;stroke-linejoin:round;stroke-opacity:1;stroke-dasharray:none"
         inkscape:connector-curvature="0" />
      <path
         id="path3037"
         d="m 356.07469,329.83761 0,1.24938 0,0 0,1.24939 -1.24938,1.24938 0,0 0,1.24939 -1.24939,0 0,0 -1.24938,1.24938 -1.24939,0 0,0 -1.24938,0 -1.24939,0 0,0 -1.24938,0 0,-1.24938 -1.24939,0 -1.24938,0 0,-1.24939 0,0 -1.24939,-1.24938 0,-1.24939 0,0 0,-1.24938 0,-1.24939 0,0 0,-1.24938 1.24939,0 0,-1.24939 0,-1.24938 1.24938,0 1.24939,0 0,-1.24939 1.24938,0 0,0 1.24939,0 1.24938,0 0,0 1.24939,0 1.24938,1.24939 0,0 1.24939,0 0,1.24938 0,1.24939 1.24938,0 0,1.24938 0,0 0,1.24939 z"
         style="fill:#aad5ff;fill-opacity:1;fill-rule:evenodd;stroke:#000000;stroke-width:1.24938488px;stroke-linecap:round;stroke-linejoin:round;stroke-opacity:1;stroke-dasharray:none"
         inkscape:connector-curvature="0" />
      <path
         id="path3039"
         d="m 317.34376,329.83761 6.24692,0"
         style="fill:none;stroke:#000000;stroke-width:1.24938488px;stroke-linecap:round;stroke-linejoin:round;stroke-opacity:1;stroke-dasharray:none"
         inkscape:connector-curvature="0" />
      <path
         id="path3041"
         d="m 336.08453,329.83761 6.24693,0"
         style="fill:none;stroke:#000000;stroke-width:1.24938488px;stroke-linecap:round;stroke-linejoin:round;stroke-opacity:1;stroke-dasharray:none"
         inkscape:connector-curvature="0" />
      <path
         id="path3043"
         d="m 303.60053,329.83761 -2.49877,0"
         style="fill:none;stroke:#000000;stroke-width:1.24938488px;stroke-linecap:round;stroke-linejoin:round;stroke-opacity:1;stroke-dasharray:none"
         inkscape:connector-curvature="0" />
      <path
         id="path3045"
         d="m 356.07469,329.83761 2.49877,0"
         style="fill:none;stroke:#000000;stroke-width:1.24938488px;stroke-linecap:round;stroke-linejoin:round;stroke-opacity:1;stroke-dasharray:none"
         inkscape:connector-curvature="0" />
      <path
         id="path3047"
         d="m 309.84745,336.08453 0,6.24693 39.98032,0 0,-6.24693"
         style="fill:none;stroke:#000000;stroke-width:1.24938488px;stroke-linecap:round;stroke-linejoin:round;stroke-opacity:1;stroke-dasharray:none"
         inkscape:connector-curvature="0" />
      <path
         id="path3049"
         d="m 284.85975,154.92373 1.24939,0 0,88.70632 -1.24939,0 0,-88.70632 z"
         style="fill:#a0a0a0;fill-opacity:1;fill-rule:evenodd;stroke:none"
         inkscape:connector-curvature="0" />
      <path
         id="path3051"
         d="m 284.85975,154.92373 88.70633,0 0,1.24938 -88.70633,0 0,-1.24938 z"
         style="fill:#a0a0a0;fill-opacity:1;fill-rule:evenodd;stroke:none"
         inkscape:connector-curvature="0" />
      <path
         id="path3053"
         d="m 284.85975,243.63005 88.70633,0 0,1.24939 -88.70633,0 0,-1.24939 z"
         style="fill:#a0a0a0;fill-opacity:1;fill-rule:evenodd;stroke:none"
         inkscape:connector-curvature="0" />
      <path
         id="path3055"
         d="m 373.56608,154.92373 1.24938,0 0,89.95571 -1.24938,0 0,-89.95571 z"
         style="fill:#a0a0a0;fill-opacity:1;fill-rule:evenodd;stroke:none"
         inkscape:connector-curvature="0" />
      <path
         id="path3057"
         d="m 286.10914,156.17311 1.24938,0 0,86.20756 -1.24938,0 0,-86.20756 z"
         style="fill:#a0a0a0;fill-opacity:1;fill-rule:evenodd;stroke:none"
         inkscape:connector-curvature="0" />
      <path
         id="path3059"
         d="m 286.10914,156.17311 86.20755,0 0,1.24938 -86.20755,0 0,-1.24938 z"
         style="fill:#a0a0a0;fill-opacity:1;fill-rule:evenodd;stroke:none"
         inkscape:connector-curvature="0" />
      <path
         id="path3061"
         d="m 286.10914,242.38067 86.20755,0 0,1.24938 -86.20755,0 0,-1.24938 z"
         style="fill:#a0a0a0;fill-opacity:1;fill-rule:evenodd;stroke:none"
         inkscape:connector-curvature="0" />
      <path
         id="path3063"
         d="m 372.31669,156.17311 1.24939,0 0,87.45694 -1.24939,0 0,-87.45694 z"
         style="fill:#a0a0a0;fill-opacity:1;fill-rule:evenodd;stroke:none"
         inkscape:connector-curvature="0" />
      <path
         id="path3065"
         d="m 286.10914,156.17311 1.24938,0 0,86.20756 -1.24938,0 0,-86.20756 z"
         style="fill:#ffffff;fill-opacity:1;fill-rule:evenodd;stroke:none"
         inkscape:connector-curvature="0" />
      <path
         id="path3067"
         d="m 286.10914,156.17311 86.20755,0 0,1.24938 -86.20755,0 0,-1.24938 z"
         style="fill:#ffffff;fill-opacity:1;fill-rule:evenodd;stroke:none"
         inkscape:connector-curvature="0" />
      <path
         id="path3069"
         d="m 286.10914,242.38067 86.20755,0 0,1.24938 -86.20755,0 0,-1.24938 z"
         style="fill:#696969;fill-opacity:1;fill-rule:evenodd;stroke:none"
         inkscape:connector-curvature="0" />
      <path
         id="path3071"
         d="m 372.31669,156.17311 1.24939,0 0,87.45694 -1.24939,0 0,-87.45694 z"
         style="fill:#696969;fill-opacity:1;fill-rule:evenodd;stroke:none"
         inkscape:connector-curvature="0" />
      <path
         id="path3073"
         d="m 287.35852,157.42249 1.24939,0 0,83.70879 -1.24939,0 0,-83.70879 z"
         style="fill:#ffffff;fill-opacity:1;fill-rule:evenodd;stroke:none"
         inkscape:connector-curvature="0" />
      <path
         id="path3075"
         d="m 287.35852,157.42249 83.70879,0 0,1.24939 -83.70879,0 0,-1.24939 z"
         style="fill:#ffffff;fill-opacity:1;fill-rule:evenodd;stroke:none"
         inkscape:connector-curvature="0" />
      <path
         id="path3077"
         d="m 287.35852,241.13128 83.70879,0 0,1.24939 -83.70879,0 0,-1.24939 z"
         style="fill:#a0a0a0;fill-opacity:1;fill-rule:evenodd;stroke:none"
         inkscape:connector-curvature="0" />
      <path
         id="path3079"
         d="m 371.06731,157.42249 1.24938,0 0,84.95818 -1.24938,0 0,-84.95818 z"
         style="fill:#a0a0a0;fill-opacity:1;fill-rule:evenodd;stroke:none"
         inkscape:connector-curvature="0" />
      <path
         id="path3081"
         d="m 288.60791,158.67188 82.4594,0 0,82.4594 -82.4594,0 0,-82.4594 z"
         style="fill:#f0f0f5;fill-opacity:1;fill-rule:evenodd;stroke:none"
         inkscape:connector-curvature="0" />
      <path
         id="path3083"
         d="m 297.3536,167.41757 64.96802,0 0,64.96802 -64.96802,0 0,-64.96802 z"
         style="fill:#d7d7d7;fill-opacity:1;fill-rule:evenodd;stroke:#000000;stroke-width:1.24938488px;stroke-linecap:round;stroke-linejoin:round;stroke-opacity:1;stroke-dasharray:none"
         inkscape:connector-curvature="0" />
      <path
         id="path3085"
         d="M 297.3536,180.41117"
         clip-path="url(#clipEmfPath1)"
         style="fill:none;stroke:#000000;stroke-width:1.24938488px;stroke-linecap:round;stroke-linejoin:round;stroke-opacity:1;stroke-dasharray:none"
         inkscape:connector-curvature="0" />
      <text
         id="text3087"
         style="font-size:32.48400879px;font-style:normal;font-weight:normal;text-align:start;text-anchor:start;fill:#000000;font-family:Arial"
         y="222.24557"
         x="314.845"
         xml:space="preserve">PI</text>
      <path
         id="path3089"
         d="M 297.3536,180.41117"
         style="fill:none;stroke:#000000;stroke-width:1.24938488px;stroke-linecap:round;stroke-linejoin:round;stroke-opacity:1;stroke-dasharray:none"
         inkscape:connector-curvature="0" />
      <path
         id="path3091"
         d="m 421.0427,284.85975 1.24939,0 0,88.70633 -1.24939,0 0,-88.70633 z"
         style="fill:#a0a0a0;fill-opacity:1;fill-rule:evenodd;stroke:none"
         inkscape:connector-curvature="0" />
      <path
         id="path3093"
         d="m 421.0427,284.85975 88.70633,0 0,1.24939 -88.70633,0 0,-1.24939 z"
         style="fill:#a0a0a0;fill-opacity:1;fill-rule:evenodd;stroke:none"
         inkscape:connector-curvature="0" />
      <path
         id="path3095"
         d="m 421.0427,373.56608 88.70633,0 0,1.24938 -88.70633,0 0,-1.24938 z"
         style="fill:#a0a0a0;fill-opacity:1;fill-rule:evenodd;stroke:none"
         inkscape:connector-curvature="0" />
      <path
         id="path3097"
         d="m 509.74903,284.85975 1.24939,0 0,89.95571 -1.24939,0 0,-89.95571 z"
         style="fill:#a0a0a0;fill-opacity:1;fill-rule:evenodd;stroke:none"
         inkscape:connector-curvature="0" />
      <path
         id="path3099"
         d="m 422.29209,286.10914 1.24938,0 0,86.20755 -1.24938,0 0,-86.20755 z"
         style="fill:#a0a0a0;fill-opacity:1;fill-rule:evenodd;stroke:none"
         inkscape:connector-curvature="0" />
      <path
         id="path3101"
         d="m 422.29209,286.10914 86.20756,0 0,1.24938 -86.20756,0 0,-1.24938 z"
         style="fill:#a0a0a0;fill-opacity:1;fill-rule:evenodd;stroke:none"
         inkscape:connector-curvature="0" />
      <path
         id="path3103"
         d="m 422.29209,372.31669 86.20756,0 0,1.24939 -86.20756,0 0,-1.24939 z"
         style="fill:#a0a0a0;fill-opacity:1;fill-rule:evenodd;stroke:none"
         inkscape:connector-curvature="0" />
      <path
         id="path3105"
         d="m 508.49965,286.10914 1.24938,0 0,87.45694 -1.24938,0 0,-87.45694 z"
         style="fill:#a0a0a0;fill-opacity:1;fill-rule:evenodd;stroke:none"
         inkscape:connector-curvature="0" />
      <path
         id="path3107"
         d="m 422.29209,286.10914 1.24938,0 0,86.20755 -1.24938,0 0,-86.20755 z"
         style="fill:#ffffff;fill-opacity:1;fill-rule:evenodd;stroke:none"
         inkscape:connector-curvature="0" />
      <path
         id="path3109"
         d="m 422.29209,286.10914 86.20756,0 0,1.24938 -86.20756,0 0,-1.24938 z"
         style="fill:#ffffff;fill-opacity:1;fill-rule:evenodd;stroke:none"
         inkscape:connector-curvature="0" />
      <path
         id="path3111"
         d="m 422.29209,372.31669 86.20756,0 0,1.24939 -86.20756,0 0,-1.24939 z"
         style="fill:#696969;fill-opacity:1;fill-rule:evenodd;stroke:none"
         inkscape:connector-curvature="0" />
      <path
         id="path3113"
         d="m 508.49965,286.10914 1.24938,0 0,87.45694 -1.24938,0 0,-87.45694 z"
         style="fill:#696969;fill-opacity:1;fill-rule:evenodd;stroke:none"
         inkscape:connector-curvature="0" />
      <path
         id="path3115"
         d="m 423.54147,287.35852 1.24939,0 0,83.70879 -1.24939,0 0,-83.70879 z"
         style="fill:#ffffff;fill-opacity:1;fill-rule:evenodd;stroke:none"
         inkscape:connector-curvature="0" />
      <path
         id="path3117"
         d="m 423.54147,287.35852 83.70879,0 0,1.24939 -83.70879,0 0,-1.24939 z"
         style="fill:#ffffff;fill-opacity:1;fill-rule:evenodd;stroke:none"
         inkscape:connector-curvature="0" />
      <path
         id="path3119"
         d="m 423.54147,371.06731 83.70879,0 0,1.24938 -83.70879,0 0,-1.24938 z"
         style="fill:#a0a0a0;fill-opacity:1;fill-rule:evenodd;stroke:none"
         inkscape:connector-curvature="0" />
      <path
         id="path3121"
         d="m 507.25026,287.35852 1.24939,0 0,84.95817 -1.24939,0 0,-84.95817 z"
         style="fill:#a0a0a0;fill-opacity:1;fill-rule:evenodd;stroke:none"
         inkscape:connector-curvature="0" />
      <path
         id="path3123"
         d="m 424.79086,288.60791 82.4594,0 0,82.4594 -82.4594,0 0,-82.4594 z"
         style="fill:#f0f0f5;fill-opacity:1;fill-rule:evenodd;stroke:none"
         inkscape:connector-curvature="0" />
      <path
         id="path3125"
         d="m 476.01564,356.07469 0,1.24939 0,0 0,1.24938 -1.24939,1.24939 0,0 0,1.24938 -1.24938,0 0,0 -1.24939,1.24939 -1.24938,0 0,0 -1.24939,0 -1.24938,0 0,0 -1.24938,0 0,-1.24939 -1.24939,0 -1.24938,0 0,-1.24938 0,0 -1.24939,-1.24939 0,-1.24938 0,0 0,-1.24939 0,-1.24938 0,0 0,-1.24939 1.24939,0 0,-1.24938 0,-1.24939 1.24938,0 1.24939,0 0,-1.24938 1.24938,0 0,0 1.24938,0 1.24939,0 0,0 1.24938,0 1.24939,1.24938 0,0 1.24938,0 0,1.24939 0,1.24938 1.24939,0 0,1.24939 0,0 0,1.24938 z"
         style="fill:#bf0000;fill-opacity:1;fill-rule:evenodd;stroke:#000000;stroke-width:2.49876976px;stroke-linecap:round;stroke-linejoin:round;stroke-opacity:1;stroke-dasharray:none"
         inkscape:connector-curvature="0" />
      <path
         id="path3127"
         d="m 466.02056,317.34376 0,34.98278 7.49631,0 0,-34.98278 -7.49631,0 z"
         style="fill:#bf0000;fill-opacity:1;fill-rule:evenodd;stroke:#bf0000;stroke-width:1.24938488px;stroke-linecap:round;stroke-linejoin:round;stroke-opacity:1;stroke-dasharray:none"
         inkscape:connector-curvature="0" />
      <path
         id="path3129"
         d="m 466.02056,317.34376 0,-13.74323 1.24939,-1.24939 1.24938,-1.24938 1.24938,0 2.49877,0 1.24939,1.24938 0,1.24939 0,13.74323 -7.49631,0 0,-13.74323"
         style="fill:none;stroke:#000000;stroke-width:2.49876976px;stroke-linecap:round;stroke-linejoin:round;stroke-opacity:1;stroke-dasharray:none"
         inkscape:connector-curvature="0" />
      <path
         id="path3131"
         d="m 466.02056,317.34376 0,33.73339"
         style="fill:none;stroke:#000000;stroke-width:2.49876976px;stroke-linecap:round;stroke-linejoin:round;stroke-opacity:1;stroke-dasharray:none"
         inkscape:connector-curvature="0" />
      <path
         id="path3133"
         d="m 473.51687,317.34376 0,33.73339"
         style="fill:none;stroke:#000000;stroke-width:2.49876976px;stroke-linecap:round;stroke-linejoin:round;stroke-opacity:1;stroke-dasharray:none"
         inkscape:connector-curvature="0" />
      <path
         id="path3135"
         d="m 457.27487,336.08453 8.74569,0"
         style="fill:none;stroke:#000000;stroke-width:1.24938488px;stroke-linecap:round;stroke-linejoin:round;stroke-opacity:1;stroke-dasharray:none"
         inkscape:connector-curvature="0" />
      <path
         id="path3137"
         d="m 457.27487,323.59068 8.74569,0"
         style="fill:none;stroke:#000000;stroke-width:1.24938488px;stroke-linecap:round;stroke-linejoin:round;stroke-opacity:1;stroke-dasharray:none"
         inkscape:connector-curvature="0" />
      <path
         id="path3139"
         d="m 457.27487,309.84745 8.74569,0"
         style="fill:none;stroke:#000000;stroke-width:1.24938488px;stroke-linecap:round;stroke-linejoin:round;stroke-opacity:1;stroke-dasharray:none"
         inkscape:connector-curvature="0" />
      <path
         id="path3141"
         d="M 482.91223,338.93313"
         clip-path="url(#clipEmfPath2)"
         style="fill:none;stroke:#000000;stroke-width:1.24938488px;stroke-linecap:round;stroke-linejoin:round;stroke-opacity:1;stroke-dasharray:none"
         inkscape:connector-curvature="0" />
      <text
         id="text3143"
         style="font-size:13.74323368px;font-style:normal;font-weight:normal;text-align:start;text-anchor:start;fill:#000000;font-family:Arial"
         y="356.10373"
         x="484.16162"
         xml:space="preserve">K</text>
      <path
         id="path3145"
         d="M 482.91223,338.93313"
         style="fill:none;stroke:#000000;stroke-width:1.24938488px;stroke-linecap:round;stroke-linejoin:round;stroke-opacity:1;stroke-dasharray:none"
         inkscape:connector-curvature="0" />
      <path
         id="path3147"
         d="m 154.92373,284.85975 1.24938,0 0,88.70633 -1.24938,0 0,-88.70633 z"
         style="fill:#a0a0a0;fill-opacity:1;fill-rule:evenodd;stroke:none"
         inkscape:connector-curvature="0" />
      <path
         id="path3149"
         d="m 154.92373,284.85975 88.70632,0 0,1.24939 -88.70632,0 0,-1.24939 z"
         style="fill:#a0a0a0;fill-opacity:1;fill-rule:evenodd;stroke:none"
         inkscape:connector-curvature="0" />
      <path
         id="path3151"
         d="m 154.92373,373.56608 88.70632,0 0,1.24938 -88.70632,0 0,-1.24938 z"
         style="fill:#a0a0a0;fill-opacity:1;fill-rule:evenodd;stroke:none"
         inkscape:connector-curvature="0" />
      <path
         id="path3153"
         d="m 243.63005,284.85975 1.24939,0 0,89.95571 -1.24939,0 0,-89.95571 z"
         style="fill:#a0a0a0;fill-opacity:1;fill-rule:evenodd;stroke:none"
         inkscape:connector-curvature="0" />
      <path
         id="path3155"
         d="m 156.17311,286.10914 1.24938,0 0,86.20755 -1.24938,0 0,-86.20755 z"
         style="fill:#a0a0a0;fill-opacity:1;fill-rule:evenodd;stroke:none"
         inkscape:connector-curvature="0" />
      <path
         id="path3157"
         d="m 156.17311,286.10914 86.20756,0 0,1.24938 -86.20756,0 0,-1.24938 z"
         style="fill:#a0a0a0;fill-opacity:1;fill-rule:evenodd;stroke:none"
         inkscape:connector-curvature="0" />
      <path
         id="path3159"
         d="m 156.17311,372.31669 86.20756,0 0,1.24939 -86.20756,0 0,-1.24939 z"
         style="fill:#a0a0a0;fill-opacity:1;fill-rule:evenodd;stroke:none"
         inkscape:connector-curvature="0" />
      <path
         id="path3161"
         d="m 242.38067,286.10914 1.24938,0 0,87.45694 -1.24938,0 0,-87.45694 z"
         style="fill:#a0a0a0;fill-opacity:1;fill-rule:evenodd;stroke:none"
         inkscape:connector-curvature="0" />
      <path
         id="path3163"
         d="m 156.17311,286.10914 1.24938,0 0,86.20755 -1.24938,0 0,-86.20755 z"
         style="fill:#ffffff;fill-opacity:1;fill-rule:evenodd;stroke:none"
         inkscape:connector-curvature="0" />
      <path
         id="path3165"
         d="m 156.17311,286.10914 86.20756,0 0,1.24938 -86.20756,0 0,-1.24938 z"
         style="fill:#ffffff;fill-opacity:1;fill-rule:evenodd;stroke:none"
         inkscape:connector-curvature="0" />
      <path
         id="path3167"
         d="m 156.17311,372.31669 86.20756,0 0,1.24939 -86.20756,0 0,-1.24939 z"
         style="fill:#696969;fill-opacity:1;fill-rule:evenodd;stroke:none"
         inkscape:connector-curvature="0" />
      <path
         id="path3169"
         d="m 242.38067,286.10914 1.24938,0 0,87.45694 -1.24938,0 0,-87.45694 z"
         style="fill:#696969;fill-opacity:1;fill-rule:evenodd;stroke:none"
         inkscape:connector-curvature="0" />
      <path
         id="path3171"
         d="m 157.42249,287.35852 1.24939,0 0,83.70879 -1.24939,0 0,-83.70879 z"
         style="fill:#ffffff;fill-opacity:1;fill-rule:evenodd;stroke:none"
         inkscape:connector-curvature="0" />
      <path
         id="path3173"
         d="m 157.42249,287.35852 83.70879,0 0,1.24939 -83.70879,0 0,-1.24939 z"
         style="fill:#ffffff;fill-opacity:1;fill-rule:evenodd;stroke:none"
         inkscape:connector-curvature="0" />
      <path
         id="path3175"
         d="m 157.42249,371.06731 83.70879,0 0,1.24938 -83.70879,0 0,-1.24938 z"
         style="fill:#a0a0a0;fill-opacity:1;fill-rule:evenodd;stroke:none"
         inkscape:connector-curvature="0" />
      <path
         id="path3177"
         d="m 241.13128,287.35852 1.24939,0 0,84.95817 -1.24939,0 0,-84.95817 z"
         style="fill:#a0a0a0;fill-opacity:1;fill-rule:evenodd;stroke:none"
         inkscape:connector-curvature="0" />
      <path
         id="path3179"
         d="m 158.67188,288.60791 82.4594,0 0,82.4594 -82.4594,0 0,-82.4594 z"
         style="fill:#f0f0f5;fill-opacity:1;fill-rule:evenodd;stroke:none"
         inkscape:connector-curvature="0" />
      <path
         id="path3181"
         d="m 173.6645,303.60053 52.47416,0 0,52.47416 -52.47416,0 0,-52.47416 z"
         style="fill:#d7d7d7;fill-opacity:1;fill-rule:evenodd;stroke:#000000;stroke-width:1.24938488px;stroke-linecap:round;stroke-linejoin:round;stroke-opacity:1;stroke-dasharray:none"
         inkscape:connector-curvature="0" />
      <path
         id="path3183"
         d="m 187.40773,309.84745 0,3.74815 -3.74815,3.74816 6.24692,2.49877 -6.24692,3.74815 6.24692,2.49877 -6.24692,3.74816 6.24692,3.74815 -6.24692,2.49877 6.24692,3.74816 -6.24692,2.49877 3.74815,3.74815 0,3.74816"
         style="fill:none;stroke:#ff0000;stroke-width:2.49876976px;stroke-linecap:round;stroke-linejoin:round;stroke-opacity:1;stroke-dasharray:none"
         inkscape:connector-curvature="0" />
      <path
         id="path3185"
         d="m 193.65466,309.84745 0,3.74815 -3.74816,3.74816 6.24693,2.49877 -6.24693,3.74815 6.24693,2.49877 -6.24693,3.74816 6.24693,3.74815 -6.24693,2.49877 6.24693,3.74816 -6.24693,2.49877 3.74816,3.74815 0,3.74816"
         style="fill:none;stroke:#ff0000;stroke-width:2.49876976px;stroke-linecap:round;stroke-linejoin:round;stroke-opacity:1;stroke-dasharray:none"
         inkscape:connector-curvature="0" />
      <path
         id="path3187"
         d="m 199.90158,309.84745 0,3.74815 -3.74815,3.74816 7.49631,2.49877 -7.49631,3.74815 7.49631,2.49877 -7.49631,3.74816 7.49631,3.74815 -7.49631,2.49877 7.49631,3.74816 -7.49631,2.49877 3.74815,3.74815 0,3.74816"
         style="fill:none;stroke:#ff0000;stroke-width:2.49876976px;stroke-linecap:round;stroke-linejoin:round;stroke-opacity:1;stroke-dasharray:none"
         inkscape:connector-curvature="0" />
      <path
         id="path3189"
         d="m 206.14851,309.84745 0,3.74815 -2.49877,3.74816 6.24692,2.49877 -6.24692,3.74815 6.24692,2.49877 -6.24692,3.74816 6.24692,3.74815 -6.24692,2.49877 6.24692,3.74816 -6.24692,2.49877 2.49877,3.74815 0,3.74816"
         style="fill:none;stroke:#ff0000;stroke-width:2.49876976px;stroke-linecap:round;stroke-linejoin:round;stroke-opacity:1;stroke-dasharray:none"
         inkscape:connector-curvature="0" />
      <path
         id="path3191"
         d="m 212.39543,309.84745 0,3.74815 -2.49877,3.74816 6.24692,2.49877 -6.24692,3.74815 6.24692,2.49877 -6.24692,3.74816 6.24692,3.74815 -6.24692,2.49877 6.24692,3.74816 -6.24692,2.49877 2.49877,3.74815 0,3.74816"
         style="fill:none;stroke:#ff0000;stroke-width:2.49876976px;stroke-linecap:round;stroke-linejoin:round;stroke-opacity:1;stroke-dasharray:none"
         inkscape:connector-curvature="0" />
      <path
         id="path3193"
         d="m 362.32162,329.83761 71.21493,0"
         style="fill:none;stroke:#ffffff;stroke-width:6.2469244px;stroke-linecap:round;stroke-linejoin:round;stroke-opacity:1;stroke-dasharray:none"
         inkscape:connector-curvature="0" />
      <path
         id="path3195"
         d="m 362.32162,329.83761 71.21493,0"
         style="fill:none;stroke:#bf0000;stroke-width:1.24938488px;stroke-linecap:round;stroke-linejoin:round;stroke-opacity:1;stroke-dasharray:none"
         inkscape:connector-curvature="0" />
      <path
         id="path3197"
         d="m 502.25272,329.83761 54.97294,0 0,-129.93603 -188.65712,0"
         style="fill:none;stroke:#ffffff;stroke-width:6.2469244px;stroke-linecap:round;stroke-linejoin:round;stroke-opacity:1;stroke-dasharray:none"
         inkscape:connector-curvature="0" />
      <path
         id="path3199"
         d="m 502.25272,329.83761 54.97294,0 0,-129.93603 -188.65712,0"
         style="fill:none;stroke:#00007f;stroke-width:1.24938488px;stroke-linecap:round;stroke-linejoin:round;stroke-opacity:1;stroke-dasharray:none"
         inkscape:connector-curvature="0" />
      <path
         id="path3201"
         d="m 232.38559,329.83761 64.96801,0"
         style="fill:none;stroke:#ffffff;stroke-width:6.2469244px;stroke-linecap:round;stroke-linejoin:round;stroke-opacity:1;stroke-dasharray:none"
         inkscape:connector-curvature="0" />
      <path
         id="path3203"
         d="m 232.38559,329.83761 64.96801,0"
         style="fill:none;stroke:#bf0000;stroke-width:1.24938488px;stroke-linecap:round;stroke-linejoin:round;stroke-opacity:1;stroke-dasharray:none"
         inkscape:connector-curvature="0" />
      <path
         id="path3205"
         d="m 293.60545,199.90158 -191.15589,0 0,129.93603 58.72109,0"
         style="fill:none;stroke:#ffffff;stroke-width:6.2469244px;stroke-linecap:round;stroke-linejoin:round;stroke-opacity:1;stroke-dasharray:none"
         inkscape:connector-curvature="0" />
      <path
         id="path3207"
         d="m 293.60545,199.90158 -191.15589,0 0,129.93603 58.72109,0"
         style="fill:none;stroke:#00007f;stroke-width:1.24938488px;stroke-linecap:round;stroke-linejoin:round;stroke-opacity:1;stroke-dasharray:none"
         inkscape:connector-curvature="0" />
      <path
         id="path3209"
         d="m 358.57346,326.08945 0,7.49631 7.49631,0 0,-7.49631 -7.49631,0 z"
         style="fill:#bf0000;fill-opacity:1;fill-rule:evenodd;stroke:#bf0000;stroke-width:1.24938488px;stroke-linecap:round;stroke-linejoin:round;stroke-opacity:1;stroke-dasharray:none"
         inkscape:connector-curvature="0" />
      <path
         id="path3211"
         d="m 293.60545,326.08945 0,7.49631 7.49631,0 0,-7.49631 -7.49631,0 z"
         style="fill:#ffffff;fill-opacity:1;fill-rule:evenodd;stroke:#bf0000;stroke-width:1.24938488px;stroke-linecap:round;stroke-linejoin:round;stroke-opacity:1;stroke-dasharray:none"
         inkscape:connector-curvature="0" />
      <path
         id="path3213"
         d="m 374.81546,206.14851 -12.49384,-6.24693 12.49384,-6.24692 0,12.49385 z"
         style="fill:#00007f;fill-opacity:1;fill-rule:evenodd;stroke:#00007f;stroke-width:1.24938488px;stroke-linecap:round;stroke-linejoin:round;stroke-opacity:1;stroke-dasharray:none"
         inkscape:connector-curvature="0" />
      <path
         id="path3215"
         d="m 297.3536,203.64974 -7.49631,-3.74816 7.49631,-3.74815 0,7.49631 z"
         style="fill:#ffffff;fill-opacity:1;fill-rule:evenodd;stroke:#00007f;stroke-width:1.24938488px;stroke-linecap:round;stroke-linejoin:round;stroke-opacity:1;stroke-dasharray:none"
         inkscape:connector-curvature="0" />
      <path
         id="path3217"
         d="m 429.7884,326.08945 0,7.49631 7.49631,0 0,-7.49631 -7.49631,0 z"
         style="fill:#bf0000;fill-opacity:1;fill-rule:evenodd;stroke:#bf0000;stroke-width:1.24938488px;stroke-linecap:round;stroke-linejoin:round;stroke-opacity:1;stroke-dasharray:none"
         inkscape:connector-curvature="0" />
      <path
         id="path3219"
         d="m 498.50457,326.08945 7.49631,3.74816 -7.49631,3.74815 0,-7.49631 z"
         style="fill:#ffffff;fill-opacity:1;fill-rule:evenodd;stroke:#00007f;stroke-width:1.24938488px;stroke-linecap:round;stroke-linejoin:round;stroke-opacity:1;stroke-dasharray:none"
         inkscape:connector-curvature="0" />
      <path
         id="path3221"
         d="m 154.92373,323.59068 12.49384,6.24693 -12.49384,6.24692 0,-12.49385 z"
         style="fill:#00007f;fill-opacity:1;fill-rule:evenodd;stroke:#00007f;stroke-width:1.24938488px;stroke-linecap:round;stroke-linejoin:round;stroke-opacity:1;stroke-dasharray:none"
         inkscape:connector-curvature="0" />
      <path
         id="path3223"
         d="m 228.63743,326.08945 0,7.49631 7.49631,0 0,-7.49631 -7.49631,0 z"
         style="fill:#ffffff;fill-opacity:1;fill-rule:evenodd;stroke:#bf0000;stroke-width:1.24938488px;stroke-linecap:round;stroke-linejoin:round;stroke-opacity:1;stroke-dasharray:none"
         inkscape:connector-curvature="0" />
    </g>
  </g>
</svg>
