<?xml version="1.0" encoding="UTF-8" standalone="no"?>
<!-- Created with Inkscape (http://www.inkscape.org/) -->

<svg
   xmlns:dc="http://purl.org/dc/elements/1.1/"
   xmlns:cc="http://creativecommons.org/ns#"
   xmlns:rdf="http://www.w3.org/1999/02/22-rdf-syntax-ns#"
   xmlns:svg="http://www.w3.org/2000/svg"
   xmlns="http://www.w3.org/2000/svg"
   xmlns:sodipodi="http://sodipodi.sourceforge.net/DTD/sodipodi-0.dtd"
   xmlns:inkscape="http://www.inkscape.org/namespaces/inkscape"
   width="461.03128"
   height="353.57593"
   id="svg2"
   version="1.1"
   inkscape:version="0.48.4 r9939"
   sodipodi:docname="New document 1">
  <defs
     id="defs4">
    <clipPath
       id="clipEmfPath1"
       clipPathUnits="userSpaceOnUse">
      <rect
         id="rect2990"
         height="17.491388"
         width="47.476624"
         y="149.92619"
         x="143.67926" />
    </clipPath>
    <clipPath
       id="clipEmfPath2"
       clipPathUnits="userSpaceOnUse">
      <rect
         id="rect2993"
         height="17.491388"
         width="82.459404"
         y="235.03429"
         x="127.16239" />
    </clipPath>
  </defs>
  <sodipodi:namedview
     id="base"
     pagecolor="#ffffff"
     bordercolor="#666666"
     borderopacity="1.0"
     inkscape:pageopacity="0.0"
     inkscape:pageshadow="2"
     inkscape:zoom="0.35"
     inkscape:cx="211.23943"
     inkscape:cy="179.95745"
     inkscape:document-units="px"
     inkscape:current-layer="layer1"
     showgrid="false"
     fit-margin-top="0"
     fit-margin-left="0"
     fit-margin-right="0"
     fit-margin-bottom="0"
     inkscape:window-width="500"
     inkscape:window-height="442"
     inkscape:window-x="4304"
     inkscape:window-y="126"
     inkscape:window-maximized="0" />
  <metadata
     id="metadata7">
    <rdf:RDF>
      <cc:Work
         rdf:about="">
        <dc:format>image/svg+xml</dc:format>
        <dc:type
           rdf:resource="http://purl.org/dc/dcmitype/StillImage" />
        <dc:title></dc:title>
      </cc:Work>
    </rdf:RDF>
  </metadata>
  <g
     inkscape:label="Layer 1"
     inkscape:groupmode="layer"
     id="layer1"
     transform="translate(-163.76057,-358.74371)">
    <g
       id="g2995"
       transform="translate(64.448114,207.56814)">
      <path
         id="path2997"
         d="m 284.85975,414.79578 1.24939,0 0,88.70633 -1.24939,0 0,-88.70633 z"
         style="fill:#a0a0a0;fill-opacity:1;fill-rule:evenodd;stroke:none"
         inkscape:connector-curvature="0" />
      <path
         id="path2999"
         d="m 284.85975,414.79578 88.70633,0 0,1.24939 -88.70633,0 0,-1.24939 z"
         style="fill:#a0a0a0;fill-opacity:1;fill-rule:evenodd;stroke:none"
         inkscape:connector-curvature="0" />
      <path
         id="path3001"
         d="m 284.85975,503.50211 88.70633,0 0,1.24938 -88.70633,0 0,-1.24938 z"
         style="fill:#a0a0a0;fill-opacity:1;fill-rule:evenodd;stroke:none"
         inkscape:connector-curvature="0" />
      <path
         id="path3003"
         d="m 373.56608,414.79578 1.24938,0 0,89.95571 -1.24938,0 0,-89.95571 z"
         style="fill:#a0a0a0;fill-opacity:1;fill-rule:evenodd;stroke:none"
         inkscape:connector-curvature="0" />
      <path
         id="path3005"
         d="m 286.10914,416.04517 1.24938,0 0,86.20755 -1.24938,0 0,-86.20755 z"
         style="fill:#a0a0a0;fill-opacity:1;fill-rule:evenodd;stroke:none"
         inkscape:connector-curvature="0" />
      <path
         id="path3007"
         d="m 286.10914,416.04517 86.20755,0 0,1.24938 -86.20755,0 0,-1.24938 z"
         style="fill:#a0a0a0;fill-opacity:1;fill-rule:evenodd;stroke:none"
         inkscape:connector-curvature="0" />
      <path
         id="path3009"
         d="m 286.10914,502.25272 86.20755,0 0,1.24939 -86.20755,0 0,-1.24939 z"
         style="fill:#a0a0a0;fill-opacity:1;fill-rule:evenodd;stroke:none"
         inkscape:connector-curvature="0" />
      <path
         id="path3011"
         d="m 372.31669,416.04517 1.24939,0 0,87.45694 -1.24939,0 0,-87.45694 z"
         style="fill:#a0a0a0;fill-opacity:1;fill-rule:evenodd;stroke:none"
         inkscape:connector-curvature="0" />
      <path
         id="path3013"
         d="m 286.10914,416.04517 1.24938,0 0,86.20755 -1.24938,0 0,-86.20755 z"
         style="fill:#a0a0a0;fill-opacity:1;fill-rule:evenodd;stroke:none"
         inkscape:connector-curvature="0" />
      <path
         id="path3015"
         d="m 286.10914,416.04517 86.20755,0 0,1.24938 -86.20755,0 0,-1.24938 z"
         style="fill:#a0a0a0;fill-opacity:1;fill-rule:evenodd;stroke:none"
         inkscape:connector-curvature="0" />
      <path
         id="path3017"
         d="m 286.10914,502.25272 86.20755,0 0,1.24939 -86.20755,0 0,-1.24939 z"
         style="fill:#ffffff;fill-opacity:1;fill-rule:evenodd;stroke:none"
         inkscape:connector-curvature="0" />
      <path
         id="path3019"
         d="m 372.31669,416.04517 1.24939,0 0,87.45694 -1.24939,0 0,-87.45694 z"
         style="fill:#ffffff;fill-opacity:1;fill-rule:evenodd;stroke:none"
         inkscape:connector-curvature="0" />
      <path
         id="path3021"
         d="m 287.35852,417.29455 1.24939,0 0,83.70879 -1.24939,0 0,-83.70879 z"
         style="fill:#696969;fill-opacity:1;fill-rule:evenodd;stroke:none"
         inkscape:connector-curvature="0" />
      <path
         id="path3023"
         d="m 287.35852,417.29455 83.70879,0 0,1.24938 -83.70879,0 0,-1.24938 z"
         style="fill:#696969;fill-opacity:1;fill-rule:evenodd;stroke:none"
         inkscape:connector-curvature="0" />
      <path
         id="path3025"
         d="m 287.35852,501.00334 83.70879,0 0,1.24938 -83.70879,0 0,-1.24938 z"
         style="fill:#ffffff;fill-opacity:1;fill-rule:evenodd;stroke:none"
         inkscape:connector-curvature="0" />
      <path
         id="path3027"
         d="m 371.06731,417.29455 1.24938,0 0,84.95817 -1.24938,0 0,-84.95817 z"
         style="fill:#ffffff;fill-opacity:1;fill-rule:evenodd;stroke:none"
         inkscape:connector-curvature="0" />
      <path
         id="path3029"
         d="m 288.60791,418.54393 82.4594,0 0,82.45941 -82.4594,0 0,-82.45941 z"
         style="fill:#f0f0f5;fill-opacity:1;fill-rule:evenodd;stroke:none"
         inkscape:connector-curvature="0" />
      <path
         id="path3031"
         d="m 297.3536,427.28963 64.96802,0 0,64.96801 -64.96802,0 0,-64.96801 64.96802,0"
         style="fill:none;stroke:#8000ff;stroke-width:1.24938488px;stroke-linecap:round;stroke-linejoin:round;stroke-opacity:1;stroke-dasharray:none"
         inkscape:connector-curvature="0" />
      <path
         id="path3033"
         d="m 154.92373,414.79578 1.24938,0 0,88.70633 -1.24938,0 0,-88.70633 z"
         style="fill:#a0a0a0;fill-opacity:1;fill-rule:evenodd;stroke:none"
         inkscape:connector-curvature="0" />
      <path
         id="path3035"
         d="m 154.92373,414.79578 88.70632,0 0,1.24939 -88.70632,0 0,-1.24939 z"
         style="fill:#a0a0a0;fill-opacity:1;fill-rule:evenodd;stroke:none"
         inkscape:connector-curvature="0" />
      <path
         id="path3037"
         d="m 154.92373,503.50211 88.70632,0 0,1.24938 -88.70632,0 0,-1.24938 z"
         style="fill:#a0a0a0;fill-opacity:1;fill-rule:evenodd;stroke:none"
         inkscape:connector-curvature="0" />
      <path
         id="path3039"
         d="m 243.63005,414.79578 1.24939,0 0,89.95571 -1.24939,0 0,-89.95571 z"
         style="fill:#a0a0a0;fill-opacity:1;fill-rule:evenodd;stroke:none"
         inkscape:connector-curvature="0" />
      <path
         id="path3041"
         d="m 156.17311,416.04517 1.24938,0 0,86.20755 -1.24938,0 0,-86.20755 z"
         style="fill:#a0a0a0;fill-opacity:1;fill-rule:evenodd;stroke:none"
         inkscape:connector-curvature="0" />
      <path
         id="path3043"
         d="m 156.17311,416.04517 86.20756,0 0,1.24938 -86.20756,0 0,-1.24938 z"
         style="fill:#a0a0a0;fill-opacity:1;fill-rule:evenodd;stroke:none"
         inkscape:connector-curvature="0" />
      <path
         id="path3045"
         d="m 156.17311,502.25272 86.20756,0 0,1.24939 -86.20756,0 0,-1.24939 z"
         style="fill:#a0a0a0;fill-opacity:1;fill-rule:evenodd;stroke:none"
         inkscape:connector-curvature="0" />
      <path
         id="path3047"
         d="m 242.38067,416.04517 1.24938,0 0,87.45694 -1.24938,0 0,-87.45694 z"
         style="fill:#a0a0a0;fill-opacity:1;fill-rule:evenodd;stroke:none"
         inkscape:connector-curvature="0" />
      <path
         id="path3049"
         d="m 156.17311,416.04517 1.24938,0 0,86.20755 -1.24938,0 0,-86.20755 z"
         style="fill:#a0a0a0;fill-opacity:1;fill-rule:evenodd;stroke:none"
         inkscape:connector-curvature="0" />
      <path
         id="path3051"
         d="m 156.17311,416.04517 86.20756,0 0,1.24938 -86.20756,0 0,-1.24938 z"
         style="fill:#a0a0a0;fill-opacity:1;fill-rule:evenodd;stroke:none"
         inkscape:connector-curvature="0" />
      <path
         id="path3053"
         d="m 156.17311,502.25272 86.20756,0 0,1.24939 -86.20756,0 0,-1.24939 z"
         style="fill:#ffffff;fill-opacity:1;fill-rule:evenodd;stroke:none"
         inkscape:connector-curvature="0" />
      <path
         id="path3055"
         d="m 242.38067,416.04517 1.24938,0 0,87.45694 -1.24938,0 0,-87.45694 z"
         style="fill:#ffffff;fill-opacity:1;fill-rule:evenodd;stroke:none"
         inkscape:connector-curvature="0" />
      <path
         id="path3057"
         d="m 157.42249,417.29455 1.24939,0 0,83.70879 -1.24939,0 0,-83.70879 z"
         style="fill:#696969;fill-opacity:1;fill-rule:evenodd;stroke:none"
         inkscape:connector-curvature="0" />
      <path
         id="path3059"
         d="m 157.42249,417.29455 83.70879,0 0,1.24938 -83.70879,0 0,-1.24938 z"
         style="fill:#696969;fill-opacity:1;fill-rule:evenodd;stroke:none"
         inkscape:connector-curvature="0" />
      <path
         id="path3061"
         d="m 157.42249,501.00334 83.70879,0 0,1.24938 -83.70879,0 0,-1.24938 z"
         style="fill:#ffffff;fill-opacity:1;fill-rule:evenodd;stroke:none"
         inkscape:connector-curvature="0" />
      <path
         id="path3063"
         d="m 241.13128,417.29455 1.24939,0 0,84.95817 -1.24939,0 0,-84.95817 z"
         style="fill:#ffffff;fill-opacity:1;fill-rule:evenodd;stroke:none"
         inkscape:connector-curvature="0" />
      <path
         id="path3065"
         d="m 158.67188,418.54393 82.4594,0 0,82.45941 -82.4594,0 0,-82.45941 z"
         style="fill:#f0f0f5;fill-opacity:1;fill-rule:evenodd;stroke:none"
         inkscape:connector-curvature="0" />
      <path
         id="path3067"
         d="m 167.41757,427.28963 64.96802,0 0,64.96801 -64.96802,0 0,-64.96801 64.96802,0"
         style="fill:none;stroke:#ff5555;stroke-width:1.24938488px;stroke-linecap:round;stroke-linejoin:round;stroke-opacity:1;stroke-dasharray:none"
         inkscape:connector-curvature="0" />
      <path
         id="path3069"
         d="m 414.79578,414.79578 1.24939,0 0,88.70633 -1.24939,0 0,-88.70633 z"
         style="fill:#a0a0a0;fill-opacity:1;fill-rule:evenodd;stroke:none"
         inkscape:connector-curvature="0" />
      <path
         id="path3071"
         d="m 414.79578,414.79578 88.70633,0 0,1.24939 -88.70633,0 0,-1.24939 z"
         style="fill:#a0a0a0;fill-opacity:1;fill-rule:evenodd;stroke:none"
         inkscape:connector-curvature="0" />
      <path
         id="path3073"
         d="m 414.79578,503.50211 88.70633,0 0,1.24938 -88.70633,0 0,-1.24938 z"
         style="fill:#a0a0a0;fill-opacity:1;fill-rule:evenodd;stroke:none"
         inkscape:connector-curvature="0" />
      <path
         id="path3075"
         d="m 503.50211,414.79578 1.24938,0 0,89.95571 -1.24938,0 0,-89.95571 z"
         style="fill:#a0a0a0;fill-opacity:1;fill-rule:evenodd;stroke:none"
         inkscape:connector-curvature="0" />
      <path
         id="path3077"
         d="m 416.04517,416.04517 1.24938,0 0,86.20755 -1.24938,0 0,-86.20755 z"
         style="fill:#a0a0a0;fill-opacity:1;fill-rule:evenodd;stroke:none"
         inkscape:connector-curvature="0" />
      <path
         id="path3079"
         d="m 416.04517,416.04517 86.20755,0 0,1.24938 -86.20755,0 0,-1.24938 z"
         style="fill:#a0a0a0;fill-opacity:1;fill-rule:evenodd;stroke:none"
         inkscape:connector-curvature="0" />
      <path
         id="path3081"
         d="m 416.04517,502.25272 86.20755,0 0,1.24939 -86.20755,0 0,-1.24939 z"
         style="fill:#a0a0a0;fill-opacity:1;fill-rule:evenodd;stroke:none"
         inkscape:connector-curvature="0" />
      <path
         id="path3083"
         d="m 502.25272,416.04517 1.24939,0 0,87.45694 -1.24939,0 0,-87.45694 z"
         style="fill:#a0a0a0;fill-opacity:1;fill-rule:evenodd;stroke:none"
         inkscape:connector-curvature="0" />
      <path
         id="path3085"
         d="m 416.04517,416.04517 1.24938,0 0,86.20755 -1.24938,0 0,-86.20755 z"
         style="fill:#a0a0a0;fill-opacity:1;fill-rule:evenodd;stroke:none"
         inkscape:connector-curvature="0" />
      <path
         id="path3087"
         d="m 416.04517,416.04517 86.20755,0 0,1.24938 -86.20755,0 0,-1.24938 z"
         style="fill:#a0a0a0;fill-opacity:1;fill-rule:evenodd;stroke:none"
         inkscape:connector-curvature="0" />
      <path
         id="path3089"
         d="m 416.04517,502.25272 86.20755,0 0,1.24939 -86.20755,0 0,-1.24939 z"
         style="fill:#ffffff;fill-opacity:1;fill-rule:evenodd;stroke:none"
         inkscape:connector-curvature="0" />
      <path
         id="path3091"
         d="m 502.25272,416.04517 1.24939,0 0,87.45694 -1.24939,0 0,-87.45694 z"
         style="fill:#ffffff;fill-opacity:1;fill-rule:evenodd;stroke:none"
         inkscape:connector-curvature="0" />
      <path
         id="path3093"
         d="m 417.29455,417.29455 1.24938,0 0,83.70879 -1.24938,0 0,-83.70879 z"
         style="fill:#696969;fill-opacity:1;fill-rule:evenodd;stroke:none"
         inkscape:connector-curvature="0" />
      <path
         id="path3095"
         d="m 417.29455,417.29455 83.70879,0 0,1.24938 -83.70879,0 0,-1.24938 z"
         style="fill:#696969;fill-opacity:1;fill-rule:evenodd;stroke:none"
         inkscape:connector-curvature="0" />
      <path
         id="path3097"
         d="m 417.29455,501.00334 83.70879,0 0,1.24938 -83.70879,0 0,-1.24938 z"
         style="fill:#ffffff;fill-opacity:1;fill-rule:evenodd;stroke:none"
         inkscape:connector-curvature="0" />
      <path
         id="path3099"
         d="m 501.00334,417.29455 1.24938,0 0,84.95817 -1.24938,0 0,-84.95817 z"
         style="fill:#ffffff;fill-opacity:1;fill-rule:evenodd;stroke:none"
         inkscape:connector-curvature="0" />
      <path
         id="path3101"
         d="m 418.54393,418.54393 82.45941,0 0,82.45941 -82.45941,0 0,-82.45941 z"
         style="fill:#f0f0f5;fill-opacity:1;fill-rule:evenodd;stroke:none"
         inkscape:connector-curvature="0" />
      <path
         id="path3103"
         d="m 427.28963,427.28963 64.96801,0 0,64.96801 -64.96801,0 0,-64.96801 64.96801,0"
         style="fill:none;stroke:#80ff00;stroke-width:1.24938488px;stroke-linecap:round;stroke-linejoin:round;stroke-opacity:1;stroke-dasharray:none"
         inkscape:connector-curvature="0" />
      <path
         id="path3105"
         d="m 284.85975,284.85975 1.24939,0 0,88.70633 -1.24939,0 0,-88.70633 z"
         style="fill:#a0a0a0;fill-opacity:1;fill-rule:evenodd;stroke:none"
         inkscape:connector-curvature="0" />
      <path
         id="path3107"
         d="m 284.85975,284.85975 88.70633,0 0,1.24939 -88.70633,0 0,-1.24939 z"
         style="fill:#a0a0a0;fill-opacity:1;fill-rule:evenodd;stroke:none"
         inkscape:connector-curvature="0" />
      <path
         id="path3109"
         d="m 284.85975,373.56608 88.70633,0 0,1.24938 -88.70633,0 0,-1.24938 z"
         style="fill:#a0a0a0;fill-opacity:1;fill-rule:evenodd;stroke:none"
         inkscape:connector-curvature="0" />
      <path
         id="path3111"
         d="m 373.56608,284.85975 1.24938,0 0,89.95571 -1.24938,0 0,-89.95571 z"
         style="fill:#a0a0a0;fill-opacity:1;fill-rule:evenodd;stroke:none"
         inkscape:connector-curvature="0" />
      <path
         id="path3113"
         d="m 286.10914,286.10914 1.24938,0 0,86.20755 -1.24938,0 0,-86.20755 z"
         style="fill:#a0a0a0;fill-opacity:1;fill-rule:evenodd;stroke:none"
         inkscape:connector-curvature="0" />
      <path
         id="path3115"
         d="m 286.10914,286.10914 86.20755,0 0,1.24938 -86.20755,0 0,-1.24938 z"
         style="fill:#a0a0a0;fill-opacity:1;fill-rule:evenodd;stroke:none"
         inkscape:connector-curvature="0" />
      <path
         id="path3117"
         d="m 286.10914,372.31669 86.20755,0 0,1.24939 -86.20755,0 0,-1.24939 z"
         style="fill:#a0a0a0;fill-opacity:1;fill-rule:evenodd;stroke:none"
         inkscape:connector-curvature="0" />
      <path
         id="path3119"
         d="m 372.31669,286.10914 1.24939,0 0,87.45694 -1.24939,0 0,-87.45694 z"
         style="fill:#a0a0a0;fill-opacity:1;fill-rule:evenodd;stroke:none"
         inkscape:connector-curvature="0" />
      <path
         id="path3121"
         d="m 286.10914,286.10914 1.24938,0 0,86.20755 -1.24938,0 0,-86.20755 z"
         style="fill:#a0a0a0;fill-opacity:1;fill-rule:evenodd;stroke:none"
         inkscape:connector-curvature="0" />
      <path
         id="path3123"
         d="m 286.10914,286.10914 86.20755,0 0,1.24938 -86.20755,0 0,-1.24938 z"
         style="fill:#a0a0a0;fill-opacity:1;fill-rule:evenodd;stroke:none"
         inkscape:connector-curvature="0" />
      <path
         id="path3125"
         d="m 286.10914,372.31669 86.20755,0 0,1.24939 -86.20755,0 0,-1.24939 z"
         style="fill:#ffffff;fill-opacity:1;fill-rule:evenodd;stroke:none"
         inkscape:connector-curvature="0" />
      <path
         id="path3127"
         d="m 372.31669,286.10914 1.24939,0 0,87.45694 -1.24939,0 0,-87.45694 z"
         style="fill:#ffffff;fill-opacity:1;fill-rule:evenodd;stroke:none"
         inkscape:connector-curvature="0" />
      <path
         id="path3129"
         d="m 287.35852,287.35852 1.24939,0 0,83.70879 -1.24939,0 0,-83.70879 z"
         style="fill:#696969;fill-opacity:1;fill-rule:evenodd;stroke:none"
         inkscape:connector-curvature="0" />
      <path
         id="path3131"
         d="m 287.35852,287.35852 83.70879,0 0,1.24939 -83.70879,0 0,-1.24939 z"
         style="fill:#696969;fill-opacity:1;fill-rule:evenodd;stroke:none"
         inkscape:connector-curvature="0" />
      <path
         id="path3133"
         d="m 287.35852,371.06731 83.70879,0 0,1.24938 -83.70879,0 0,-1.24938 z"
         style="fill:#ffffff;fill-opacity:1;fill-rule:evenodd;stroke:none"
         inkscape:connector-curvature="0" />
      <path
         id="path3135"
         d="m 371.06731,287.35852 1.24938,0 0,84.95817 -1.24938,0 0,-84.95817 z"
         style="fill:#ffffff;fill-opacity:1;fill-rule:evenodd;stroke:none"
         inkscape:connector-curvature="0" />
      <path
         id="path3137"
         d="m 288.60791,288.60791 82.4594,0 0,82.4594 -82.4594,0 0,-82.4594 z"
         style="fill:#f0f0f5;fill-opacity:1;fill-rule:evenodd;stroke:none"
         inkscape:connector-curvature="0" />
      <path
         id="path3139"
         d="m 297.3536,297.3536 64.96802,0 0,64.96802 -64.96802,0 0,-64.96802 64.96802,0"
         style="fill:none;stroke:#0080ff;stroke-width:1.24938488px;stroke-linecap:round;stroke-linejoin:round;stroke-opacity:1;stroke-dasharray:none"
         inkscape:connector-curvature="0" />
      <path
         id="path3141"
         d="m 134.93357,232.38559 64.96801,0 0,-64.96802 -64.96801,0 0,64.96802 z"
         style="fill:#ffffff;fill-opacity:1;fill-rule:evenodd;stroke:#00007f;stroke-width:1.24938488px;stroke-linecap:round;stroke-linejoin:round;stroke-opacity:1;stroke-dasharray:none"
         inkscape:connector-curvature="0" />
      <path
         id="path3143"
         d="M 118.69156,151.17557"
         clip-path="url(#clipEmfPath1)"
         style="fill:none;stroke:#0000ff;stroke-width:1.24938488px;stroke-linecap:round;stroke-linejoin:round;stroke-opacity:1;stroke-dasharray:none"
         inkscape:connector-curvature="0" />
      <text
         id="text3145"
         style="font-size:13.74323368px;font-style:normal;font-weight:normal;text-align:start;text-anchor:start;fill:#0000ff;font-family:Arial"
         y="167.09677"
         x="143.67926"
         xml:space="preserve">setpoint</text>
      <path
         id="path3147"
         d="M 118.69156,151.17557"
         style="fill:none;stroke:#0000ff;stroke-width:1.24938488px;stroke-linecap:round;stroke-linejoin:round;stroke-opacity:1;stroke-dasharray:none"
         inkscape:connector-curvature="0" />
      <path
         id="path3149"
         d="m 141.18049,177.41265 0,48.72601"
         style="fill:none;stroke:#c0c0c0;stroke-width:1.24938488px;stroke-linecap:round;stroke-linejoin:round;stroke-opacity:1;stroke-dasharray:none"
         inkscape:connector-curvature="0" />
      <path
         id="path3151"
         d="m 141.18049,171.16573 -2.49877,6.24692 4.99754,0 -2.49877,-6.24692 z"
         style="fill:#c0c0c0;fill-opacity:1;fill-rule:evenodd;stroke:#c0c0c0;stroke-width:1.24938488px;stroke-linecap:round;stroke-linejoin:round;stroke-opacity:1;stroke-dasharray:none"
         inkscape:connector-curvature="0" />
      <path
         id="path3153"
         d="m 138.68172,222.39051 54.97294,0"
         style="fill:none;stroke:#c0c0c0;stroke-width:1.24938488px;stroke-linecap:round;stroke-linejoin:round;stroke-opacity:1;stroke-dasharray:none"
         inkscape:connector-curvature="0" />
      <path
         id="path3155"
         d="m 196.15343,222.39051 -6.24693,-2.49877 0,4.99754 6.24693,-2.49877 z"
         style="fill:#c0c0c0;fill-opacity:1;fill-rule:evenodd;stroke:#c0c0c0;stroke-width:1.24938488px;stroke-linecap:round;stroke-linejoin:round;stroke-opacity:1;stroke-dasharray:none"
         inkscape:connector-curvature="0" />
      <path
         id="path3157"
         d="M 119.66608,236.28366"
         clip-path="url(#clipEmfPath2)"
         style="fill:none;stroke:#000000;stroke-width:1.24938488px;stroke-linecap:round;stroke-linejoin:round;stroke-opacity:1;stroke-dasharray:none"
         inkscape:connector-curvature="0" />
      <text
         id="text3159"
         style="font-size:13.74323368px;font-style:normal;font-weight:normal;text-align:start;text-anchor:start;fill:#000000;font-family:Arial"
         y="252.20486"
         x="127.16239"
         xml:space="preserve">period=period</text>
      <path
         id="path3161"
         d="M 119.66608,236.28366"
         style="fill:none;stroke:#000000;stroke-width:1.24938488px;stroke-linecap:round;stroke-linejoin:round;stroke-opacity:1;stroke-dasharray:none"
         inkscape:connector-curvature="0" />
      <path
         id="path3163"
         d="m 141.18049,222.39051 6.24693,0 9.99507,-34.98278 12.49385,0 9.99508,34.98278 7.49631,0 8.7457,-34.98278"
         style="fill:none;stroke:#000000;stroke-width:1.24938488px;stroke-linecap:round;stroke-linejoin:round;stroke-opacity:1;stroke-dasharray:none"
         inkscape:connector-curvature="0" />
      <path
         id="path3165"
         d="m 232.38559,459.77364 64.96801,0"
         style="fill:none;stroke:#ffffff;stroke-width:6.2469244px;stroke-linecap:round;stroke-linejoin:round;stroke-opacity:1;stroke-dasharray:none"
         inkscape:connector-curvature="0" />
      <path
         id="path3167"
         d="m 232.38559,459.77364 64.96801,0"
         style="fill:none;stroke:#000000;stroke-width:1.24938488px;stroke-linecap:round;stroke-linejoin:round;stroke-opacity:1;stroke-dasharray:none"
         inkscape:connector-curvature="0" />
      <path
         id="path3169"
         d="m 232.38559,479.76379 64.96801,0"
         style="fill:none;stroke:#ffffff;stroke-width:6.2469244px;stroke-linecap:round;stroke-linejoin:round;stroke-opacity:1;stroke-dasharray:none"
         inkscape:connector-curvature="0" />
      <path
         id="path3171"
         d="m 232.38559,479.76379 64.96801,0"
         style="fill:none;stroke:#000000;stroke-width:1.24938488px;stroke-linecap:round;stroke-linejoin:round;stroke-opacity:1;stroke-dasharray:none"
         inkscape:connector-curvature="0" />
      <path
         id="path3173"
         d="m 362.32162,459.77364 64.96801,0"
         style="fill:none;stroke:#ffffff;stroke-width:6.2469244px;stroke-linecap:round;stroke-linejoin:round;stroke-opacity:1;stroke-dasharray:none"
         inkscape:connector-curvature="0" />
      <path
         id="path3175"
         d="m 362.32162,459.77364 64.96801,0"
         style="fill:none;stroke:#000000;stroke-width:1.24938488px;stroke-linecap:round;stroke-linejoin:round;stroke-opacity:1;stroke-dasharray:none"
         inkscape:connector-curvature="0" />
      <path
         id="path3177"
         d="m 362.32162,329.83761 194.90404,0 0,129.93603 -61.21986,0"
         style="fill:none;stroke:#ffffff;stroke-width:6.2469244px;stroke-linecap:round;stroke-linejoin:round;stroke-opacity:1;stroke-dasharray:none"
         inkscape:connector-curvature="0" />
      <path
         id="path3179"
         d="m 362.32162,329.83761 194.90404,0 0,129.93603 -61.21986,0"
         style="fill:none;stroke:#00007f;stroke-width:1.24938488px;stroke-linecap:round;stroke-linejoin:round;stroke-opacity:1;stroke-dasharray:none"
         inkscape:connector-curvature="0" />
      <path
         id="path3181"
         d="m 293.60545,329.83761 -191.15589,0 0,129.93603 58.72109,0"
         style="fill:none;stroke:#ffffff;stroke-width:6.2469244px;stroke-linecap:round;stroke-linejoin:round;stroke-opacity:1;stroke-dasharray:none"
         inkscape:connector-curvature="0" />
      <path
         id="path3183"
         d="m 293.60545,329.83761 -191.15589,0 0,129.93603 58.72109,0"
         style="fill:none;stroke:#00007f;stroke-width:1.24938488px;stroke-linecap:round;stroke-linejoin:round;stroke-opacity:1;stroke-dasharray:none"
         inkscape:connector-curvature="0" />
      <path
         id="path3185"
         d="m 203.64974,199.90158 126.18787,0 0,91.2051"
         style="fill:none;stroke:#ffffff;stroke-width:6.2469244px;stroke-linecap:round;stroke-linejoin:round;stroke-opacity:1;stroke-dasharray:none"
         inkscape:connector-curvature="0" />
      <path
         id="path3187"
         d="m 203.64974,199.90158 126.18787,0 0,91.2051"
         style="fill:none;stroke:#00007f;stroke-width:1.24938488px;stroke-linecap:round;stroke-linejoin:round;stroke-opacity:1;stroke-dasharray:none"
         inkscape:connector-curvature="0" />
      <path
         id="path3189"
         d="m 366.06977,459.77364 0,0 0,1.24938 0,0 -1.24939,1.24939 0,0 0,0 -1.24938,1.24938 0,0 -1.24938,0 0,0 0,0 -1.24939,0 0,0 -1.24938,-1.24938 0,0 0,0 -1.24939,-1.24939 0,0 0,-1.24938 0,0 0,0 0,-1.24939 0,0 1.24939,-1.24938 0,0 0,0 1.24938,-1.24939 0,0 1.24939,0 0,0 0,0 1.24938,0 0,0 1.24938,1.24939 0,0 0,0 1.24939,1.24938 0,0 0,1.24939 0,0 z"
         style="fill:#ffffff;fill-opacity:1;fill-rule:evenodd;stroke:#000000;stroke-width:1.24938488px;stroke-linecap:round;stroke-linejoin:round;stroke-opacity:1;stroke-dasharray:none"
         inkscape:connector-curvature="0" />
      <path
         id="path3191"
         d="m 301.10176,459.77364 0,0 0,1.24938 0,0 -1.24939,1.24939 0,0 0,0 -1.24938,1.24938 0,0 -1.24939,0 0,0 0,0 -1.24938,0 0,0 -1.24939,-1.24938 0,0 0,0 -1.24938,-1.24939 0,0 0,-1.24938 0,0 0,0 0,-1.24939 0,0 1.24938,-1.24938 0,0 0,0 1.24939,-1.24939 0,0 1.24938,0 0,0 0,0 1.24939,0 0,0 1.24938,1.24939 0,0 0,0 1.24939,1.24938 0,0 0,1.24939 0,0 z"
         style="fill:#5f5f5f;fill-opacity:1;fill-rule:evenodd;stroke:#000000;stroke-width:1.24938488px;stroke-linecap:round;stroke-linejoin:round;stroke-opacity:1;stroke-dasharray:none"
         inkscape:connector-curvature="0" />
      <path
         id="path3193"
         d="m 301.10176,479.76379 0,0 0,1.24939 0,0 -1.24939,1.24938 0,0 0,0 -1.24938,1.24939 0,0 -1.24939,0 0,0 0,0 -1.24938,0 0,0 -1.24939,-1.24939 0,0 0,0 -1.24938,-1.24938 0,0 0,-1.24939 0,0 0,0 0,-1.24938 0,0 1.24938,-1.24939 0,0 0,0 1.24939,-1.24938 0,0 1.24938,0 0,0 0,0 1.24939,0 0,0 1.24938,1.24938 0,0 0,0 1.24939,1.24939 0,0 0,1.24938 0,0 z"
         style="fill:#5f5f5f;fill-opacity:1;fill-rule:evenodd;stroke:#000000;stroke-width:1.24938488px;stroke-linecap:round;stroke-linejoin:round;stroke-opacity:1;stroke-dasharray:none"
         inkscape:connector-curvature="0" />
      <path
         id="path3195"
         d="m 292.35606,474.76625 0,11.24447 11.24447,0 0,-11.24447 -11.24447,0 z"
         style="fill:#c0c0c0;fill-opacity:1;fill-rule:evenodd;stroke:#c0c0c0;stroke-width:1.24938488px;stroke-linecap:round;stroke-linejoin:round;stroke-opacity:1;stroke-dasharray:none"
         inkscape:connector-curvature="0" />
      <path
         id="path3197"
         d="m 301.10176,479.76379 0,0 0,1.24939 0,0 -1.24939,1.24938 0,0 0,0 -1.24938,1.24939 0,0 -1.24939,0 0,0 0,0 -1.24938,0 0,0 -1.24939,-1.24939 0,0 0,0 -1.24938,-1.24938 0,0 0,-1.24939 0,0 0,0 0,-1.24938 0,0 1.24938,-1.24939 0,0 0,0 1.24939,-1.24938 0,0 1.24938,0 0,0 0,0 1.24939,0 0,0 1.24938,1.24938 0,0 0,0 1.24939,1.24939 0,0 0,1.24938 0,0 z"
         style="fill:#5f5f5f;fill-opacity:1;fill-rule:evenodd;stroke:#000000;stroke-width:1.24938488px;stroke-linecap:round;stroke-linejoin:round;stroke-opacity:1;stroke-dasharray:none"
         inkscape:connector-curvature="0" />
      <path
         id="path3199"
         d="m 236.13374,459.77364 0,0 0,1.24938 0,0 -1.24938,1.24939 0,0 0,0 -1.24939,1.24938 0,0 -1.24938,0 0,0 0,0 -1.24939,0 0,0 -1.24938,-1.24938 0,0 0,0 -1.24939,-1.24939 0,0 0,-1.24938 0,0 0,0 0,-1.24939 0,0 1.24939,-1.24938 0,0 0,0 1.24938,-1.24939 0,0 1.24939,0 0,0 0,0 1.24938,0 0,0 1.24939,1.24939 0,0 0,0 1.24938,1.24938 0,0 0,1.24939 0,0 z"
         style="fill:#ffffff;fill-opacity:1;fill-rule:evenodd;stroke:#000000;stroke-width:1.24938488px;stroke-linecap:round;stroke-linejoin:round;stroke-opacity:1;stroke-dasharray:none"
         inkscape:connector-curvature="0" />
      <path
         id="path3201"
         d="m 236.13374,479.76379 0,0 0,1.24939 0,0 -1.24938,1.24938 0,0 0,0 -1.24939,1.24939 0,0 -1.24938,0 0,0 0,0 -1.24939,0 0,0 -1.24938,-1.24939 0,0 0,0 -1.24939,-1.24938 0,0 0,-1.24939 0,0 0,0 0,-1.24938 0,0 1.24939,-1.24939 0,0 0,0 1.24938,-1.24938 0,0 1.24939,0 0,0 0,0 1.24938,0 0,0 1.24939,1.24938 0,0 0,0 1.24938,1.24939 0,0 0,1.24938 0,0 z"
         style="fill:#5f5f5f;fill-opacity:1;fill-rule:evenodd;stroke:#000000;stroke-width:1.24938488px;stroke-linecap:round;stroke-linejoin:round;stroke-opacity:1;stroke-dasharray:none"
         inkscape:connector-curvature="0" />
      <path
         id="path3203"
         d="m 227.38805,474.76625 0,11.24447 11.24446,0 0,-11.24447 -11.24446,0 z"
         style="fill:#c0c0c0;fill-opacity:1;fill-rule:evenodd;stroke:#c0c0c0;stroke-width:1.24938488px;stroke-linecap:round;stroke-linejoin:round;stroke-opacity:1;stroke-dasharray:none"
         inkscape:connector-curvature="0" />
      <path
         id="path3205"
         d="m 236.13374,479.76379 0,0 0,1.24939 0,0 -1.24938,1.24938 0,0 0,0 -1.24939,1.24939 0,0 -1.24938,0 0,0 0,0 -1.24939,0 0,0 -1.24938,-1.24939 0,0 0,0 -1.24939,-1.24938 0,0 0,-1.24939 0,0 0,0 0,-1.24938 0,0 1.24939,-1.24939 0,0 0,0 1.24938,-1.24938 0,0 1.24939,0 0,0 0,0 1.24938,0 0,0 1.24939,1.24938 0,0 0,0 1.24938,1.24939 0,0 0,1.24938 0,0 z"
         style="fill:#5f5f5f;fill-opacity:1;fill-rule:evenodd;stroke:#000000;stroke-width:1.24938488px;stroke-linecap:round;stroke-linejoin:round;stroke-opacity:1;stroke-dasharray:none"
         inkscape:connector-curvature="0" />
      <path
         id="path3207"
         d="m 154.92373,453.52671 12.49384,6.24693 -12.49384,6.24692 0,-12.49385 z"
         style="fill:#00007f;fill-opacity:1;fill-rule:evenodd;stroke:#00007f;stroke-width:1.24938488px;stroke-linecap:round;stroke-linejoin:round;stroke-opacity:1;stroke-dasharray:none"
         inkscape:connector-curvature="0" />
      <path
         id="path3209"
         d="m 431.03778,459.77364 0,0 0,1.24938 0,0 -1.24938,1.24939 0,0 0,0 -1.24939,1.24938 0,0 -1.24938,0 0,0 0,0 -1.24939,0 0,0 -1.24938,-1.24938 0,0 0,0 -1.24939,-1.24939 0,0 0,-1.24938 0,0 0,0 0,-1.24939 0,0 1.24939,-1.24938 0,0 0,0 1.24938,-1.24939 0,0 1.24939,0 0,0 0,0 1.24938,0 0,0 1.24939,1.24939 0,0 0,0 1.24938,1.24938 0,0 0,1.24939 0,0 z"
         style="fill:#5f5f5f;fill-opacity:1;fill-rule:evenodd;stroke:#000000;stroke-width:1.24938488px;stroke-linecap:round;stroke-linejoin:round;stroke-opacity:1;stroke-dasharray:none"
         inkscape:connector-curvature="0" />
      <path
         id="path3211"
         d="m 492.25764,456.02548 7.49631,3.74816 -7.49631,3.74815 0,-7.49631 z"
         style="fill:#ffffff;fill-opacity:1;fill-rule:evenodd;stroke:#00007f;stroke-width:1.24938488px;stroke-linecap:round;stroke-linejoin:round;stroke-opacity:1;stroke-dasharray:none"
         inkscape:connector-curvature="0" />
      <path
         id="path3213"
         d="m 336.08453,284.85975 -6.24692,12.49385 -6.24693,-12.49385 12.49385,0 z"
         style="fill:#00007f;fill-opacity:1;fill-rule:evenodd;stroke:#00007f;stroke-width:1.24938488px;stroke-linecap:round;stroke-linejoin:round;stroke-opacity:1;stroke-dasharray:none"
         inkscape:connector-curvature="0" />
      <path
         id="path3215"
         d="m 368.56854,336.08453 -12.49385,-6.24692 12.49385,-6.24693 0,12.49385 z"
         style="fill:#00007f;fill-opacity:1;fill-rule:evenodd;stroke:#00007f;stroke-width:1.24938488px;stroke-linecap:round;stroke-linejoin:round;stroke-opacity:1;stroke-dasharray:none"
         inkscape:connector-curvature="0" />
      <path
         id="path3217"
         d="m 297.3536,333.58576 -7.49631,-3.74815 7.49631,-3.74816 0,7.49631 z"
         style="fill:#ffffff;fill-opacity:1;fill-rule:evenodd;stroke:#00007f;stroke-width:1.24938488px;stroke-linecap:round;stroke-linejoin:round;stroke-opacity:1;stroke-dasharray:none"
         inkscape:connector-curvature="0" />
      <path
         id="path3219"
         d="m 199.90158,196.15343 7.49631,3.74815 -7.49631,3.74816 0,-7.49631 z"
         style="fill:#ffffff;fill-opacity:1;fill-rule:evenodd;stroke:#00007f;stroke-width:1.24938488px;stroke-linecap:round;stroke-linejoin:round;stroke-opacity:1;stroke-dasharray:none"
         inkscape:connector-curvature="0" />
    </g>
  </g>
</svg>
