<?xml version="1.0" encoding="UTF-8"?>
<!DOCTYPE svg PUBLIC "-//W3C//DTD SVG 1.1//EN" "http://www.w3.org/Graphics/SVG/1.1/DTD/svg11.dtd">
<svg version="1.1" xmlns="http://www.w3.org/2000/svg" xmlns:xlink="http://www.w3.org/1999/xlink" x="0px" y="0px" width="900" height="500" viewBox="0, 0, 900, 500">
  <g id="Layer 1">
    <path d="M229.44,78.98 L247.92,139.7 L268.2,75.02 Q269.76,69.98 273.6,69.98 L274.2,69.98 Q275.4,69.98 277.32,70.34 Q279.72,70.94 280.44,70.94 Q282.36,71.18 285.72,71.18 Q289.32,71.18 291.36,70.82 L295.56,70.1 Q295.92,69.98 297,69.98 Q302.52,69.98 302.52,74.18 Q302.52,78.02 298.68,78.02 Q297.72,78.02 295.86,77.72 Q294,77.42 293.04,77.42 Q286.92,77.42 286.92,86.42 L286.92,94.82 L286.8,105.38 L286.8,115.58 L286.92,134.54 Q286.92,143.54 292.92,143.54 Q294.12,143.54 295.56,143.18 Q298.2,142.94 298.68,142.94 Q302.52,142.94 302.52,146.78 Q302.52,151.1 297.36,151.1 Q297.6,151.1 295.56,150.86 Q287.28,149.9 281.52,149.9 Q275.88,149.9 270.72,150.74 Q268.56,151.1 266.88,151.1 Q262.2,151.1 262.2,147.14 Q262.2,143.06 267,143.06 Q268.2,143.06 268.8,143.18 Q271.44,143.42 271.92,143.42 Q276.24,143.42 277.32,134.42 Q277.56,132.5 277.56,122.18 Q277.56,118.22 277.68,110.66 L277.92,99.86 L277.92,78.62 Q277.92,77.9 277.32,77.9 Q276.96,77.9 276.6,78.62 L254.52,147.14 Q253.08,151.7 247.8,151.7 Q244.68,151.7 243.18,150.8 Q241.68,149.9 240.84,147.14 L219.12,78.62 Q218.76,77.9 218.28,77.9 Q217.8,77.9 217.8,78.62 L218.52,134.42 Q218.64,143.18 223.32,143.18 Q224.64,143.18 226.92,142.7 L228.36,142.7 Q233.04,142.7 233.04,146.9 Q233.04,151.1 228.24,151.1 Q227.4,151.1 225.72,150.86 Q223.08,150.5 220.08,150.02 Q217.68,149.66 213.96,149.66 Q207.36,149.66 205.44,150.02 L200.4,150.98 Q200.16,150.98 199.68,151.1 Q199.2,151.1 198.96,151.1 Q193.44,151.1 193.44,146.9 Q193.44,145.22 194.52,144.08 Q195.6,142.94 197.16,142.94 Q198.48,142.94 200.28,143.3 Q202.08,143.66 202.92,143.66 Q209.04,143.66 209.04,134.66 L209.04,86.42 Q209.04,77.42 202.92,77.42 Q201.96,77.42 200.04,77.72 Q198.12,78.02 197.16,78.02 Q193.44,78.02 193.44,74.18 Q193.44,69.98 198.84,69.98 Q199.32,69.98 200.4,70.1 L204.6,70.58 Q207.72,70.94 210.48,70.94 Q212.76,70.94 216.66,70.46 Q220.56,69.98 222.36,69.98 Q227.04,69.98 228.6,75.86 z" fill="#000000"/>
    <path d="M337.08,152.54 Q324.48,152.54 316.92,143.84 Q309.36,135.14 309.36,120.5 Q309.36,105.86 316.98,97.16 Q324.6,88.46 337.44,88.46 Q350.52,88.46 358.08,96.98 Q365.64,105.5 365.64,120.14 Q365.64,134.78 357.84,143.66 Q350.04,152.54 337.08,152.54 z M337.68,96.38 Q329.28,96.38 324.48,102.26 Q319.68,108.14 319.2,118.94 Q319.2,118.94 319.2,120.5 Q319.2,131.78 323.94,138.2 Q328.68,144.62 337.2,144.62 Q345.96,144.62 350.94,138.2 Q355.92,131.78 355.92,120.38 Q355.92,96.38 337.68,96.38 z" fill="#000000"/>
    <path d="M401.88,88.46 Q413.76,88.46 419.64,97.7 L419.64,85.58 Q419.64,80.78 419.4,79.7 Q418.8,75.98 416.04,75.98 Q415.08,75.98 413.34,76.34 Q411.6,76.7 410.64,76.7 Q406.2,76.7 406.2,72.86 Q406.2,68.9 412.2,68.9 Q413.16,68.9 415.68,69.14 Q419.52,69.5 419.64,69.5 Q420.72,69.5 422.76,69.26 Q424.8,69.02 425.88,69.02 Q429.24,69.02 429.24,73.82 L429.24,75.14 Q429.12,75.5 429,81.5 Q429,82.22 428.64,90.74 Q428.4,96.74 428.4,99.86 L428.4,111.62 L428.64,131.66 Q428.76,139.58 429.36,141.5 Q429.96,143.42 432.24,143.42 Q433.8,143.42 434.64,143.18 Q436.56,142.94 437.28,142.94 Q441.72,142.94 441.72,146.9 Q441.72,150.98 436.32,150.98 Q435.12,150.98 432.66,150.68 Q430.2,150.38 429,150.38 Q428.64,150.38 426.24,150.62 Q424.8,150.98 423.72,150.98 Q420.48,150.98 420.48,146.66 L420.48,146.06 L420.6,144.02 Q414.24,152.54 402.12,152.54 Q389.88,152.54 382.44,143.66 Q375,134.78 375,120.38 Q375,105.86 382.32,97.16 Q389.64,88.46 401.88,88.46 z M418.92,130.82 Q419.4,126.86 419.4,120.62 Q419.4,112.58 418.8,109.7 Q417.72,103.7 413.64,100.34 Q408.84,96.38 402.6,96.38 Q394.2,96.38 389.46,102.74 Q384.72,109.1 384.72,120.14 Q384.72,131.54 389.64,138.08 Q394.56,144.62 403.08,144.62 Q409.56,144.62 413.88,140.84 Q418.2,137.06 418.92,130.82 z" fill="#000000"/>
    <path d="M501.48,115.22 Q501.48,119.78 500.88,120.8 Q500.28,121.82 497.4,121.82 L459.24,121.82 Q457.68,121.82 457.2,122.24 Q456.72,122.66 456.72,123.62 Q456.72,132.62 462.12,138.62 Q467.52,144.62 475.56,144.62 Q480.84,144.62 485.22,141.74 Q489.6,138.86 490.92,134.42 L492,130.94 Q492.84,128.06 495.96,128.06 Q500.4,128.06 500.4,132.62 Q500.4,140.42 492.48,146.48 Q484.56,152.54 474.48,152.54 Q461.88,152.54 454.44,144.08 Q447,135.62 447,121.34 Q447,106.7 454.92,97.58 Q462.84,88.46 475.56,88.46 Q486.84,88.46 494.16,96.02 Q501.48,103.58 501.48,115.22 z M457.92,112.1 Q457.92,113.78 460.56,113.78 L489.24,113.78 Q491.76,113.78 491.76,112.1 Q491.76,105.74 486.96,101.06 Q482.16,96.38 475.68,96.38 Q468.96,96.38 463.44,101.24 Q457.92,106.1 457.92,112.1 z" fill="#000000"/>
    <path d="M529.08,100.34 L529.2,137.66 Q529.32,143.78 532.44,143.78 Q533.16,143.78 535.44,143.18 Q536.88,142.94 537.36,142.94 Q541.32,142.94 541.32,147.02 Q541.32,150.98 536.4,150.98 Q534.48,150.98 530.28,150.5 Q526.08,150.02 523.8,150.02 Q521.88,150.02 518.04,150.5 Q514.2,150.98 512.4,150.98 L511.8,150.98 Q506.76,150.98 506.76,146.66 Q506.76,142.94 510.84,142.94 Q511.08,142.94 511.68,142.94 Q512.4,143.06 512.76,143.06 Q515.76,143.54 516.24,143.54 Q518.4,143.54 518.94,141.68 Q519.48,139.82 519.6,132.02 L519.72,123.62 L520.08,105.02 L519.96,83.66 Q519.84,80.06 519.6,78.86 Q518.76,76.1 516.24,76.1 Q515.88,76.1 513.12,76.58 Q511.8,76.82 510.96,76.82 Q506.88,76.82 506.88,72.98 Q506.88,69.02 511.68,69.02 Q513,69.02 513.96,69.14 L516.84,69.5 Q518.76,69.74 520.08,69.74 Q521.28,69.74 523.68,69.32 Q526.08,68.9 527.28,68.9 Q530.04,68.9 530.04,72.38 Q530.04,73.58 529.92,74.18 Q529.08,83.42 529.08,100.34 z" fill="#000000"/>
    <path d="M566.88,115.7 L566.88,131.3 Q566.88,137.3 567,138.38 Q567.6,143.78 570.24,143.78 Q570.84,143.78 573.24,143.18 Q573.84,142.94 575.04,142.94 Q579.6,142.94 579.6,146.9 Q579.6,148.58 578.1,149.78 Q576.6,150.98 574.32,150.98 Q572.4,150.98 568.5,150.44 Q564.6,149.9 562.68,149.9 Q559.56,149.9 555.72,150.38 Q551.04,150.98 549.48,150.98 Q544.68,150.98 544.68,146.9 Q544.68,142.94 548.76,142.94 Q549.72,142.94 551.58,143.3 Q553.44,143.66 554.4,143.66 Q557.28,143.66 557.88,135.98 Q557.88,135.5 557.88,125.54 L557.88,115.7 Q557.88,105.74 557.88,105.26 Q557.28,97.7 554.28,97.7 Q553.32,97.7 551.58,98.12 Q549.84,98.54 549,98.54 Q544.68,98.54 544.68,94.7 Q544.68,90.62 549.96,90.62 Q552.24,90.62 553.2,90.74 Q557.04,91.22 558.12,91.22 Q559.08,91.22 561.06,90.92 Q563.04,90.62 564,90.62 Q567.48,90.62 567.48,95.3 Q567.48,95.78 567.36,96.74 Q567.24,97.7 567.24,98.18 Q567.12,99.14 567,105.62 Q566.88,110.54 566.88,115.7 z M560.64,84.26 Q557.88,84.26 555.9,82.28 Q553.92,80.3 553.92,77.54 Q553.92,74.78 555.9,72.86 Q557.88,70.94 560.64,70.94 Q563.4,70.94 565.38,72.86 Q567.36,74.78 567.36,77.54 Q567.36,80.3 565.38,82.28 Q563.4,84.26 560.64,84.26 z" fill="#000000"/>
    <path d="M619.56,110.9 Q619.56,106.1 625.56,105.38 Q624.96,101.18 621.54,98.78 Q618.12,96.38 612.72,96.38 Q604.44,96.38 599.4,102.98 Q594.36,109.58 594.36,120.5 Q594.36,131.78 599.1,138.2 Q603.84,144.62 612.24,144.62 Q617.52,144.62 621.42,141.62 Q625.32,138.62 626.76,133.34 Q627.96,129.14 628.2,128.54 Q629.52,126.14 632.04,126.14 Q634.08,126.14 635.4,127.46 Q636.72,128.78 636.72,130.82 Q636.72,133.82 634.8,138.02 Q632.88,142.22 630.24,144.98 Q623.16,152.54 611.88,152.54 Q599.64,152.54 592.14,143.9 Q584.64,135.26 584.64,121.22 Q584.64,106.34 592.38,97.4 Q600.12,88.46 612.96,88.46 Q622.56,88.46 628.92,93.68 Q635.28,98.9 635.28,106.94 Q635.28,111.38 632.82,114.26 Q630.36,117.14 626.52,117.14 Q623.52,117.14 621.54,115.34 Q619.56,113.54 619.56,110.9 z" fill="#000000"/>
    <path d="M697.44,152.06 Q687.6,152.06 685.32,143.54 Q679.2,152.54 666.12,152.54 Q656.4,152.54 650.58,147.74 Q644.76,142.94 644.76,134.9 Q644.76,124.94 653.28,120.26 Q656.52,118.46 658.86,117.92 Q661.2,117.38 668.28,116.54 Q678.36,115.46 681.42,113.54 Q684.48,111.62 684.48,106.46 Q684.48,101.54 681.06,98.72 Q677.64,95.9 671.52,95.9 Q666.12,95.9 661.44,98.9 Q659.64,100.1 659.64,101.42 Q659.64,101.9 660.72,102.62 Q662.4,103.82 662.4,106.7 Q662.4,109.1 660.66,110.66 Q658.92,112.22 656.28,112.22 Q653.16,112.22 651.06,110.06 Q648.96,107.9 648.96,104.78 Q648.96,98.06 655.62,93.26 Q662.28,88.46 671.76,88.46 Q693.6,88.46 693.6,109.46 L693.6,133.7 Q693.6,139.46 693.84,140.54 Q694.56,144.74 697.92,144.74 Q702.12,144.74 702.12,137.06 L702.12,131.18 Q702.12,127.34 705.84,127.34 Q709.8,127.34 709.8,133.1 L709.8,133.7 L709.68,140.54 Q709.44,152.06 697.44,152.06 z M684.12,128.18 L684.24,119.66 Q681.6,122.06 678.66,123.02 Q675.72,123.98 668.16,124.7 Q654.48,126.02 654.48,134.78 Q654.48,139.34 657.78,141.98 Q661.08,144.62 666.72,144.62 Q674.76,144.62 679.38,140.24 Q684,135.86 684.12,128.18 z" fill="#000000"/>
    <path d="M400.38,211.94 Q399.42,221.9 399.3,235.58 Q403.14,230.54 407.1,228.5 Q411.06,226.46 417.06,226.46 Q429.06,226.46 436.14,234.86 Q443.22,243.26 443.22,257.18 Q443.22,272.42 435.72,281.48 Q428.22,290.54 415.5,290.54 Q403.14,290.54 397.62,281.3 Q398.1,284.78 398.1,285.14 Q398.1,289.46 393.9,289.46 Q389.7,289.46 389.7,283.46 Q389.7,281.78 389.82,280.94 Q389.82,278.18 389.94,275.06 L390.3,265.82 L390.54,253.7 L390.3,221.66 Q390.18,217.22 389.4,215.66 Q388.62,214.1 386.7,214.1 Q386.34,214.1 383.58,214.58 Q382.26,214.82 381.3,214.82 Q377.22,214.82 377.22,210.98 Q377.22,207.02 382.02,207.02 Q383.46,207.02 384.42,207.14 L387.3,207.5 Q389.22,207.74 390.42,207.74 Q391.74,207.74 394.14,207.32 Q396.54,206.9 397.74,206.9 Q400.38,206.9 400.38,210.26 z M400.26,246.74 Q399.42,250.58 399.42,257.54 Q399.42,269.42 401.34,273.86 Q405.06,282.62 415.5,282.62 Q423.78,282.62 428.64,276.08 Q433.5,269.54 433.5,258.5 Q433.5,247.22 428.88,240.8 Q424.26,234.38 416.22,234.38 Q410.58,234.38 406.02,237.92 Q401.46,241.46 400.26,246.74 z" fill="#000000"/>
    <path d="M471.3,240.02 L485.1,280.58 L499.74,240.62 Q500.34,238.94 500.34,237.98 Q500.34,235.94 497.58,235.94 Q496.14,235.94 495.3,236.18 Q493.38,236.42 492.78,236.42 Q488.82,236.42 488.82,232.58 Q488.82,228.5 493.98,228.5 Q494.7,228.5 496.38,228.74 L500.7,229.34 Q502.38,229.58 504.3,229.58 Q506.34,229.58 510.3,229.1 Q514.26,228.62 516.3,228.62 Q521.46,228.62 521.46,232.58 Q521.46,236.42 517.5,236.42 Q516.3,236.42 515.7,236.18 Q514.14,235.82 513.54,235.82 Q511.26,235.82 508.86,241.94 L492.54,282.74 Q487.14,296.3 482.34,302.42 Q474.18,312.86 461.94,312.86 Q454.62,312.86 449.64,309.14 Q444.66,305.42 444.66,300.14 Q444.66,296.42 446.82,294.08 Q448.98,291.74 452.46,291.74 Q455.22,291.74 457.02,293.36 Q458.82,294.98 458.82,297.38 Q458.82,301.22 455.34,302.3 Q457.14,304.94 462.18,304.94 Q468.54,304.94 473.64,300.2 Q478.74,295.46 478.74,289.58 Q478.74,286.58 475.5,278.42 L462.3,245.06 Q462.3,245.06 460.86,241.22 Q458.82,235.82 456.18,235.82 Q455.46,235.82 453.6,236.18 Q451.74,236.54 451.14,236.54 Q446.94,236.54 446.94,232.7 Q446.94,228.62 452.46,228.62 Q454.26,228.62 455.22,228.74 L460.02,229.34 Q460.14,229.34 460.98,229.34 Q461.82,229.46 462.42,229.46 Q466.74,229.46 471.66,228.98 Q475.38,228.62 476.58,228.62 Q481.62,228.62 481.62,232.58 Q481.62,236.54 477.06,236.54 Q476.34,236.54 474.78,236.24 Q473.22,235.94 472.5,235.94 Q470.82,235.94 470.82,237.62 Q470.82,238.58 471.3,240.02 z" fill="#000000"/>
    <path d="M215.1,362.42 Q215.1,353.54 208.98,353.54 Q207.3,353.54 206.46,353.78 Q204.54,354.14 203.22,354.14 Q201.66,354.14 200.58,353 Q199.5,351.86 199.5,350.18 Q199.5,345.98 204.54,345.98 Q204.66,345.98 206.34,346.1 Q224.34,347.3 223.14,347.3 Q224.34,347.3 224.34,347.3 L253.26,346.46 Q254.1,346.46 259.5,346.1 Q261.42,345.98 262.98,345.98 Q269.22,345.98 269.22,351.5 Q269.22,352.46 268.74,357.62 Q268.38,361.46 268.38,364.7 Q268.38,368.9 268.62,370.58 Q269.1,374.06 269.1,375.74 Q269.1,380.3 264.78,380.3 Q260.46,380.3 260.46,373.94 L260.46,367.7 Q260.46,357.62 256.26,355.82 Q253.14,354.5 240.18,354.5 Q231.66,354.5 230.1,354.86 Q224.94,356.18 224.94,362.06 L224.94,367.46 Q224.94,368.42 224.94,370.1 Q224.82,371.78 224.82,372.5 L224.82,374.06 Q224.82,378.86 226.98,379.58 Q227.82,379.82 229.86,379.82 L234.78,379.82 Q242.34,379.82 242.34,374.66 Q242.34,373.22 241.98,370.94 Q241.62,368.66 241.62,366.86 Q241.62,362.06 245.94,362.06 Q250.26,362.06 250.26,367.22 Q250.26,368.18 249.42,374.66 Q248.7,380.18 248.7,384.38 Q248.7,386.78 249.18,392.9 Q249.3,393.86 249.78,397.1 Q250.14,399.74 250.14,401.3 Q250.14,405.62 245.82,405.62 Q241.62,405.62 241.62,400.58 Q241.62,399.26 241.92,396.74 Q242.22,394.22 242.22,392.9 Q242.22,387.74 235.38,387.74 L229.98,387.74 Q226.5,387.74 225.72,388.94 Q224.94,390.14 224.94,394.1 L224.94,401.54 Q224.94,403.46 225.06,406.7 Q225.18,410.66 225.18,411.98 Q225.3,416.78 227.1,417.98 Q228.42,418.82 233.34,418.82 L249.66,418.82 Q256.74,418.82 259.38,416.72 Q262.02,414.62 262.02,408.86 Q262.02,407.06 261.84,403.52 Q261.66,399.98 261.66,398.18 Q261.66,392.78 265.98,392.78 Q270.54,392.78 270.54,398.3 Q270.54,400.46 270.3,404.9 Q270.06,409.34 270.06,411.5 Q270.06,413.18 270.24,416.48 Q270.42,419.78 270.42,421.46 Q270.42,427.1 264.9,427.1 Q263.58,427.1 260.7,426.86 Q259.26,426.74 255.42,426.74 Q256.26,426.74 246.06,426.5 Q235.86,426.26 228.42,426.26 Q217.14,426.26 206.34,426.98 Q205.86,426.98 205.26,427.1 Q204.66,427.1 204.54,427.1 Q199.5,427.1 199.5,422.78 Q199.5,418.94 203.22,418.94 Q203.82,418.94 206.46,419.18 Q207.78,419.54 208.98,419.54 Q215.1,419.54 215.1,410.54 z" fill="#000000"/>
    <path d="M293.46,414.5 L310.14,395.42 L293.46,375.74 Q291.78,373.82 289.38,373.82 Q288.42,373.82 287.94,373.94 L285.9,374.42 Q285.42,374.54 284.22,374.54 Q280.26,374.54 280.26,370.7 Q280.26,366.62 285.18,366.62 L285.54,366.62 Q285.66,366.62 291.54,367.1 Q294.54,367.34 296.58,367.34 Q298.62,367.34 302.46,366.98 Q306.3,366.62 308.22,366.62 Q313.14,366.62 313.14,370.7 Q313.14,374.54 308.58,374.54 Q307.62,374.54 306.78,374.3 L304.98,373.82 L304.26,373.82 Q303.78,373.82 303.78,374.06 Q304.02,374.78 304.86,375.74 L315.78,388.94 L327.18,375.74 Q328.26,374.54 328.26,374.06 Q328.14,373.82 327.66,373.82 Q327.06,373.82 325.68,374.18 Q324.3,374.54 323.58,374.54 Q319.26,374.54 319.26,370.46 Q319.26,366.5 324.3,366.5 Q324.06,366.5 330.66,367.1 Q333.3,367.34 336.3,367.34 Q339.3,367.34 342.66,366.98 Q346.02,366.62 347.46,366.62 Q352.74,366.62 352.74,370.7 Q352.74,374.66 348.66,374.66 Q347.7,374.66 345.9,374.18 Q344.1,373.7 343.14,373.7 Q340.26,373.7 335.22,379.46 L321.3,395.3 L340.02,417.38 Q341.7,419.42 344.1,419.42 Q344.82,419.42 346.32,419.18 Q347.82,418.94 348.54,418.94 Q352.86,418.94 352.86,422.78 Q352.86,426.98 347.82,426.98 L346.86,426.98 L342.18,426.38 Q340.26,426.14 336.42,426.14 Q333.18,426.14 329.94,426.5 L325.62,426.98 L324.3,426.98 Q318.66,426.98 318.66,423.14 Q318.66,418.94 323.1,418.94 Q324.66,418.94 327.54,419.42 Q327.78,419.54 328.38,419.54 Q329.58,419.54 329.58,418.58 Q329.58,418.22 329.22,417.86 L328.86,417.38 L315.54,401.78 L301.98,417.38 Q301.14,418.34 301.14,418.82 Q301.14,419.42 302.34,419.42 Q303.18,419.42 304.86,419.18 Q306.54,418.94 307.38,418.94 Q312.54,418.94 312.54,423.14 Q312.54,426.98 307.38,426.98 L305.7,426.98 L300.9,426.5 Q297.3,426.14 294.54,426.14 Q292.38,426.14 289.38,426.5 Q285.3,426.98 283.38,426.98 Q278.34,426.98 278.34,422.9 Q278.34,418.94 282.66,418.94 Q283.38,418.94 284.82,419.12 Q286.26,419.3 286.98,419.3 Q289.26,419.3 293.46,414.5 z" fill="#000000"/>
    <path d="M410.7,428.06 Q400.86,428.06 398.58,419.54 Q392.46,428.54 379.38,428.54 Q369.66,428.54 363.84,423.74 Q358.02,418.94 358.02,410.9 Q358.02,400.94 366.54,396.26 Q369.78,394.46 372.12,393.92 Q374.46,393.38 381.54,392.54 Q391.62,391.46 394.68,389.54 Q397.74,387.62 397.74,382.46 Q397.74,377.54 394.32,374.72 Q390.9,371.9 384.78,371.9 Q379.38,371.9 374.7,374.9 Q372.9,376.1 372.9,377.42 Q372.9,377.9 373.98,378.62 Q375.66,379.82 375.66,382.7 Q375.66,385.1 373.92,386.66 Q372.18,388.22 369.54,388.22 Q366.42,388.22 364.32,386.06 Q362.22,383.9 362.22,380.78 Q362.22,374.06 368.88,369.26 Q375.54,364.46 385.02,364.46 Q406.86,364.46 406.86,385.46 L406.86,409.7 Q406.86,415.46 407.1,416.54 Q407.82,420.74 411.18,420.74 Q415.38,420.74 415.38,413.06 L415.38,407.18 Q415.38,403.34 419.1,403.34 Q423.06,403.34 423.06,409.1 L423.06,409.7 L422.94,416.54 Q422.7,428.06 410.7,428.06 z M397.38,404.18 L397.5,395.66 Q394.86,398.06 391.92,399.02 Q388.98,399.98 381.42,400.7 Q367.74,402.02 367.74,410.78 Q367.74,415.34 371.04,417.98 Q374.34,420.62 379.98,420.62 Q388.02,420.62 392.64,416.24 Q397.26,411.86 397.38,404.18 z" fill="#000000"/>
    <path d="M444.78,370.1 L444.78,373.58 Q449.1,368.42 452.94,366.44 Q456.78,364.46 462.54,364.46 Q474.3,364.46 479.82,373.58 Q483.9,368.54 488.1,366.5 Q492.3,364.46 498.9,364.46 Q505.74,364.46 511.14,367.34 Q517.14,370.58 519.42,376.46 Q520.98,380.42 520.98,388.94 L520.98,400.58 L520.86,409.58 Q520.86,414.5 520.98,415.58 Q521.58,419.9 524.1,419.9 Q524.94,419.9 526.62,419.54 Q528.3,419.18 529.14,419.18 Q533.34,419.18 533.34,422.78 Q533.34,426.98 528.54,426.98 Q526.74,426.98 523.08,426.56 Q519.42,426.14 517.5,426.14 Q515.46,426.14 511.56,426.56 Q507.66,426.98 505.62,426.98 Q500.58,426.98 500.58,422.78 Q500.58,419.18 504.42,419.18 Q504.9,419.18 506.82,419.42 Q507.54,419.66 508.74,419.66 Q510.78,419.66 511.32,417.62 Q511.86,415.58 511.98,407.42 L512.1,400.1 L512.1,392.18 Q512.1,383.9 510.84,380.12 Q509.58,376.34 506.1,374.18 Q502.62,372.02 498.18,372.02 Q489.66,372.02 486.3,377.9 Q483.66,382.58 483.66,394.22 L483.66,402.74 Q483.66,414.02 484.2,416.84 Q484.74,419.66 487.02,419.66 Q487.74,419.66 489.12,419.36 Q490.5,419.06 491.22,419.06 Q492.9,419.06 494.04,420.2 Q495.18,421.34 495.18,423.02 Q495.18,426.98 489.54,426.98 Q487.74,426.98 484.2,426.5 Q480.66,426.02 478.86,426.02 Q476.34,426.02 473.34,426.5 Q470.34,426.98 468.06,426.98 Q463.14,426.98 463.14,422.9 Q463.14,419.18 466.74,419.18 Q468.06,419.18 468.78,419.42 Q470.46,419.78 471.3,419.78 Q474.18,419.78 474.3,413.66 L474.42,408.02 Q474.54,405.38 474.54,402.86 Q474.66,400.7 474.66,400.58 L474.66,390.62 Q474.66,380.18 471.84,376.1 Q469.02,372.02 461.82,372.02 Q453.9,372.02 449.7,377.78 Q446.22,382.46 446.22,394.1 L446.22,410.06 Q446.22,414.86 446.34,415.7 Q446.82,419.78 448.98,419.78 Q449.58,419.78 451.5,419.3 Q451.74,419.3 452.22,419.18 Q452.7,419.18 453.06,419.18 Q457.74,419.18 457.74,423.14 Q457.74,426.98 452.34,426.98 Q450.3,426.98 447.3,426.62 Q443.22,426.14 440.34,426.14 Q438.9,426.14 435.06,426.5 Q429.9,426.98 428.82,426.98 Q424.02,426.98 424.02,422.9 Q424.02,419.18 428.58,419.18 Q428.82,419.18 429.3,419.18 Q429.78,419.3 430.02,419.3 L433.02,419.9 Q433.14,420.02 433.5,420.02 Q436.74,420.02 436.98,414.14 L437.22,407.3 L437.22,388.94 Q437.22,378.74 436.68,376.22 Q436.14,373.7 433.74,373.7 Q433.26,373.7 430.38,374.3 Q429.18,374.54 428.46,374.54 Q424.02,374.54 424.02,370.7 Q424.02,366.62 428.94,366.62 Q430.26,366.62 432.54,366.86 Q434.82,367.1 436.5,367.1 Q437.1,367.1 437.82,366.98 Q438.54,366.98 438.66,366.98 L441.54,366.62 L441.9,366.62 Q444.78,366.62 444.78,370.1 z" fill="#000000"/>
    <path d="M553.26,369.98 L553.26,373.82 Q559.98,364.46 571.62,364.46 Q583.62,364.46 590.7,372.74 Q597.78,381.02 597.78,395.18 Q597.78,410.42 590.28,419.48 Q582.78,428.54 570.18,428.54 Q559.74,428.54 553.26,421.22 L553.26,431.18 Q553.26,435.74 553.5,437.06 Q554.22,440.78 556.98,440.78 Q557.82,440.78 559.5,440.42 Q561.18,440.06 562.02,440.06 Q565.86,440.06 565.86,444.02 Q565.86,447.98 560.82,447.98 Q559.02,447.98 555.42,447.5 Q552.78,447.14 547.5,447.14 Q544.62,447.14 542.7,447.38 Q537.9,447.98 536.34,447.98 Q534.3,447.98 532.86,446.72 Q531.42,445.46 531.42,443.78 Q531.42,439.94 535.5,439.94 Q536.22,439.94 537.78,440.3 Q539.82,440.78 540.78,440.78 Q543.06,440.78 543.6,438.44 Q544.14,436.1 544.26,425.42 L544.38,379.1 Q544.26,373.58 541.26,373.58 Q540.42,373.58 538.68,374 Q536.94,374.42 535.98,374.42 Q531.54,374.42 531.54,370.46 Q531.54,366.62 536.82,366.62 Q538.14,366.62 539.7,366.74 Q542.7,366.98 544.14,366.98 Q545.22,366.98 547.26,366.8 Q549.3,366.62 550.26,366.62 Q553.26,366.62 553.26,369.98 z M555.06,384.62 Q553.98,389.3 553.86,396.02 Q553.86,396.5 553.74,397.82 Q553.74,398.9 553.74,399.5 Q553.74,407.54 555.06,411.2 Q556.38,414.86 560.28,417.74 Q564.18,420.62 569.94,420.62 Q578.58,420.62 583.32,414.32 Q588.06,408.02 588.06,396.38 Q588.06,372.38 571.02,372.38 Q565.26,372.38 560.76,375.86 Q556.26,379.34 555.06,384.62 z" fill="#000000"/>
    <path d="M625.74,376.34 L625.86,413.66 Q625.98,419.78 629.1,419.78 Q629.82,419.78 632.1,419.18 Q633.54,418.94 634.02,418.94 Q637.98,418.94 637.98,423.02 Q637.98,426.98 633.06,426.98 Q631.14,426.98 626.94,426.5 Q622.74,426.02 620.46,426.02 Q618.54,426.02 614.7,426.5 Q610.86,426.98 609.06,426.98 L608.46,426.98 Q603.42,426.98 603.42,422.66 Q603.42,418.94 607.5,418.94 Q607.74,418.94 608.34,418.94 Q609.06,419.06 609.42,419.06 Q612.42,419.54 612.9,419.54 Q615.06,419.54 615.6,417.68 Q616.14,415.82 616.26,408.02 L616.38,399.62 L616.74,381.02 L616.62,359.66 Q616.5,356.06 616.26,354.86 Q615.42,352.1 612.9,352.1 Q612.54,352.1 609.78,352.58 Q608.46,352.82 607.62,352.82 Q603.54,352.82 603.54,348.98 Q603.54,345.02 608.34,345.02 Q609.66,345.02 610.62,345.14 L613.5,345.5 Q615.42,345.74 616.74,345.74 Q617.94,345.74 620.34,345.32 Q622.74,344.9 623.94,344.9 Q626.7,344.9 626.7,348.38 Q626.7,349.58 626.58,350.18 Q625.74,359.42 625.74,376.34 z" fill="#000000"/>
    <path d="M698.58,391.22 Q698.58,395.78 697.98,396.8 Q697.38,397.82 694.5,397.82 L656.34,397.82 Q654.78,397.82 654.3,398.24 Q653.82,398.66 653.82,399.62 Q653.82,408.62 659.22,414.62 Q664.62,420.62 672.66,420.62 Q677.94,420.62 682.32,417.74 Q686.7,414.86 688.02,410.42 L689.1,406.94 Q689.94,404.06 693.06,404.06 Q697.5,404.06 697.5,408.62 Q697.5,416.42 689.58,422.48 Q681.66,428.54 671.58,428.54 Q658.98,428.54 651.54,420.08 Q644.1,411.62 644.1,397.34 Q644.1,382.7 652.02,373.58 Q659.94,364.46 672.66,364.46 Q683.94,364.46 691.26,372.02 Q698.58,379.58 698.58,391.22 z M655.02,388.1 Q655.02,389.78 657.66,389.78 L686.34,389.78 Q688.86,389.78 688.86,388.1 Q688.86,381.74 684.06,377.06 Q679.26,372.38 672.78,372.38 Q666.06,372.38 660.54,377.24 Q655.02,382.1 655.02,388.1 z" fill="#000000"/>
  </g>
  <defs/>
</svg>
