<?xml version="1.0" encoding="UTF-8" standalone="no"?>
<!-- Created with Inkscape (http://www.inkscape.org/) -->
<svg xmlns:ns0="http://www.iki.fi/pav/software/textext/" xmlns:dc="http://purl.org/dc/elements/1.1/" xmlns:cc="http://creativecommons.org/ns#" xmlns:rdf="http://www.w3.org/1999/02/22-rdf-syntax-ns#" xmlns:svg="http://www.w3.org/2000/svg" xmlns="http://www.w3.org/2000/svg" xmlns:sodipodi="http://sodipodi.sourceforge.net/DTD/sodipodi-0.dtd" xmlns:inkscape="http://www.inkscape.org/namespaces/inkscape" width="569.92419" height="412.88803" id="svg2" sodipodi:version="0.32" inkscape:version="0.46" sodipodi:docname="RLC low-pass.svg" inkscape:output_extension="org.inkscape.output.svg.inkscape" version="1.0" inkscape:export-filename="C:\Documents and Settings\Compaq_Owner\My Documents\Wikipedia Articles\RLC circuit\RLC series.png" inkscape:export-xdpi="90" inkscape:export-ydpi="90">
  <defs id="defs4">
    <linearGradient id="linearGradient4767">
      <stop style="stop-color:#e2a616;stop-opacity:1;" offset="0" id="stop4769"/>
      <stop id="stop4771" offset="0.33480668" style="stop-color:#8d531e;stop-opacity:1;"/>
      <stop id="stop4773" offset="0.62843102" style="stop-color:#713f12;stop-opacity:1;"/>
      <stop style="stop-color:#4d2b0c;stop-opacity:1;" offset="1" id="stop4775"/>
    </linearGradient>
    <inkscape:perspective sodipodi:type="inkscape:persp3d" inkscape:vp_x="0 : 526.18109 : 1" inkscape:vp_y="0 : 1000 : 0" inkscape:vp_z="744.09448 : 526.18109 : 1" inkscape:persp3d-origin="372.04724 : 350.78739 : 1" id="perspective10"/>
    <inkscape:perspective id="perspective2390" inkscape:persp3d-origin="372.04724 : 350.78739 : 1" inkscape:vp_z="744.09448 : 526.18109 : 1" inkscape:vp_y="0 : 1000 : 0" inkscape:vp_x="0 : 526.18109 : 1" sodipodi:type="inkscape:persp3d"/>
    <inkscape:perspective id="perspective2403" inkscape:persp3d-origin="372.04724 : 350.78739 : 1" inkscape:vp_z="744.09448 : 526.18109 : 1" inkscape:vp_y="0 : 1000 : 0" inkscape:vp_x="0 : 526.18109 : 1" sodipodi:type="inkscape:persp3d"/>
    <inkscape:perspective id="perspective2416" inkscape:persp3d-origin="372.04724 : 350.78739 : 1" inkscape:vp_z="744.09448 : 526.18109 : 1" inkscape:vp_y="0 : 1000 : 0" inkscape:vp_x="0 : 526.18109 : 1" sodipodi:type="inkscape:persp3d"/>
    <inkscape:perspective id="perspective2429" inkscape:persp3d-origin="372.04724 : 350.78739 : 1" inkscape:vp_z="744.09448 : 526.18109 : 1" inkscape:vp_y="0 : 1000 : 0" inkscape:vp_x="0 : 526.18109 : 1" sodipodi:type="inkscape:persp3d"/>
    <inkscape:perspective id="perspective2462" inkscape:persp3d-origin="372.04724 : 350.78739 : 1" inkscape:vp_z="744.09448 : 526.18109 : 1" inkscape:vp_y="0 : 1000 : 0" inkscape:vp_x="0 : 526.18109 : 1" sodipodi:type="inkscape:persp3d"/>
    <inkscape:perspective id="perspective3348" inkscape:persp3d-origin="372.04724 : 350.78739 : 1" inkscape:vp_z="744.09448 : 526.18109 : 1" inkscape:vp_y="0 : 1000 : 0" inkscape:vp_x="0 : 526.18109 : 1" sodipodi:type="inkscape:persp3d"/>
    <inkscape:perspective id="perspective3361" inkscape:persp3d-origin="372.04724 : 350.78739 : 1" inkscape:vp_z="744.09448 : 526.18109 : 1" inkscape:vp_y="0 : 1000 : 0" inkscape:vp_x="0 : 526.18109 : 1" sodipodi:type="inkscape:persp3d"/>
    <inkscape:perspective id="perspective5650" inkscape:persp3d-origin="372.04724 : 350.78739 : 1" inkscape:vp_z="744.09448 : 526.18109 : 1" inkscape:vp_y="0 : 1000 : 0" inkscape:vp_x="0 : 526.18109 : 1" sodipodi:type="inkscape:persp3d"/>
  </defs>
  <sodipodi:namedview id="base" pagecolor="#ffffff" bordercolor="#666666" borderopacity="1.0" gridtolerance="10000" guidetolerance="10" objecttolerance="10" inkscape:pageopacity="0.0" inkscape:pageshadow="2" inkscape:zoom="0.7" inkscape:cx="294.80035" inkscape:cy="93.587012" inkscape:document-units="px" inkscape:current-layer="layer1" showgrid="false" inkscape:window-width="1280" inkscape:window-height="968" inkscape:window-x="-4" inkscape:window-y="-4" showguides="true" inkscape:guide-bbox="true"/>
  <metadata id="metadata7">
    <rdf:RDF>
      <cc:Work rdf:about="">
        <dc:format>image/svg+xml</dc:format>
        <dc:type rdf:resource="http://purl.org/dc/dcmitype/StillImage"/>
      </cc:Work>
    </rdf:RDF>
  </metadata>
  <g inkscape:label="Layer 1" inkscape:groupmode="layer" id="layer1" transform="translate(407.03351,257.17996)">
    <rect width="569.92419" height="412.88803" rx="0" ry="11.244467" x="-407.03351" y="-257.17996" id="rect6350" style="fill:#efedf1;fill-opacity:1;stroke:none;stroke-width:1.5;stroke-miterlimit:4;stroke-dasharray:none;stroke-opacity:1"/>
    <text sodipodi:linespacing="100%" x="16.057711" y="14.743889" xml:space="preserve" style="font-size:40px;font-style:normal;font-weight:normal;line-height:100%;fill:#000000;fill-opacity:1;stroke:none;stroke-width:1px;stroke-linecap:butt;stroke-linejoin:miter;stroke-opacity:1;font-family:Bitstream Vera Sans" id="text10397"><tspan x="16.057711" y="14.743889" style="fill:#000000" id="tspan10399"><tspan style="font-size:40px;font-style:normal;font-variant:normal;font-weight:normal;font-stretch:normal;text-align:start;line-height:100%;writing-mode:lr-tb;text-anchor:start;font-family:Arial;-inkscape-font-specification:Arial" id="tspan10401"> </tspan></tspan></text>
    <path d="M 44.115237,-3.6855215 C 44.115237,-3.7567115 29.619087,-9.0954015 29.619087,-9.0954015 L 58.531927,-19.488053 L 44.115237,-24.755554 M 44.115237,-24.739144 C 44.115237,-24.810334 29.619087,-30.149014 29.619087,-30.149014 L 58.531927,-40.541674 L 44.115237,-45.809174 M 44.209437,-66.817703 C 44.209437,-66.888893 29.713287,-72.227583 29.713287,-72.227583 L 58.626127,-82.620223 L 44.209437,-87.887733 M 44.115237,-45.776274 C 44.115237,-45.847464 29.619087,-51.186134 29.619087,-51.186134 L 58.531927,-61.578784 L 44.115237,-66.846303 M 44.115237,-3.7136815 L 44.115237,10.379749 M 43.989027,-102.18422 L 43.989027,-88.090793" style="fill:none;fill-opacity:1;fill-rule:nonzero;stroke:#000000;stroke-width:1.70000005;stroke-linecap:round;stroke-linejoin:round;stroke-miterlimit:4;stroke-dasharray:none;stroke-dashoffset:0;stroke-opacity:1" id="path3963"/>
    <g id="g11517" ns0:preamble="" ns0:text="$\nR_ \\mathrm L\n$" style="font-style:normal;font-variant:normal;font-weight:normal;font-stretch:normal;letter-spacing:normal;word-spacing:normal;text-anchor:start;fill:none;fill-opacity:1;fill-rule:evenodd;stroke:#000000;stroke-width:0.22354817;stroke-linecap:butt;stroke-linejoin:miter;stroke-miterlimit:10.43299961;stroke-dasharray:none;stroke-dashoffset:0;stroke-opacity:1" xml:space="preserve" transform="matrix(4.7428709,0,0,-4.2190673,-985.4894,2947.3176)">
<path id="path11519" style="fill:#000000;stroke-width:0.22354817;stroke-miterlimit:10.43299961;stroke-dasharray:none" d="M 228.6,710.51 L 228.7,710.53 L 228.79,710.56 L 228.89,710.58 L 228.99,710.61 L 229.08,710.65 L 229.18,710.68 L 229.27,710.72 L 229.37,710.76 L 229.46,710.8 L 229.56,710.85 L 229.65,710.9 L 229.74,710.95 L 229.83,711 L 229.91,711.06 L 230,711.12 L 230.08,711.18 L 230.15,711.24 L 230.23,711.3 L 230.3,711.37 L 230.37,711.44 L 230.43,711.51 L 230.49,711.58 L 230.54,711.66 L 230.59,711.74 L 230.64,711.82 L 230.68,711.9 L 230.71,711.98 L 230.74,712.07 L 230.76,712.16 L 230.78,712.25 L 230.79,712.34 L 230.79,712.43 C 230.79,713.29 229.9,713.93 228.59,713.93 L 225.75,713.93 C 225.55,713.93 225.46,713.93 225.46,713.73 C 225.46,713.62 225.55,713.62 225.74,713.62 C 225.76,713.62 225.95,713.62 226.12,713.6 C 226.3,713.58 226.39,713.57 226.39,713.44 C 226.39,713.4 226.38,713.37 226.35,713.25 L 225.02,707.9 C 224.92,707.51 224.9,707.43 224.11,707.43 C 223.93,707.43 223.84,707.43 223.84,707.23 C 223.84,707.12 223.96,707.12 223.98,707.12 C 224.26,707.12 224.96,707.15 225.24,707.15 C 225.51,707.15 226.22,707.12 226.5,707.12 C 226.58,707.12 226.7,707.12 226.7,707.32 C 226.7,707.43 226.61,707.43 226.42,707.43 C 226.05,707.43 225.77,707.43 225.77,707.61 C 225.77,707.67 225.79,707.72 225.8,707.78 L 226.46,710.42 L 227.65,710.42 L 227.64,710.64 L 226.52,710.64 L 227.17,713.24 C 227.23,713.48 227.26,713.58 227.45,713.61 C 227.54,713.62 227.86,713.62 228.05,713.62 C 228.76,713.62 229.87,713.62 229.87,712.63 C 229.87,712.29 229.71,711.61 229.32,711.22 C 229.06,710.96 228.53,710.64 227.64,710.64 L 227.65,710.42 C 228.55,710.42 228.73,709.86 228.73,709.51 C 228.73,709.36 228.65,709.05 228.59,708.83 C 228.52,708.55 228.43,708.18 228.43,707.98 C 228.43,706.9 229.63,706.9 229.76,706.9 C 230.61,706.9 230.95,707.91 230.95,708.05 C 230.95,708.17 230.85,708.17 230.84,708.17 C 230.74,708.17 230.73,708.1 230.71,708.03 C 230.46,707.29 230.03,707.12 229.8,707.12 C 229.47,707.12 229.4,707.34 229.4,707.73 C 229.4,708.04 229.46,708.55 229.5,708.87 C 229.52,709.01 229.54,709.2 229.54,709.33 C 229.54,710.1 228.87,710.41 228.6,710.51 z"/>
<path id="path11521" style="fill:#000000;stroke-width:0.22354817;stroke-miterlimit:10.43299961;stroke-dasharray:none" d="M 235.54,707.46 L 235.3,707.46 C 235.23,706.78 235.12,705.88 233.8,705.88 L 233.11,705.88 C 232.78,705.88 232.77,705.94 232.77,706.15 L 232.77,709.82 C 232.77,710.05 232.77,710.14 233.43,710.14 L 233.67,710.14 L 233.67,710.39 C 233.52,710.39 232.63,710.36 232.45,710.36 C 232.19,710.36 231.4,710.39 231.39,710.39 L 231.39,710.14 L 231.56,710.14 C 232.1,710.14 232.11,710.07 232.11,709.83 L 232.11,706.2 C 232.11,705.96 232.1,705.88 231.56,705.88 L 231.39,705.88 L 231.39,705.63 L 235.33,705.63 L 235.54,707.46 z"/>
</g>    <g transform="matrix(4.7428709,0,0,-4.2190673,-1172.5247,2928.2905)" xml:space="preserve" style="font-style:normal;font-variant:normal;font-weight:normal;font-stretch:normal;letter-spacing:normal;word-spacing:normal;text-anchor:start;fill:none;fill-opacity:1;fill-rule:evenodd;stroke:#000000;stroke-width:0.22354817;stroke-linecap:butt;stroke-linejoin:miter;stroke-miterlimit:10.43299961;stroke-dasharray:none;stroke-dashoffset:0;stroke-opacity:1" ns0:text="$\nC\n$" ns0:preamble="" id="g13211">
<path d="M 231,714.05 L 231,714.05 L 231,714.05 L 231,714.06 L 231,714.06 L 231,714.06 L 231,714.07 L 231,714.07 L 231,714.07 L 231,714.08 L 231,714.08 L 230.99,714.09 L 230.99,714.09 L 230.99,714.1 L 230.99,714.1 L 230.99,714.1 L 230.98,714.11 L 230.98,714.11 L 230.98,714.12 L 230.97,714.12 L 230.97,714.12 L 230.96,714.13 L 230.96,714.13 L 230.95,714.13 L 230.95,714.13 L 230.94,714.14 L 230.94,714.14 L 230.94,714.14 L 230.93,714.14 L 230.93,714.14 L 230.93,714.14 L 230.92,714.14 L 230.92,714.14 L 230.92,714.14 L 230.91,714.14 L 230.91,714.15 L 230.91,714.15 L 230.9,714.15 L 230.9,714.15 L 230.89,714.15 C 230.87,714.15 230.85,714.14 230.74,714.03 L 230.05,713.26 C 229.96,713.4 229.5,714.15 228.39,714.15 C 226.17,714.15 223.93,711.94 223.93,709.63 C 223.93,707.99 225.11,706.9 226.63,706.9 C 227.5,706.9 228.25,707.3 228.78,707.76 C 229.71,708.58 229.88,709.48 229.88,709.51 C 229.88,709.61 229.78,709.61 229.76,709.61 C 229.7,709.61 229.65,709.59 229.63,709.51 C 229.54,709.22 229.31,708.52 228.62,707.94 C 227.94,707.38 227.31,707.21 226.79,707.21 C 225.89,707.21 224.84,707.73 224.84,709.28 C 224.84,709.85 225.05,711.47 226.04,712.63 C 226.65,713.34 227.59,713.84 228.47,713.84 C 229.49,713.84 230.08,713.07 230.08,711.91 C 230.08,711.52 230.05,711.51 230.05,711.41 C 230.05,711.31 230.16,711.31 230.2,711.31 C 230.33,711.31 230.33,711.33 230.38,711.51 L 231,714.05 z" style="fill:#000000;stroke-width:0.22354817;stroke-miterlimit:10.43299961;stroke-dasharray:none" id="path13213"/>
</g>    <g transform="matrix(-1.0768465e-3,0.9999993,-0.9999993,-1.0768465e-3,-245.90525,-19.47263)" id="g13215">
      <rect width="5.0178571" height="38.135715" ry="1.0035714" x="-37.132141" y="-120.42857" id="rect13217" style="fill:#000000;fill-opacity:1;stroke:#000000;stroke-width:1.50000024;stroke-miterlimit:4.0999999;stroke-dasharray:none;stroke-opacity:1"/>
      <rect width="5.0178571" height="38.135715" ry="1.0035714" x="-15.555355" y="-120.42857" id="rect13219" style="fill:#000000;fill-opacity:1;stroke:#000000;stroke-width:1.50000024;stroke-miterlimit:4.0999999;stroke-dasharray:none;stroke-opacity:1"/>
    </g>
    <path id="path13221" style="fill:none;fill-opacity:1;fill-rule:nonzero;stroke:#000000;stroke-width:1.70000005;stroke-linecap:round;stroke-linejoin:round;stroke-miterlimit:4;stroke-dasharray:none;stroke-dashoffset:0;stroke-opacity:1" d="M -281.56455,-163.74767 C -282.79195,-163.88566 -284.22875,-163.76207 -285.87325,-163.52256 C -292.62795,-162.53906 -302.19345,-157.32207 -301.16765,-142.77947 C -300.32275,-130.80137 -299.53925,-129.67447 -297.43205,-126.83717 C -295.97105,-124.87007 -292.92905,-124.68316 -292.92905,-124.68316 M -313.49395,-142.83766 C -313.10805,-145.76536 -312.86205,-152.97137 -309.53035,-157.59486 C -306.64335,-161.60117 -302.09795,-163.25986 -299.83515,-163.52256 C -293.05475,-164.30986 -283.51495,-157.32207 -284.54075,-142.77947 C -285.38565,-130.80137 -286.16915,-129.67447 -288.27635,-126.83717 C -289.73735,-124.87007 -292.77935,-124.68316 -292.77935,-124.68316 M -258.41525,-163.74767 C -259.64265,-163.88566 -261.07945,-163.76207 -262.72395,-163.52256 C -269.47865,-162.53906 -279.04415,-157.32207 -278.01835,-142.77947 C -277.17345,-130.80137 -276.38995,-129.67447 -274.28275,-126.83717 C -272.82175,-124.87007 -269.77975,-124.68316 -269.77975,-124.68316 M -280.99455,-163.74767 C -279.76715,-163.88566 -278.33035,-163.76207 -276.68585,-163.52256 C -269.93115,-162.53906 -260.36565,-157.32207 -261.39145,-142.77947 C -262.23635,-130.80137 -263.01985,-129.67447 -265.12705,-126.83717 C -266.58805,-124.87007 -269.63005,-124.68316 -269.63005,-124.68316 M -235.26605,-163.74767 C -236.49335,-163.88566 -237.93015,-163.76207 -239.57465,-163.52256 C -246.32945,-162.53906 -255.89495,-157.32207 -254.86915,-142.77947 C -254.02425,-130.80137 -253.24075,-129.67447 -251.13345,-126.83717 C -249.67255,-124.87007 -246.63055,-124.68316 -246.63055,-124.68316 M -257.84525,-163.74767 C -256.61795,-163.88566 -255.18115,-163.76207 -253.53665,-163.52256 C -246.78195,-162.53906 -237.21635,-157.32207 -238.24215,-142.77947 C -239.08705,-130.80137 -239.87065,-129.67447 -241.97785,-126.83717 C -243.43875,-124.87007 -246.48085,-124.68316 -246.48085,-124.68316 M -202.60255,-142.83766 C -202.29665,-145.27006 -203.00815,-152.17486 -205.64685,-157.07657 C -208.58205,-162.52906 -213.01325,-163.58387 -216.42545,-163.52256 C -221.10155,-163.43556 -232.74575,-157.32207 -231.71995,-142.77947 C -230.87495,-130.80137 -230.09145,-129.67447 -227.98425,-126.83717 C -226.52335,-124.87007 -223.48125,-124.68316 -223.48125,-124.68316 M -234.69605,-163.74767 C -233.46865,-163.88566 -232.03195,-163.76207 -230.38735,-163.52256 C -223.63265,-162.53906 -214.06715,-157.32207 -215.09295,-142.77947 C -215.93785,-130.80137 -216.72135,-129.67447 -218.82865,-126.83717 C -220.28955,-124.87007 -223.33155,-124.68316 -223.33155,-124.68316" sodipodi:nodetypes="csssccssssccsssccsssccsssccsssccssssccsssc"/>
    <text sodipodi:linespacing="100%" x="-4.0123978" y="30.84457" xml:space="preserve" style="font-size:40px;font-style:normal;font-weight:normal;line-height:100%;fill:#000000;fill-opacity:1;stroke:none;stroke-width:1px;stroke-linecap:butt;stroke-linejoin:miter;stroke-opacity:1;font-family:Bitstream Vera Sans" id="text13223"><tspan x="-4.0123978" y="30.84457" style="fill:#000000" id="tspan13225"><tspan style="font-size:40px;font-style:normal;font-variant:normal;font-weight:normal;font-stretch:normal;text-align:start;line-height:100%;writing-mode:lr-tb;text-anchor:start;font-family:Arial;-inkscape-font-specification:Arial" id="tspan13227"> </tspan></tspan></text>
    <path d="M -138.38914,63.86342 C -138.38784,67.21162 -141.10174,69.92682 -144.45004,69.92682 C -147.79834,69.92682 -150.51234,67.21162 -150.51094,63.86342 C -150.51234,60.51512 -147.79834,57.80022 -144.45004,57.80022 C -141.10174,57.80022 -138.38784,60.51512 -138.38914,63.86342 L -138.38914,63.86342 z" id="path13229" style="fill:#000000;fill-opacity:1;stroke:#000000;stroke-width:1.5;stroke-miterlimit:4;stroke-dasharray:none;stroke-opacity:1;display:inline"/>
    <path style="fill:none;fill-opacity:1;fill-rule:nonzero;stroke:#000000;stroke-width:1.99999976;stroke-linecap:round;stroke-linejoin:round;stroke-miterlimit:4;stroke-dasharray:none;stroke-dashoffset:0;stroke-opacity:1" d="M -369.4932,-142.31975 L -315.12069,-142.31975" id="path13231"/>
    <path style="fill:none;fill-opacity:1;fill-rule:nonzero;stroke:#000000;stroke-width:1.99999988;stroke-linecap:round;stroke-linejoin:round;stroke-miterlimit:4;stroke-dasharray:none;stroke-dashoffset:0;stroke-opacity:1" d="M -201.82744,-142.31975 L -40.601276,-142.31975" id="path10407"/>
    <path style="fill:none;fill-opacity:1;fill-rule:nonzero;stroke:#000000;stroke-width:2;stroke-linecap:round;stroke-linejoin:round;stroke-miterlimit:4;stroke-dasharray:none;stroke-dashoffset:0;stroke-opacity:1" d="M -373.37704,63.75602 L -39.946989,63.75602 L -39.946989,63.58442" id="path13234"/>
    <path d="M -138.20969,-142.31981 C -138.20839,-138.9715 -140.92229,-136.25641 -144.27059,-136.25641 C -147.61889,-136.25641 -150.33289,-138.9715 -150.33149,-142.31981 C -150.33289,-145.6681 -147.61889,-148.38311 -144.27059,-148.38311 C -140.92229,-148.38311 -138.20839,-145.6681 -138.20969,-142.31981 L -138.20969,-142.31981 z" id="path13236" style="fill:#000000;fill-opacity:1;stroke:#000000;stroke-width:1.5;stroke-miterlimit:4;stroke-dasharray:none;stroke-opacity:1;display:inline"/>
    <path style="fill:none;fill-opacity:1;fill-rule:nonzero;stroke:#000000;stroke-width:1.99999988;stroke-linecap:round;stroke-linejoin:round;stroke-miterlimit:4;stroke-dasharray:none;stroke-dashoffset:0;stroke-opacity:1" d="M -144.51894,-141.94244 L -144.51894,-56.34604" id="path10413"/>
    <path style="fill:none;fill-opacity:1;fill-rule:nonzero;stroke:#000000;stroke-width:1.99999988;stroke-linecap:round;stroke-linejoin:round;stroke-miterlimit:4;stroke-dasharray:none;stroke-dashoffset:0;stroke-opacity:1" d="M -144.33374,-30.58403 L -144.33374,61.99132" id="path10415"/>
    <path d="M -367.20052,-142.31975 C -367.19922,-138.97146 -369.91312,-136.25635 -373.26142,-136.25635 C -376.60972,-136.25635 -379.32372,-138.97146 -379.32232,-142.31975 C -379.32372,-145.66806 -376.60972,-148.38315 -373.26142,-148.38315 C -369.91312,-148.38315 -367.19922,-145.66806 -367.20052,-142.31975 L -367.20052,-142.31975 z" id="path13240" style="fill:#ffffff;fill-opacity:1;stroke:#000000;stroke-width:1.5;stroke-miterlimit:4;stroke-dasharray:none;stroke-opacity:1;display:inline"/>
    <path d="M -367.20052,63.86352 C -367.19922,67.21182 -369.91312,69.92682 -373.26142,69.92682 C -376.60972,69.92682 -379.32372,67.21182 -379.32232,63.86352 C -379.32372,60.51512 -376.60972,57.80012 -373.26142,57.80012 C -369.91312,57.80012 -367.19922,60.51512 -367.20052,63.86352 L -367.20052,63.86352 z" id="path13242" style="fill:#ffffff;fill-opacity:1;stroke:#000000;stroke-width:1.5;stroke-miterlimit:4;stroke-dasharray:none;stroke-opacity:1;display:inline"/>
    <g id="g13246" ns0:preamble="" ns0:text="$\nL\n$" style="font-style:normal;font-variant:normal;font-weight:normal;font-stretch:normal;letter-spacing:normal;word-spacing:normal;text-anchor:start;fill:none;fill-opacity:1;fill-rule:evenodd;stroke:#000000;stroke-width:0.22354817;stroke-linecap:butt;stroke-linejoin:miter;stroke-miterlimit:10.43299961;stroke-dasharray:none;stroke-dashoffset:0;stroke-opacity:1" xml:space="preserve" transform="matrix(4.7428709,0,0,-4.2190673,-1253.1342,3244.4182)">
<path id="path13248" style="fill:#000000;stroke-width:0.22354817;stroke-miterlimit:10.43299961;stroke-dasharray:none" d="M 210.14366,817.81488 L 210.15366,817.84488 L 210.16366,817.87488 L 210.16366,817.90488 L 210.17366,817.93488 L 210.18366,817.96488 L 210.19366,817.99488 L 210.20366,818.01488 L 210.21366,818.03488 L 210.22366,818.06488 L 210.23366,818.08488 L 210.25366,818.10488 L 210.27366,818.12488 L 210.28366,818.13488 L 210.30366,818.15488 L 210.32366,818.16488 L 210.35366,818.18488 L 210.38366,818.19488 L 210.41366,818.20488 L 210.44366,818.21488 L 210.47366,818.22488 L 210.49366,818.23488 L 210.51366,818.23488 L 210.53366,818.24488 L 210.55366,818.24488 L 210.58366,818.25488 L 210.60366,818.25488 L 210.62366,818.25488 L 210.65366,818.26488 L 210.67366,818.26488 L 210.70366,818.26488 L 210.73366,818.26488 L 210.76366,818.27488 L 210.79366,818.27488 L 210.82366,818.27488 L 210.85366,818.27488 L 210.88366,818.27488 L 210.92366,818.27488 L 210.95366,818.27488 L 210.99366,818.28488 L 211.03366,818.28488 L 211.07366,818.28488 L 211.11366,818.28488 L 211.15366,818.28488 L 211.19366,818.28488 C 211.49366,818.28488 211.57366,818.28488 211.57366,818.47488 C 211.57366,818.59488 211.46366,818.59488 211.41366,818.59488 C 211.08366,818.59488 210.27366,818.56488 209.94366,818.56488 C 209.64366,818.56488 208.91366,818.59488 208.61366,818.59488 C 208.54366,818.59488 208.43366,818.59488 208.43366,818.39488 C 208.43366,818.28488 208.52366,818.28488 208.70366,818.28488 C 208.72366,818.28488 208.91366,818.28488 209.08366,818.26488 C 209.26366,818.24488 209.35366,818.23488 209.35366,818.10488 C 209.35366,818.06488 209.34366,818.03488 209.31366,817.91488 L 207.98366,812.56488 C 207.88366,812.17488 207.86366,812.09488 207.07366,812.09488 C 206.90366,812.09488 206.80366,812.09488 206.80366,811.89488 C 206.80366,811.78488 206.89366,811.78488 207.07366,811.78488 L 211.68366,811.78488 C 211.92366,811.78488 211.93366,811.78488 211.99366,811.95488 L 212.78366,814.10488 C 212.82366,814.21488 212.82366,814.23488 212.82366,814.24488 C 212.82366,814.28488 212.79366,814.35488 212.70366,814.35488 C 212.61366,814.35488 212.60366,814.30488 212.53366,814.14488 C 212.19366,813.23488 211.75366,812.09488 210.03366,812.09488 L 209.09366,812.09488 C 208.95366,812.09488 208.93366,812.09488 208.87366,812.10488 C 208.77366,812.11488 208.74366,812.12488 208.74366,812.20488 C 208.74366,812.23488 208.74366,812.25488 208.79366,812.43488 L 210.14366,817.81488 z"/>
</g>    <path style="opacity:1;fill:none;fill-opacity:1;fill-rule:evenodd;stroke:#000000;stroke-width:1.99999988;stroke-linecap:butt;stroke-linejoin:miter;stroke-miterlimit:10.43299961;stroke-dasharray:none;stroke-dashoffset:0;stroke-opacity:1" d="M -37.581639,-142.58279 L 44.037659,-142.58279 L 44.037659,-92.789457" id="path13335"/>
    <path style="opacity:1;fill:none;fill-opacity:1;fill-rule:evenodd;stroke:#000000;stroke-width:2;stroke-linecap:butt;stroke-linejoin:miter;stroke-miterlimit:10.43299961;stroke-dasharray:none;stroke-dashoffset:0;stroke-opacity:1" d="M -38.000062,63.78419 C -38.000062,63.78419 44.037659,63.78419 44.037659,63.78419 L 44.037659,3.17504" id="path13337"/>
    <path d="M -32.94766,63.86342 C -32.94636,67.21172 -35.66026,69.92682 -39.00856,69.92682 C -42.35686,69.92682 -45.07086,67.21172 -45.06946,63.86342 C -45.07086,60.51522 -42.35686,57.80002 -39.00856,57.80002 C -35.66026,57.80002 -32.94636,60.51522 -32.94766,63.86342 L -32.94766,63.86342 z" id="path10421" style="fill:#ffffff;fill-opacity:1;stroke:#000000;stroke-width:1.5;stroke-miterlimit:4;stroke-dasharray:none;stroke-opacity:1;display:inline"/>
    <path d="M -32.94766,-142.31975 C -32.94636,-138.97146 -35.66026,-136.25635 -39.00856,-136.25635 C -42.35686,-136.25635 -45.07086,-138.97146 -45.06946,-142.31975 C -45.07086,-145.66806 -42.35686,-148.38315 -39.00856,-148.38315 C -35.66026,-148.38315 -32.94636,-145.66806 -32.94766,-142.31975 L -32.94766,-142.31975 z" id="path10427" style="fill:#ffffff;fill-opacity:1;stroke:#000000;stroke-width:1.5;stroke-miterlimit:4;stroke-dasharray:none;stroke-opacity:1;display:inline"/>
    <text xml:space="preserve" style="font-size:32px;font-style:normal;font-variant:normal;font-weight:normal;font-stretch:normal;text-align:start;line-height:100%;writing-mode:lr-tb;text-anchor:start;fill:#000000;fill-opacity:1;stroke:none;stroke-width:1px;stroke-linecap:butt;stroke-linejoin:miter;stroke-opacity:1;font-family:Arial;-inkscape-font-specification:Arial" x="-381.31921" y="-41.434792" id="text13359" sodipodi:linespacing="100%"><tspan sodipodi:role="line" id="tspan13361" x="-381.31921" y="-41.434792">Vb</tspan></text>
    <text xml:space="preserve" style="font-size:32px;font-style:normal;font-variant:normal;font-weight:normal;font-stretch:normal;text-align:start;line-height:100%;writing-mode:lr-tb;text-anchor:start;fill:#000000;fill-opacity:1;stroke:none;stroke-width:1px;stroke-linecap:butt;stroke-linejoin:miter;stroke-opacity:1;font-family:Arial;-inkscape-font-specification:Arial" x="-56.883965" y="-29.981676" id="text13363" sodipodi:linespacing="100%"><tspan sodipodi:role="line" id="tspan13365" x="-56.883965" y="-29.981676">V</tspan></text>
  </g>
</svg>
