<?xml version="1.0" encoding="UTF-8"?>
<svg xmlns="http://www.w3.org/2000/svg" xmlns:xlink="http://www.w3.org/1999/xlink" width="1062.1622pt" height="837.88091pt" viewBox="0 0 1062.1622 837.88091" version="1.1">
<g id="surface1">
<path style="fill:none;stroke-width:1;stroke-linecap:square;stroke-linejoin:miter;stroke:rgb(100%,33.333333%,33.333333%);stroke-opacity:1;stroke-miterlimit:2;" d="M -100.000389 -100.000302 L 99.99976 -100.000302 L 99.99976 99.999846 L -100.000389 99.999846 L -100.000389 -100.000302 " transform="matrix(4.069059,0,0,-4.069059,584.016906,418.940478)"/>
<path style="fill-rule:evenodd;fill:rgb(100%,100%,100%);fill-opacity:1;stroke-width:1;stroke-linecap:square;stroke-linejoin:miter;stroke:rgb(0%,0%,0%);stroke-opacity:1;stroke-miterlimit:2;" d="M 101.996365 0.00228228 C 101.996365 55.230416 57.232105 100.004277 2.003971 100.004277 C -53.224163 100.004277 -97.998023 55.230416 -97.998023 0.00228228 C -97.998023 -55.225852 -53.224163 -99.999712 2.003971 -99.999712 C 57.232105 -99.999712 101.996365 -55.225852 101.996365 0.00228228 " transform="matrix(0.406906,0,0,0.406906,990.922854,418.940478)"/>
<path style="fill-rule:evenodd;fill:rgb(37.254902%,37.254902%,37.254902%);fill-opacity:1;stroke-width:1;stroke-linecap:square;stroke-linejoin:miter;stroke:rgb(0%,0%,0%);stroke-opacity:1;stroke-miterlimit:2;" d="M 99.999589 0.00464781 C 99.999589 55.232782 55.225729 99.997042 -0.00240485 99.997042 C -55.230539 99.997042 -100.004399 55.232782 -100.004399 0.00464781 C -100.004399 -55.233086 -55.230539 -99.997346 -0.00240485 -99.997346 C 55.225729 -99.997346 99.999589 -55.233086 99.999589 0.00464781 " transform="matrix(0.406906,0,0,0.406906,990.922854,663.084046)"/>
<path style="fill-rule:evenodd;fill:rgb(75.294118%,75.294118%,75.294118%);fill-opacity:1;stroke-width:1;stroke-linecap:square;stroke-linejoin:miter;stroke:rgb(75.294118%,75.294118%,75.294118%);stroke-opacity:1;stroke-miterlimit:2;" d="M -150.000596 -150.002839 L 149.995787 -150.002839 L 149.995787 150.003143 L -150.000596 150.003143 L -150.000596 -150.002839 " transform="matrix(0.406906,0,0,-0.406906,990.922854,663.084046)"/>
<path style="fill-rule:evenodd;fill:rgb(37.254902%,37.254902%,37.254902%);fill-opacity:1;stroke-width:1;stroke-linecap:square;stroke-linejoin:miter;stroke:rgb(0%,0%,0%);stroke-opacity:1;stroke-miterlimit:2;" d="M 99.999589 0.00464781 C 99.999589 55.232782 55.225729 99.997042 -0.00240485 99.997042 C -55.230539 99.997042 -100.004399 55.232782 -100.004399 0.00464781 C -100.004399 -55.233086 -55.230539 -99.997346 -0.00240485 -99.997346 C 55.225729 -99.997346 99.999589 -55.233086 99.999589 0.00464781 " transform="matrix(0.406906,0,0,0.406906,990.922854,663.084046)"/>
<path style="fill-rule:evenodd;fill:rgb(0%,0%,49.803922%);fill-opacity:1;stroke-width:1;stroke-linecap:square;stroke-linejoin:miter;stroke:rgb(0%,0%,49.803922%);stroke-opacity:1;stroke-miterlimit:2;" d="M -100.001134 100.000853 L 99.998055 -0.00114114 L -100.001134 -99.998335 L -100.001134 100.000853 " transform="matrix(0.813812,0,0,-0.813812,95.729768,418.940478)"/>
</g>
</svg>
