<?xml version="1.0" encoding="UTF-8" standalone="no"?>
<svg width="230.364mm" height="211.314mm"
 viewBox="0 0 653 599"
 xmlns="http://www.w3.org/2000/svg" xmlns:xlink="http://www.w3.org/1999/xlink"  version="1.2" baseProfile="tiny">
<title>OMEdit - OpenModelica Connection Editor</title>
<desc>Generated by OMEdit - OpenModelica Connection Editor</desc>
<defs>
</defs>
<g fill="none" stroke="black" stroke-width="1" fill-rule="evenodd" stroke-linecap="square" stroke-linejoin="bevel" >

<g fill="none" stroke="#000000" stroke-opacity="1" stroke-width="1" stroke-linecap="square" stroke-linejoin="bevel" transform="matrix(1,0,0,1,5,-14)"
font-family="Ubuntu" font-size="11" font-weight="400" font-style="normal"
>
</g>

<g fill="none" stroke="#000000" stroke-opacity="1" stroke-width="1" stroke-linecap="square" stroke-linejoin="bevel" transform="matrix(1,0,0,1,5,-14)"
font-family="Ubuntu" font-size="11" font-weight="400" font-style="normal"
>
</g>

<g fill="none" stroke="#000000" stroke-opacity="1" stroke-width="1" stroke-linecap="square" stroke-linejoin="bevel" transform="matrix(1,0,0,1,5,-14)"
font-family="Ubuntu" font-size="11" font-weight="400" font-style="normal"
>
</g>

<g fill="none" stroke="#000000" stroke-opacity="1" stroke-width="1" stroke-linecap="square" stroke-linejoin="bevel" transform="matrix(2.9619,0,0,-2.9619,326,299)"
font-family="Ubuntu" font-size="11" font-weight="400" font-style="normal"
>
</g>

<g fill="none" stroke="#8000ff" stroke-opacity="1" stroke-width="1" stroke-linecap="square" stroke-linejoin="miter" stroke-miterlimit="2" transform="matrix(2.9619,0,0,-2.9619,326,299)"
font-family="Ubuntu" font-size="11" font-weight="400" font-style="normal"
>
<path vector-effect="non-scaling-stroke" fill-rule="evenodd" d="M-100,-100 L100,-100 L100,100 L-100,100 L-100,-100"/>
</g>

<g fill="none" stroke="#000000" stroke-opacity="1" stroke-width="1" stroke-linecap="square" stroke-linejoin="bevel" transform="matrix(2.9619,0,0,-2.9619,326,299)"
font-family="Ubuntu" font-size="11" font-weight="400" font-style="normal"
>
</g>

<g fill="none" stroke="#000000" stroke-opacity="1" stroke-width="1" stroke-linecap="square" stroke-linejoin="bevel" transform="matrix(0.29619,0,0,-0.29619,622.19,299)"
font-family="Ubuntu" font-size="11" font-weight="400" font-style="normal"
>
</g>

<g fill="none" stroke="#000000" stroke-opacity="1" stroke-width="1" stroke-linecap="square" stroke-linejoin="bevel" transform="matrix(0.29619,0,0,-0.29619,622.19,299)"
font-family="Ubuntu" font-size="11" font-weight="400" font-style="normal"
>
</g>

<g fill="none" stroke="#000000" stroke-opacity="1" stroke-width="1" stroke-linecap="square" stroke-linejoin="bevel" transform="matrix(0.29619,0,0,-0.29619,622.19,299)"
font-family="Ubuntu" font-size="11" font-weight="400" font-style="normal"
>
</g>

<g fill="#ffffff" fill-opacity="1" stroke="#000000" stroke-opacity="1" stroke-width="1" stroke-linecap="square" stroke-linejoin="miter" stroke-miterlimit="2" transform="matrix(0.29619,0,0,0.29619,622.19,299)"
font-family="Ubuntu" font-size="11" font-weight="400" font-style="normal"
>
<path vector-effect="non-scaling-stroke" fill-rule="evenodd" d="M102,0 C102,55.2285 57.2285,100 2,100 C-53.2285,100 -98,55.2285 -98,0 C-98,-55.2285 -53.2285,-100 2,-100 C57.2285,-100 102,-55.2285 102,0 "/>
</g>

<g fill="none" stroke="#000000" stroke-opacity="1" stroke-width="1" stroke-linecap="square" stroke-linejoin="bevel" transform="matrix(0.29619,0,0,-0.29619,622.19,299)"
font-family="Ubuntu" font-size="11" font-weight="400" font-style="normal"
>
</g>

<g fill="none" stroke="#000000" stroke-opacity="1" stroke-width="1" stroke-linecap="square" stroke-linejoin="bevel" transform="matrix(1,0,0,1,592.571,328.619)"
font-family="Ubuntu" font-size="11" font-weight="400" font-style="normal"
>
</g>

<g fill="#000000" fill-opacity="0" stroke="#000000" stroke-opacity="0" stroke-width="1" stroke-linecap="square" stroke-linejoin="bevel" transform="matrix(1,0,0,1,592.571,328.619)"
font-family="Ubuntu" font-size="11" font-weight="400" font-style="normal"
>
<path vector-effect="non-scaling-stroke" fill-rule="evenodd" d="M-3,-3 L3,-3 L3,3 L-3,3 L-3,-3"/>
</g>

<g fill="none" stroke="#000000" stroke-opacity="1" stroke-width="1" stroke-linecap="square" stroke-linejoin="bevel" transform="matrix(1,0,0,1,592.571,328.619)"
font-family="Ubuntu" font-size="11" font-weight="400" font-style="normal"
>
</g>

<g fill="none" stroke="#000000" stroke-opacity="1" stroke-width="1" stroke-linecap="square" stroke-linejoin="bevel" transform="matrix(1,0,0,1,592.571,269.381)"
font-family="Ubuntu" font-size="11" font-weight="400" font-style="normal"
>
</g>

<g fill="#000000" fill-opacity="0" stroke="#000000" stroke-opacity="0" stroke-width="1" stroke-linecap="square" stroke-linejoin="bevel" transform="matrix(1,0,0,1,592.571,269.381)"
font-family="Ubuntu" font-size="11" font-weight="400" font-style="normal"
>
<path vector-effect="non-scaling-stroke" fill-rule="evenodd" d="M-3,-3 L3,-3 L3,3 L-3,3 L-3,-3"/>
</g>

<g fill="none" stroke="#000000" stroke-opacity="1" stroke-width="1" stroke-linecap="square" stroke-linejoin="bevel" transform="matrix(1,0,0,1,592.571,269.381)"
font-family="Ubuntu" font-size="11" font-weight="400" font-style="normal"
>
</g>

<g fill="none" stroke="#000000" stroke-opacity="1" stroke-width="1" stroke-linecap="square" stroke-linejoin="bevel" transform="matrix(1,0,0,1,651.81,269.381)"
font-family="Ubuntu" font-size="11" font-weight="400" font-style="normal"
>
</g>

<g fill="#000000" fill-opacity="0" stroke="#000000" stroke-opacity="0" stroke-width="1" stroke-linecap="square" stroke-linejoin="bevel" transform="matrix(1,0,0,1,651.81,269.381)"
font-family="Ubuntu" font-size="11" font-weight="400" font-style="normal"
>
<path vector-effect="non-scaling-stroke" fill-rule="evenodd" d="M-3,-3 L3,-3 L3,3 L-3,3 L-3,-3"/>
</g>

<g fill="none" stroke="#000000" stroke-opacity="1" stroke-width="1" stroke-linecap="square" stroke-linejoin="bevel" transform="matrix(1,0,0,1,651.81,269.381)"
font-family="Ubuntu" font-size="11" font-weight="400" font-style="normal"
>
</g>

<g fill="none" stroke="#000000" stroke-opacity="1" stroke-width="1" stroke-linecap="square" stroke-linejoin="bevel" transform="matrix(1,0,0,1,651.81,328.619)"
font-family="Ubuntu" font-size="11" font-weight="400" font-style="normal"
>
</g>

<g fill="#000000" fill-opacity="0" stroke="#000000" stroke-opacity="0" stroke-width="1" stroke-linecap="square" stroke-linejoin="bevel" transform="matrix(1,0,0,1,651.81,328.619)"
font-family="Ubuntu" font-size="11" font-weight="400" font-style="normal"
>
<path vector-effect="non-scaling-stroke" fill-rule="evenodd" d="M-3,-3 L3,-3 L3,3 L-3,3 L-3,-3"/>
</g>

<g fill="none" stroke="#000000" stroke-opacity="1" stroke-width="1" stroke-linecap="square" stroke-linejoin="bevel" transform="matrix(1,0,0,1,651.81,328.619)"
font-family="Ubuntu" font-size="11" font-weight="400" font-style="normal"
>
</g>

<g fill="none" stroke="#000000" stroke-opacity="1" stroke-width="1" stroke-linecap="square" stroke-linejoin="bevel" transform="matrix(0.29619,0,0,-0.29619,29.8095,299)"
font-family="Ubuntu" font-size="11" font-weight="400" font-style="normal"
>
</g>

<g fill="none" stroke="#000000" stroke-opacity="1" stroke-width="1" stroke-linecap="square" stroke-linejoin="bevel" transform="matrix(0.29619,0,0,-0.29619,29.8095,299)"
font-family="Ubuntu" font-size="11" font-weight="400" font-style="normal"
>
</g>

<g fill="none" stroke="#000000" stroke-opacity="1" stroke-width="1" stroke-linecap="square" stroke-linejoin="bevel" transform="matrix(0.29619,0,0,-0.29619,29.8095,299)"
font-family="Ubuntu" font-size="11" font-weight="400" font-style="normal"
>
</g>

<g fill="#5f5f5f" fill-opacity="1" stroke="#000000" stroke-opacity="1" stroke-width="1" stroke-linecap="square" stroke-linejoin="miter" stroke-miterlimit="2" transform="matrix(0.29619,0,0,0.29619,29.8095,299)"
font-family="Ubuntu" font-size="11" font-weight="400" font-style="normal"
>
<path vector-effect="non-scaling-stroke" fill-rule="evenodd" d="M100,0 C100,55.2285 55.2285,100 0,100 C-55.2285,100 -100,55.2285 -100,0 C-100,-55.2285 -55.2285,-100 0,-100 C55.2285,-100 100,-55.2285 100,0 "/>
</g>

<g fill="none" stroke="#000000" stroke-opacity="1" stroke-width="1" stroke-linecap="square" stroke-linejoin="bevel" transform="matrix(0.29619,0,0,-0.29619,29.8095,299)"
font-family="Ubuntu" font-size="11" font-weight="400" font-style="normal"
>
</g>

<g fill="none" stroke="#000000" stroke-opacity="1" stroke-width="1" stroke-linecap="square" stroke-linejoin="bevel" transform="matrix(1,0,0,1,0.190476,328.619)"
font-family="Ubuntu" font-size="11" font-weight="400" font-style="normal"
>
</g>

<g fill="#000000" fill-opacity="0" stroke="#000000" stroke-opacity="0" stroke-width="1" stroke-linecap="square" stroke-linejoin="bevel" transform="matrix(1,0,0,1,0.190476,328.619)"
font-family="Ubuntu" font-size="11" font-weight="400" font-style="normal"
>
<path vector-effect="non-scaling-stroke" fill-rule="evenodd" d="M-3,-3 L3,-3 L3,3 L-3,3 L-3,-3"/>
</g>

<g fill="none" stroke="#000000" stroke-opacity="1" stroke-width="1" stroke-linecap="square" stroke-linejoin="bevel" transform="matrix(1,0,0,1,0.190476,328.619)"
font-family="Ubuntu" font-size="11" font-weight="400" font-style="normal"
>
</g>

<g fill="none" stroke="#000000" stroke-opacity="1" stroke-width="1" stroke-linecap="square" stroke-linejoin="bevel" transform="matrix(1,0,0,1,0.190476,269.381)"
font-family="Ubuntu" font-size="11" font-weight="400" font-style="normal"
>
</g>

<g fill="#000000" fill-opacity="0" stroke="#000000" stroke-opacity="0" stroke-width="1" stroke-linecap="square" stroke-linejoin="bevel" transform="matrix(1,0,0,1,0.190476,269.381)"
font-family="Ubuntu" font-size="11" font-weight="400" font-style="normal"
>
<path vector-effect="non-scaling-stroke" fill-rule="evenodd" d="M-3,-3 L3,-3 L3,3 L-3,3 L-3,-3"/>
</g>

<g fill="none" stroke="#000000" stroke-opacity="1" stroke-width="1" stroke-linecap="square" stroke-linejoin="bevel" transform="matrix(1,0,0,1,0.190476,269.381)"
font-family="Ubuntu" font-size="11" font-weight="400" font-style="normal"
>
</g>

<g fill="none" stroke="#000000" stroke-opacity="1" stroke-width="1" stroke-linecap="square" stroke-linejoin="bevel" transform="matrix(1,0,0,1,59.4286,269.381)"
font-family="Ubuntu" font-size="11" font-weight="400" font-style="normal"
>
</g>

<g fill="#000000" fill-opacity="0" stroke="#000000" stroke-opacity="0" stroke-width="1" stroke-linecap="square" stroke-linejoin="bevel" transform="matrix(1,0,0,1,59.4286,269.381)"
font-family="Ubuntu" font-size="11" font-weight="400" font-style="normal"
>
<path vector-effect="non-scaling-stroke" fill-rule="evenodd" d="M-3,-3 L3,-3 L3,3 L-3,3 L-3,-3"/>
</g>

<g fill="none" stroke="#000000" stroke-opacity="1" stroke-width="1" stroke-linecap="square" stroke-linejoin="bevel" transform="matrix(1,0,0,1,59.4286,269.381)"
font-family="Ubuntu" font-size="11" font-weight="400" font-style="normal"
>
</g>

<g fill="none" stroke="#000000" stroke-opacity="1" stroke-width="1" stroke-linecap="square" stroke-linejoin="bevel" transform="matrix(1,0,0,1,59.4286,328.619)"
font-family="Ubuntu" font-size="11" font-weight="400" font-style="normal"
>
</g>

<g fill="#000000" fill-opacity="0" stroke="#000000" stroke-opacity="0" stroke-width="1" stroke-linecap="square" stroke-linejoin="bevel" transform="matrix(1,0,0,1,59.4286,328.619)"
font-family="Ubuntu" font-size="11" font-weight="400" font-style="normal"
>
<path vector-effect="non-scaling-stroke" fill-rule="evenodd" d="M-3,-3 L3,-3 L3,3 L-3,3 L-3,-3"/>
</g>

<g fill="none" stroke="#000000" stroke-opacity="1" stroke-width="1" stroke-linecap="square" stroke-linejoin="bevel" transform="matrix(1,0,0,1,59.4286,328.619)"
font-family="Ubuntu" font-size="11" font-weight="400" font-style="normal"
>
</g>

<g fill="none" stroke="#000000" stroke-opacity="1" stroke-width="1" stroke-linecap="square" stroke-linejoin="bevel" transform="matrix(0.29619,0,0,-0.29619,29.8095,476.714)"
font-family="Ubuntu" font-size="11" font-weight="400" font-style="normal"
>
</g>

<g fill="none" stroke="#000000" stroke-opacity="1" stroke-width="1" stroke-linecap="square" stroke-linejoin="bevel" transform="matrix(0.29619,0,0,-0.29619,29.8095,476.714)"
font-family="Ubuntu" font-size="11" font-weight="400" font-style="normal"
>
</g>

<g fill="none" stroke="#000000" stroke-opacity="1" stroke-width="1" stroke-linecap="square" stroke-linejoin="bevel" transform="matrix(0.29619,0,0,-0.29619,29.8095,476.714)"
font-family="Ubuntu" font-size="11" font-weight="400" font-style="normal"
>
</g>

<g fill="#5f5f5f" fill-opacity="1" stroke="#000000" stroke-opacity="1" stroke-width="1" stroke-linecap="square" stroke-linejoin="miter" stroke-miterlimit="2" transform="matrix(0.29619,0,0,0.29619,29.8095,476.714)"
font-family="Ubuntu" font-size="11" font-weight="400" font-style="normal"
>
<path vector-effect="non-scaling-stroke" fill-rule="evenodd" d="M100,0 C100,55.2285 55.2285,100 0,100 C-55.2285,100 -100,55.2285 -100,0 C-100,-55.2285 -55.2285,-100 0,-100 C55.2285,-100 100,-55.2285 100,0 "/>
</g>

<g fill="none" stroke="#000000" stroke-opacity="1" stroke-width="1" stroke-linecap="square" stroke-linejoin="bevel" transform="matrix(0.29619,0,0,-0.29619,29.8095,476.714)"
font-family="Ubuntu" font-size="11" font-weight="400" font-style="normal"
>
</g>

<g fill="none" stroke="#000000" stroke-opacity="1" stroke-width="1" stroke-linecap="square" stroke-linejoin="bevel" transform="matrix(0.29619,0,0,-0.29619,29.8095,476.714)"
font-family="Ubuntu" font-size="11" font-weight="400" font-style="normal"
>
</g>

<g fill="#c0c0c0" fill-opacity="1" stroke="#c0c0c0" stroke-opacity="1" stroke-width="1" stroke-linecap="square" stroke-linejoin="miter" stroke-miterlimit="2" transform="matrix(0.29619,0,0,-0.29619,29.8095,476.714)"
font-family="Ubuntu" font-size="11" font-weight="400" font-style="normal"
>
<path vector-effect="non-scaling-stroke" fill-rule="evenodd" d="M-150,-150 L150,-150 L150,150 L-150,150 L-150,-150"/>
</g>

<g fill="none" stroke="#000000" stroke-opacity="1" stroke-width="1" stroke-linecap="square" stroke-linejoin="bevel" transform="matrix(0.29619,0,0,-0.29619,29.8095,476.714)"
font-family="Ubuntu" font-size="11" font-weight="400" font-style="normal"
>
</g>

<g fill="none" stroke="#000000" stroke-opacity="1" stroke-width="1" stroke-linecap="square" stroke-linejoin="bevel" transform="matrix(0.29619,0,0,-0.29619,29.8095,476.714)"
font-family="Ubuntu" font-size="11" font-weight="400" font-style="normal"
>
</g>

<g fill="#5f5f5f" fill-opacity="1" stroke="#000000" stroke-opacity="1" stroke-width="1" stroke-linecap="square" stroke-linejoin="miter" stroke-miterlimit="2" transform="matrix(0.29619,0,0,0.29619,29.8095,476.714)"
font-family="Ubuntu" font-size="11" font-weight="400" font-style="normal"
>
<path vector-effect="non-scaling-stroke" fill-rule="evenodd" d="M100,0 C100,55.2285 55.2285,100 0,100 C-55.2285,100 -100,55.2285 -100,0 C-100,-55.2285 -55.2285,-100 0,-100 C55.2285,-100 100,-55.2285 100,0 "/>
</g>

<g fill="none" stroke="#000000" stroke-opacity="1" stroke-width="1" stroke-linecap="square" stroke-linejoin="bevel" transform="matrix(0.29619,0,0,-0.29619,29.8095,476.714)"
font-family="Ubuntu" font-size="11" font-weight="400" font-style="normal"
>
</g>

<g fill="none" stroke="#000000" stroke-opacity="1" stroke-width="1" stroke-linecap="square" stroke-linejoin="bevel" transform="matrix(1,0,0,1,0.190476,506.333)"
font-family="Ubuntu" font-size="11" font-weight="400" font-style="normal"
>
</g>

<g fill="#000000" fill-opacity="0" stroke="#000000" stroke-opacity="0" stroke-width="1" stroke-linecap="square" stroke-linejoin="bevel" transform="matrix(1,0,0,1,0.190476,506.333)"
font-family="Ubuntu" font-size="11" font-weight="400" font-style="normal"
>
<path vector-effect="non-scaling-stroke" fill-rule="evenodd" d="M-3,-3 L3,-3 L3,3 L-3,3 L-3,-3"/>
</g>

<g fill="none" stroke="#000000" stroke-opacity="1" stroke-width="1" stroke-linecap="square" stroke-linejoin="bevel" transform="matrix(1,0,0,1,0.190476,506.333)"
font-family="Ubuntu" font-size="11" font-weight="400" font-style="normal"
>
</g>

<g fill="none" stroke="#000000" stroke-opacity="1" stroke-width="1" stroke-linecap="square" stroke-linejoin="bevel" transform="matrix(1,0,0,1,0.190476,447.095)"
font-family="Ubuntu" font-size="11" font-weight="400" font-style="normal"
>
</g>

<g fill="#000000" fill-opacity="0" stroke="#000000" stroke-opacity="0" stroke-width="1" stroke-linecap="square" stroke-linejoin="bevel" transform="matrix(1,0,0,1,0.190476,447.095)"
font-family="Ubuntu" font-size="11" font-weight="400" font-style="normal"
>
<path vector-effect="non-scaling-stroke" fill-rule="evenodd" d="M-3,-3 L3,-3 L3,3 L-3,3 L-3,-3"/>
</g>

<g fill="none" stroke="#000000" stroke-opacity="1" stroke-width="1" stroke-linecap="square" stroke-linejoin="bevel" transform="matrix(1,0,0,1,0.190476,447.095)"
font-family="Ubuntu" font-size="11" font-weight="400" font-style="normal"
>
</g>

<g fill="none" stroke="#000000" stroke-opacity="1" stroke-width="1" stroke-linecap="square" stroke-linejoin="bevel" transform="matrix(1,0,0,1,59.4286,447.095)"
font-family="Ubuntu" font-size="11" font-weight="400" font-style="normal"
>
</g>

<g fill="#000000" fill-opacity="0" stroke="#000000" stroke-opacity="0" stroke-width="1" stroke-linecap="square" stroke-linejoin="bevel" transform="matrix(1,0,0,1,59.4286,447.095)"
font-family="Ubuntu" font-size="11" font-weight="400" font-style="normal"
>
<path vector-effect="non-scaling-stroke" fill-rule="evenodd" d="M-3,-3 L3,-3 L3,3 L-3,3 L-3,-3"/>
</g>

<g fill="none" stroke="#000000" stroke-opacity="1" stroke-width="1" stroke-linecap="square" stroke-linejoin="bevel" transform="matrix(1,0,0,1,59.4286,447.095)"
font-family="Ubuntu" font-size="11" font-weight="400" font-style="normal"
>
</g>

<g fill="none" stroke="#000000" stroke-opacity="1" stroke-width="1" stroke-linecap="square" stroke-linejoin="bevel" transform="matrix(1,0,0,1,59.4286,506.333)"
font-family="Ubuntu" font-size="11" font-weight="400" font-style="normal"
>
</g>

<g fill="#000000" fill-opacity="0" stroke="#000000" stroke-opacity="0" stroke-width="1" stroke-linecap="square" stroke-linejoin="bevel" transform="matrix(1,0,0,1,59.4286,506.333)"
font-family="Ubuntu" font-size="11" font-weight="400" font-style="normal"
>
<path vector-effect="non-scaling-stroke" fill-rule="evenodd" d="M-3,-3 L3,-3 L3,3 L-3,3 L-3,-3"/>
</g>

<g fill="none" stroke="#000000" stroke-opacity="1" stroke-width="1" stroke-linecap="square" stroke-linejoin="bevel" transform="matrix(1,0,0,1,59.4286,506.333)"
font-family="Ubuntu" font-size="11" font-weight="400" font-style="normal"
>
</g>

<g fill="none" stroke="#000000" stroke-opacity="1" stroke-width="1" stroke-linecap="square" stroke-linejoin="bevel" transform="matrix(2.9619,0,0,-2.9619,326,299)"
font-family="Ubuntu" font-size="11" font-weight="400" font-style="normal"
>
</g>

<g fill="none" stroke="#000000" stroke-opacity="0" stroke-width="1" stroke-linecap="square" stroke-linejoin="bevel" transform="matrix(2.9619,0,0,-2.9619,326,299)"
font-family="Ubuntu" font-size="11" font-weight="400" font-style="normal"
>
<polyline fill="none" vector-effect="non-scaling-stroke" points="-2,0 2,0 " />
<polyline fill="none" vector-effect="non-scaling-stroke" points="0,-2 0,2 " />
</g>

<g fill="none" stroke="#000000" stroke-opacity="1" stroke-width="1" stroke-linecap="square" stroke-linejoin="bevel" transform="matrix(2.9619,0,0,-2.9619,326,299)"
font-family="Ubuntu" font-size="11" font-weight="400" font-style="normal"
>
</g>

<g fill="none" stroke="#000000" stroke-opacity="1" stroke-width="1" stroke-linecap="square" stroke-linejoin="bevel" transform="matrix(2.9619,0,0,-2.9619,326,299)"
font-family="Ubuntu" font-size="11" font-weight="400" font-style="normal"
>
</g>

<g fill="none" stroke="#000000" stroke-opacity="0" stroke-width="1" stroke-linecap="square" stroke-linejoin="bevel" transform="matrix(2.9619,0,0,-2.9619,326,299)"
font-family="Ubuntu" font-size="11" font-weight="400" font-style="normal"
>
<polyline fill="none" vector-effect="non-scaling-stroke" points="-2,0 2,0 " />
<polyline fill="none" vector-effect="non-scaling-stroke" points="0,-2 0,2 " />
</g>

<g fill="none" stroke="#000000" stroke-opacity="1" stroke-width="1" stroke-linecap="square" stroke-linejoin="bevel" transform="matrix(2.9619,0,0,-2.9619,326,299)"
font-family="Ubuntu" font-size="11" font-weight="400" font-style="normal"
>
</g>

<g fill="none" stroke="#000000" stroke-opacity="1" stroke-width="1" stroke-linecap="square" stroke-linejoin="bevel" transform="matrix(2.9619,0,0,-2.9619,326,299)"
font-family="Ubuntu" font-size="11" font-weight="400" font-style="normal"
>
</g>

<g fill="none" stroke="#000000" stroke-opacity="0" stroke-width="1" stroke-linecap="square" stroke-linejoin="bevel" transform="matrix(2.9619,0,0,-2.9619,326,299)"
font-family="Ubuntu" font-size="11" font-weight="400" font-style="normal"
>
<polyline fill="none" vector-effect="non-scaling-stroke" points="-2,0 2,0 " />
<polyline fill="none" vector-effect="non-scaling-stroke" points="0,-2 0,2 " />
</g>

<g fill="none" stroke="#000000" stroke-opacity="1" stroke-width="1" stroke-linecap="square" stroke-linejoin="bevel" transform="matrix(2.9619,0,0,-2.9619,326,299)"
font-family="Ubuntu" font-size="11" font-weight="400" font-style="normal"
>
</g>

<g fill="none" stroke="#000000" stroke-opacity="1" stroke-width="1" stroke-linecap="square" stroke-linejoin="bevel" transform="matrix(2.9619,0,0,-2.9619,326,299)"
font-family="Ubuntu" font-size="11" font-weight="400" font-style="normal"
>
</g>

<g fill="none" stroke="#000000" stroke-opacity="0" stroke-dasharray="1,2" stroke-dashoffset="0" stroke-width="1" stroke-linecap="square" stroke-linejoin="bevel" transform="matrix(2.9619,0,0,-2.9619,326,299)"
font-family="Ubuntu" font-size="11" font-weight="400" font-style="normal"
>
</g>

<g fill="none" stroke="#000000" stroke-opacity="1" stroke-width="1" stroke-linecap="square" stroke-linejoin="bevel" transform="matrix(2.9619,0,0,-2.9619,326,299)"
font-family="Ubuntu" font-size="11" font-weight="400" font-style="normal"
>
</g>

<g fill="none" stroke="#000000" stroke-opacity="1" stroke-width="1" stroke-linecap="square" stroke-linejoin="bevel" transform="matrix(2.9619,0,0,-2.9619,326,299)"
font-family="Ubuntu" font-size="11" font-weight="400" font-style="normal"
>
</g>

<g fill="none" stroke="#000000" stroke-opacity="0" stroke-dasharray="1,2" stroke-dashoffset="0" stroke-width="1" stroke-linecap="square" stroke-linejoin="bevel" transform="matrix(2.9619,0,0,-2.9619,326,299)"
font-family="Ubuntu" font-size="11" font-weight="400" font-style="normal"
>
</g>

<g fill="none" stroke="#000000" stroke-opacity="1" stroke-width="1" stroke-linecap="square" stroke-linejoin="bevel" transform="matrix(2.9619,0,0,-2.9619,326,299)"
font-family="Ubuntu" font-size="11" font-weight="400" font-style="normal"
>
</g>

<g fill="none" stroke="#000000" stroke-opacity="1" stroke-width="1" stroke-linecap="square" stroke-linejoin="bevel" transform="matrix(2.9619,0,0,-2.9619,326,299)"
font-family="Ubuntu" font-size="11" font-weight="400" font-style="normal"
>
</g>

<g fill="none" stroke="#000000" stroke-opacity="0" stroke-dasharray="1,2" stroke-dashoffset="0" stroke-width="1" stroke-linecap="square" stroke-linejoin="bevel" transform="matrix(2.9619,0,0,-2.9619,326,299)"
font-family="Ubuntu" font-size="11" font-weight="400" font-style="normal"
>
</g>

<g fill="none" stroke="#000000" stroke-opacity="1" stroke-width="1" stroke-linecap="square" stroke-linejoin="bevel" transform="matrix(2.9619,0,0,-2.9619,326,299)"
font-family="Ubuntu" font-size="11" font-weight="400" font-style="normal"
>
</g>

<g fill="none" stroke="#000000" stroke-opacity="1" stroke-width="1" stroke-linecap="square" stroke-linejoin="bevel" transform="matrix(1,0,0,1,5,-14)"
font-family="Ubuntu" font-size="11" font-weight="400" font-style="normal"
>
</g>
</g>
</svg>
