<?xml version="1.0" encoding="UTF-8"?>
<svg xmlns="http://www.w3.org/2000/svg" xmlns:xlink="http://www.w3.org/1999/xlink" width="857.59677pt" height="764.17773pt" viewBox="0 0 857.59677 764.17773" version="1.1">
<g id="surface1">
<path style="fill:none;stroke-width:1;stroke-linecap:square;stroke-linejoin:miter;stroke:rgb(50.196078%,0%,100%);stroke-opacity:1;stroke-miterlimit:2;" d="M -99.99966 -100.000422 L 99.999611 -100.000422 L 99.999611 99.999903 L -99.99966 99.999903 L -99.99966 -100.000422 " transform="matrix(3.702377,0,0,-3.702377,435.959075,382.088883)"/>
<path style="fill-rule:evenodd;fill:rgb(100%,100%,100%);fill-opacity:1;stroke-width:1;stroke-linecap:square;stroke-linejoin:miter;stroke:rgb(0%,0%,0%);stroke-opacity:1;stroke-miterlimit:2;" d="M 101.999841 0.00259428 C 101.999841 55.224722 57.233412 100.001702 2.000733 100.001702 C -53.231945 100.001702 -97.998374 55.224722 -97.998374 0.00259428 C -97.998374 -55.230084 -53.231945 -99.996513 2.000733 -99.996513 C 57.233412 -99.996513 101.999841 -55.230084 101.999841 0.00259428 " transform="matrix(0.370238,0,0,0.370238,806.196753,382.088883)"/>
<path style="fill-rule:evenodd;fill:rgb(37.254902%,37.254902%,37.254902%);fill-opacity:1;stroke-width:1;stroke-linecap:square;stroke-linejoin:miter;stroke:rgb(0%,0%,0%);stroke-opacity:1;stroke-miterlimit:2;" d="M 100.0042 0.00259428 C 100.0042 55.224722 55.22722 100.001702 0.00509207 100.001702 C -55.227587 100.001702 -100.004566 55.224722 -100.004566 0.00259428 C -100.004566 -55.230084 -55.227587 -99.996513 0.00509207 -99.996513 C 55.22722 -99.996513 100.0042 -55.230084 100.0042 0.00259428 " transform="matrix(0.370238,0,0,0.370238,65.720771,382.088883)"/>
<path style="fill-rule:evenodd;fill:rgb(37.254902%,37.254902%,37.254902%);fill-opacity:1;stroke-width:1;stroke-linecap:square;stroke-linejoin:miter;stroke:rgb(0%,0%,0%);stroke-opacity:1;stroke-miterlimit:2;" d="M 100.0042 -0.00275943 C 100.0042 55.229919 55.22722 99.996348 0.00509207 99.996348 C -55.227587 99.996348 -100.004566 55.229919 -100.004566 -0.00275943 C -100.004566 -55.224887 -55.227587 -100.001867 0.00509207 -100.001867 C 55.22722 -100.001867 100.0042 -55.224887 100.0042 -0.00275943 " transform="matrix(0.370238,0,0,0.370238,65.720771,604.23149)"/>
<path style="fill-rule:evenodd;fill:rgb(75.294118%,75.294118%,75.294118%);fill-opacity:1;stroke-width:1;stroke-linecap:square;stroke-linejoin:miter;stroke:rgb(75.294118%,75.294118%,75.294118%);stroke-opacity:1;stroke-miterlimit:2;" d="M -150.00412 -149.995902 L 150.003754 -149.995902 L 150.003754 150.001421 L -150.00412 150.001421 L -150.00412 -149.995902 " transform="matrix(0.370238,0,0,-0.370238,65.720771,604.23149)"/>
<path style="fill-rule:evenodd;fill:rgb(37.254902%,37.254902%,37.254902%);fill-opacity:1;stroke-width:1;stroke-linecap:square;stroke-linejoin:miter;stroke:rgb(0%,0%,0%);stroke-opacity:1;stroke-miterlimit:2;" d="M 100.0042 -0.00275943 C 100.0042 55.229919 55.22722 99.996348 0.00509207 99.996348 C -55.227587 99.996348 -100.004566 55.229919 -100.004566 -0.00275943 C -100.004566 -55.224887 -55.227587 -100.001867 0.00509207 -100.001867 C 55.22722 -100.001867 100.0042 -55.224887 100.0042 -0.00275943 " transform="matrix(0.370238,0,0,0.370238,65.720771,604.23149)"/>
</g>
</svg>
