<?xml version="1.0" encoding="UTF-8"?>
<svg xmlns="http://www.w3.org/2000/svg" xmlns:xlink="http://www.w3.org/1999/xlink" width="1384.3947pt" height="852.07437pt" viewBox="0 0 1384.3947 852.07437" version="1.1">
<g id="surface1">
<path style="fill-rule:evenodd;fill:rgb(100%,100%,100%);fill-opacity:1;stroke-width:1;stroke-linecap:square;stroke-linejoin:miter;stroke:rgb(0%,0%,0%);stroke-opacity:1;stroke-miterlimit:2;" d="M 20.000187 -0.000185554 C 20.000187 11.045589 11.045932 19.999844 0.000157608 19.999844 C -11.045617 19.999844 -19.999872 11.045589 -19.999872 -0.000185554 C -19.999872 -11.04596 -11.045617 -20.000215 0.000157608 -20.000215 C 11.045932 -20.000215 20.000187 -11.04596 20.000187 -0.000185554 " transform="matrix(5.87753,0,0,5.87753,721.585011,130.489372)"/>
<path style="fill:none;stroke-width:1;stroke-linecap:square;stroke-linejoin:miter;stroke:rgb(0%,0%,0%);stroke-opacity:1;stroke-miterlimit:2;" d="M -99.999991 0.000185554 L -19.999872 0.000185554 " transform="matrix(5.87753,0,0,-5.87753,721.585011,130.489372)"/>
<path style="fill:none;stroke-width:1;stroke-linecap:square;stroke-linejoin:miter;stroke:rgb(0%,0%,0%);stroke-opacity:1;stroke-miterlimit:2;" d="M 0.000157608 -99.999963 L 0.000157608 -19.999844 " transform="matrix(5.87753,0,0,-5.87753,721.585011,130.489372)"/>
<path style="fill:none;stroke-width:1;stroke-linecap:square;stroke-linejoin:miter;stroke:rgb(0%,0%,0%);stroke-opacity:1;stroke-miterlimit:2;" d="M 20.000187 0.000185554 L 100.000306 0.000185554 " transform="matrix(5.87753,0,0,-5.87753,721.585011,130.489372)"/>
<path style="fill-rule:evenodd;fill:rgb(0%,0%,0%);fill-opacity:1;stroke-width:1;stroke-linecap:square;stroke-linejoin:miter;stroke:rgb(0%,0%,0%);stroke-opacity:1;stroke-miterlimit:2;" d="M -32.000023 1.999989 L -27.999751 1.999989 L -27.999751 17.999747 L -32.000023 17.999747 L -32.000023 1.999989 " transform="matrix(5.87753,0,0,-5.87753,721.585011,130.489372)"/>
<path style="fill-rule:evenodd;fill:rgb(0%,0%,0%);fill-opacity:1;stroke-width:1;stroke-linecap:square;stroke-linejoin:miter;stroke:rgb(0%,0%,0%);stroke-opacity:1;stroke-miterlimit:2;" d="M -38.000098 8.000065 L -21.999676 8.000065 L -21.999676 11.999672 L -38.000098 11.999672 L -38.000098 8.000065 " transform="matrix(5.87753,0,0,-5.87753,721.585011,130.489372)"/>
<path style="fill-rule:evenodd;fill:rgb(0%,0%,0%);fill-opacity:1;stroke-width:1;stroke-linecap:square;stroke-linejoin:miter;stroke:rgb(0%,0%,0%);stroke-opacity:1;stroke-miterlimit:2;" d="M -18.000069 -31.999995 L -2.000311 -31.999995 L -2.000311 -27.999723 L -18.000069 -27.999723 L -18.000069 -31.999995 " transform="matrix(5.87753,0,0,-5.87753,721.585011,130.489372)"/>
<path style="fill-rule:evenodd;fill:rgb(0%,0%,100%);fill-opacity:1;stroke-width:1;stroke-linecap:square;stroke-linejoin:miter;stroke:rgb(0%,0%,100%);stroke-opacity:1;stroke-miterlimit:2;" d="M -100.000206 99.998681 L 100.000091 0.00185554 L -100.000206 -100.001616 L -100.000206 99.998681 " transform="matrix(0.587753,0,0,-0.587753,75.056674,130.489372)"/>
<path style="fill-rule:evenodd;fill:rgb(0%,0%,100%);fill-opacity:1;stroke-width:1;stroke-linecap:square;stroke-linejoin:miter;stroke:rgb(0%,0%,100%);stroke-opacity:1;stroke-miterlimit:2;" d="M -99.999927 100.001895 L 100.00037 -0.00157608 L -99.999927 -99.998402 L -99.999927 100.001895 " transform="matrix(0,-0.587753,-0.587753,0,721.585011,777.017709)"/>
<path style="fill-rule:evenodd;fill:rgb(100%,100%,100%);fill-opacity:1;stroke-width:1;stroke-linecap:square;stroke-linejoin:miter;stroke:rgb(0%,0%,100%);stroke-opacity:1;stroke-miterlimit:2;" d="M -100.00041 99.998681 L 99.999887 0.00185554 L -100.00041 -100.001616 L -100.00041 99.998681 " transform="matrix(0.587753,0,0,-0.587753,1309.338045,130.489372)"/>
</g>
</svg>
