<?xml version="1.0" encoding="UTF-8"?>
<svg xmlns="http://www.w3.org/2000/svg" xmlns:xlink="http://www.w3.org/1999/xlink" width="864.01228pt" height="663.54201pt" viewBox="0 0 864.01228 663.54201" version="1.1">
<g id="surface1">
<path style="fill-rule:evenodd;fill:rgb(0%,0%,0%);fill-opacity:1;stroke-width:1;stroke-linecap:square;stroke-linejoin:miter;stroke:rgb(0%,0%,0%);stroke-opacity:1;stroke-miterlimit:2;" d="M 31.999534 -61.999625 C 31.999534 -44.327211 17.672727 -30.000404 0.000313153 -30.000404 C -17.673175 -30.000404 -31.999982 -44.327211 -31.999982 -61.999625 C -31.999982 -79.673113 -17.673175 -93.99992 0.000313153 -93.99992 C 17.672727 -93.99992 31.999534 -79.673113 31.999534 -61.999625 " transform="matrix(3.635831,0,0,3.635831,413.826986,760.799048)"/>
<path style="fill-rule:evenodd;fill:rgb(0%,0%,0%);fill-opacity:1;stroke-width:1;stroke-linecap:square;stroke-linejoin:miter;stroke:rgb(0%,0%,0%);stroke-opacity:1;stroke-miterlimit:2;" d="M -21.999688 -55.999984 L 22.000314 -55.999984 L 22.000314 60.000414 L -21.999688 60.000414 L -21.999688 -55.999984 " transform="matrix(3.635831,0,0,-3.635831,413.826986,309.956036)"/>
<path style="fill-rule:evenodd;fill:rgb(0%,0%,0%);fill-opacity:1;stroke-width:1;stroke-linecap:square;stroke-linejoin:miter;stroke:rgb(0%,0%,0%);stroke-opacity:1;stroke-miterlimit:2;" d="M 22.000314 59.999586 C 22.000314 72.150781 12.150434 81.999588 0.000313153 81.999588 C -12.149807 81.999588 -21.999688 72.150781 -21.999688 59.999586 C -21.999688 47.849466 -12.149807 37.999585 0.000313153 37.999585 C 12.150434 37.999585 22.000314 47.849466 22.000314 59.999586 " transform="matrix(3.635831,0,0,3.635831,413.826986,-126.343653)"/>
<path style="fill-rule:evenodd;fill:rgb(100%,100%,100%);fill-opacity:1;stroke-width:1;stroke-linecap:square;stroke-linejoin:miter;stroke:rgb(0%,0%,0%);stroke-opacity:1;stroke-miterlimit:2;" d="M 18.000412 59.999586 C 18.000412 69.940789 9.941516 77.999685 0.000313153 77.999685 C -9.94089 77.999685 -17.999786 69.940789 -17.999786 59.999586 C -17.999786 50.058383 -9.94089 41.999488 0.000313153 41.999488 C 9.941516 41.999488 18.000412 50.058383 18.000412 59.999586 " transform="matrix(3.635831,0,0,3.635831,413.826986,-126.343653)"/>
<path style="fill-rule:evenodd;fill:rgb(100%,100%,100%);fill-opacity:1;stroke-width:1;stroke-linecap:square;stroke-linejoin:miter;stroke:rgb(0%,0%,0%);stroke-opacity:1;stroke-miterlimit:2;" d="M 27.999631 -61.999625 C 27.999631 -46.536128 15.46381 -34.000307 0.000313153 -34.000307 C -15.464258 -34.000307 -28.000079 -46.536128 -28.000079 -61.999625 C -28.000079 -77.464196 -15.464258 -90.000017 0.000313153 -90.000017 C 15.46381 -90.000017 27.999631 -77.464196 27.999631 -61.999625 " transform="matrix(3.635831,0,0,3.635831,413.826986,760.799048)"/>
<path style=" stroke:none;fill-rule:evenodd;fill:rgb(100%,100%,100%);fill-opacity:1;" d="M 348.382812 549.921875 L 479.273438 549.921875 L 479.273438 91.804688 L 348.382812 91.804688 L 348.382812 549.921875 "/>
<path style=" stroke:none;fill-rule:evenodd;fill:rgb(100%,0%,0%);fill-opacity:1;" d="M 508.359375 535.378906 C 508.359375 587.585938 466.035156 629.910156 413.828125 629.910156 C 361.617188 629.910156 319.296875 587.585938 319.296875 535.378906 C 319.296875 483.167969 361.617188 440.847656 413.828125 440.847656 C 466.035156 440.847656 508.359375 483.167969 508.359375 535.378906 "/>
<path style=" stroke:none;fill-rule:evenodd;fill:rgb(100%,0%,0%);fill-opacity:1;" d="M 355.652344 506.289062 L 472 506.289062 L 472 142.707031 L 355.652344 142.707031 L 355.652344 506.289062 "/>
<path style="fill:none;stroke-width:1;stroke-linecap:square;stroke-linejoin:miter;stroke:rgb(49.803922%,0%,0%);stroke-opacity:1;stroke-miterlimit:2;" d="M -90.000181 -0.000273644 L -21.999688 -0.000273644 " transform="matrix(3.635831,0,0,-3.635831,413.826986,309.956036)"/>
<path style="fill:none;stroke-width:1;stroke-linecap:square;stroke-linejoin:miter;stroke:rgb(0%,0%,100%);stroke-opacity:1;stroke-miterlimit:2;" d="M 22.000314 -0.000273644 L 100.000026 -0.000273644 " transform="matrix(3.635831,0,0,-3.635831,413.826986,309.956036)"/>
<path style="fill-rule:evenodd;fill:rgb(100%,100%,100%);fill-opacity:1;stroke-width:1;stroke-linecap:square;stroke-linejoin:miter;stroke:rgb(0%,0%,100%);stroke-opacity:1;stroke-miterlimit:2;" d="M -99.999737 100.0002 L 99.995391 -0.00273644 L -99.999737 -99.994929 L -99.999737 100.0002 " transform="matrix(0.363583,0,0,-0.363583,813.768368,309.956036)"/>
<path style="fill-rule:evenodd;fill:rgb(74.901961%,0%,0%);fill-opacity:1;stroke-width:1;stroke-linecap:square;stroke-linejoin:miter;stroke:rgb(74.901961%,0%,0%);stroke-opacity:1;stroke-miterlimit:2;" d="M -99.996936 -99.994929 L 99.998193 -99.994929 L 99.998193 100.0002 L -99.996936 100.0002 L -99.996936 -99.994929 " transform="matrix(0.363583,0,0,-0.363583,50.243912,309.956036)"/>
</g>
</svg>
