<?xml version="1.0" encoding="UTF-8"?>
<svg xmlns="http://www.w3.org/2000/svg" xmlns:xlink="http://www.w3.org/1999/xlink" width="836.54372pt" height="697.81881pt" viewBox="0 0 836.54372 697.81881" version="1.1">
<g id="surface1">
<path style="fill-rule:evenodd;fill:rgb(100%,100%,100%);fill-opacity:1;stroke-width:1;stroke-linecap:square;stroke-linejoin:miter;stroke:rgb(0%,0%,0%);stroke-opacity:1;stroke-miterlimit:2;" d="M -100.000501 -100.000027 L 100.000274 -100.000027 L 100.000274 99.99959 L -100.000501 99.99959 L -100.000501 -100.000027 " transform="matrix(3.372233,0,0,-3.372233,418.271868,348.909419)"/>
<path style="fill-rule:evenodd;fill:rgb(0%,0%,0%);fill-opacity:1;stroke-width:1;stroke-linecap:square;stroke-linejoin:miter;stroke:rgb(0%,0%,0%);stroke-opacity:1;stroke-miterlimit:2;" d="M -39.999921 -59.99964 L -19.999728 -59.99964 L -19.999728 60.000361 L -39.999921 60.000361 L -39.999921 -59.99964 " transform="matrix(3.372233,0,0,-3.372233,418.271868,348.909419)"/>
<path style="fill-rule:evenodd;fill:rgb(0%,0%,0%);fill-opacity:1;stroke-width:1;stroke-linecap:square;stroke-linejoin:miter;stroke:rgb(0%,0%,0%);stroke-opacity:1;stroke-miterlimit:2;" d="M -70.000211 40.000168 L 69.999984 40.000168 L 69.999984 60.000361 L -70.000211 60.000361 L -70.000211 40.000168 " transform="matrix(3.372233,0,0,-3.372233,418.271868,348.909419)"/>
<path style="fill-rule:evenodd;fill:rgb(0%,0%,0%);fill-opacity:1;stroke-width:1;stroke-linecap:square;stroke-linejoin:miter;stroke:rgb(0%,0%,0%);stroke-opacity:1;stroke-miterlimit:2;" d="M 19.9995 -59.99964 L 39.999694 -59.99964 L 39.999694 60.000361 L 19.9995 60.000361 L 19.9995 -59.99964 " transform="matrix(3.372233,0,0,-3.372233,418.271868,348.909419)"/>
<path style="fill-rule:evenodd;fill:rgb(100%,100%,100%);fill-opacity:1;stroke-width:1;stroke-linecap:square;stroke-linejoin:miter;stroke:rgb(0%,0%,100%);stroke-opacity:1;stroke-miterlimit:2;" d="M -99.997261 99.99878 L 100.004672 -0.00218627 L -99.997261 -100.003153 L -99.997261 99.99878 " transform="matrix(0.337223,0,0,-0.337223,789.2175,348.909419)"/>
<path style="fill-rule:evenodd;fill:rgb(0%,0%,100%);fill-opacity:1;stroke-width:1;stroke-linecap:square;stroke-linejoin:miter;stroke:rgb(0%,0%,100%);stroke-opacity:1;stroke-miterlimit:2;" d="M -99.995362 99.99878 L 99.994988 -0.00218627 L -99.995362 -100.003153 L -99.995362 99.99878 " transform="matrix(0.337223,0,0,-0.337223,47.326235,348.909419)"/>
</g>
</svg>
