<?xml version="1.0" encoding="UTF-8" standalone="no"?>
<!-- Created with Inkscape (http://www.inkscape.org/) -->

<svg
   xmlns:dc="http://purl.org/dc/elements/1.1/"
   xmlns:cc="http://creativecommons.org/ns#"
   xmlns:rdf="http://www.w3.org/1999/02/22-rdf-syntax-ns#"
   xmlns:svg="http://www.w3.org/2000/svg"
   xmlns="http://www.w3.org/2000/svg"
   xmlns:sodipodi="http://sodipodi.sourceforge.net/DTD/sodipodi-0.dtd"
   xmlns:inkscape="http://www.inkscape.org/namespaces/inkscape"
   width="396.0625"
   height="284.85974"
   id="svg3316"
   version="1.1"
   inkscape:version="0.48.4 r9939"
   sodipodi:docname="New document 3">
  <defs
     id="defs3318">
    <clipPath
       id="clipEmfPath1"
       clipPathUnits="userSpaceOnUse">
      <rect
         id="rect3329"
         height="17.491388"
         width="28.735851"
         y="322.04147"
         x="314.89496" />
    </clipPath>
    <clipPath
       id="clipEmfPath2"
       clipPathUnits="userSpaceOnUse">
      <rect
         id="rect3332"
         height="17.491388"
         width="49.975395"
         y="322.04147"
         x="173.71448" />
    </clipPath>
    <clipPath
       id="clipEmfPath3"
       clipPathUnits="userSpaceOnUse">
      <rect
         id="rect3335"
         height="17.491388"
         width="56.222321"
         y="127.13741"
         x="301.15173" />
    </clipPath>
    <clipPath
       id="clipEmfPath4"
       clipPathUnits="userSpaceOnUse">
      <rect
         id="rect3338"
         height="17.491388"
         width="42.479088"
         y="322.04147"
         x="437.33469" />
    </clipPath>
  </defs>
  <sodipodi:namedview
     id="base"
     pagecolor="#ffffff"
     bordercolor="#666666"
     borderopacity="1.0"
     inkscape:pageopacity="0.0"
     inkscape:pageshadow="2"
     inkscape:zoom="0.35"
     inkscape:cx="595.88225"
     inkscape:cy="-14.712983"
     inkscape:document-units="px"
     inkscape:current-layer="layer1"
     showgrid="false"
     fit-margin-top="0"
     fit-margin-left="0"
     fit-margin-right="0"
     fit-margin-bottom="0"
     inkscape:window-width="499"
     inkscape:window-height="442"
     inkscape:window-x="2040"
     inkscape:window-y="120"
     inkscape:window-maximized="0" />
  <metadata
     id="metadata3321">
    <rdf:RDF>
      <cc:Work
         rdf:about="">
        <dc:format>image/svg+xml</dc:format>
        <dc:type
           rdf:resource="http://purl.org/dc/dcmitype/StillImage" />
        <dc:title></dc:title>
      </cc:Work>
    </rdf:RDF>
  </metadata>
  <g
     inkscape:label="Layer 1"
     inkscape:groupmode="layer"
     id="layer1"
     transform="translate(220.88225,-232.78945)">
    <g
       id="g3340"
       transform="translate(-352.69475,142.83374)">
      <path
         id="path3342"
         d="m 284.85975,284.85975 1.24939,0 0,88.70633 -1.24939,0 0,-88.70633 z"
         style="fill:#a0a0a0;fill-opacity:1;fill-rule:evenodd;stroke:none"
         inkscape:connector-curvature="0" />
      <path
         id="path3344"
         d="m 284.85975,284.85975 88.70633,0 0,1.24939 -88.70633,0 0,-1.24939 z"
         style="fill:#a0a0a0;fill-opacity:1;fill-rule:evenodd;stroke:none"
         inkscape:connector-curvature="0" />
      <path
         id="path3346"
         d="m 284.85975,373.56608 88.70633,0 0,1.24938 -88.70633,0 0,-1.24938 z"
         style="fill:#a0a0a0;fill-opacity:1;fill-rule:evenodd;stroke:none"
         inkscape:connector-curvature="0" />
      <path
         id="path3348"
         d="m 373.56608,284.85975 1.24938,0 0,89.95571 -1.24938,0 0,-89.95571 z"
         style="fill:#a0a0a0;fill-opacity:1;fill-rule:evenodd;stroke:none"
         inkscape:connector-curvature="0" />
      <path
         id="path3350"
         d="m 286.10914,286.10914 1.24938,0 0,86.20755 -1.24938,0 0,-86.20755 z"
         style="fill:#a0a0a0;fill-opacity:1;fill-rule:evenodd;stroke:none"
         inkscape:connector-curvature="0" />
      <path
         id="path3352"
         d="m 286.10914,286.10914 86.20755,0 0,1.24938 -86.20755,0 0,-1.24938 z"
         style="fill:#a0a0a0;fill-opacity:1;fill-rule:evenodd;stroke:none"
         inkscape:connector-curvature="0" />
      <path
         id="path3354"
         d="m 286.10914,372.31669 86.20755,0 0,1.24939 -86.20755,0 0,-1.24939 z"
         style="fill:#a0a0a0;fill-opacity:1;fill-rule:evenodd;stroke:none"
         inkscape:connector-curvature="0" />
      <path
         id="path3356"
         d="m 372.31669,286.10914 1.24939,0 0,87.45694 -1.24939,0 0,-87.45694 z"
         style="fill:#a0a0a0;fill-opacity:1;fill-rule:evenodd;stroke:none"
         inkscape:connector-curvature="0" />
      <path
         id="path3358"
         d="m 286.10914,286.10914 1.24938,0 0,86.20755 -1.24938,0 0,-86.20755 z"
         style="fill:#a0a0a0;fill-opacity:1;fill-rule:evenodd;stroke:none"
         inkscape:connector-curvature="0" />
      <path
         id="path3360"
         d="m 286.10914,286.10914 86.20755,0 0,1.24938 -86.20755,0 0,-1.24938 z"
         style="fill:#a0a0a0;fill-opacity:1;fill-rule:evenodd;stroke:none"
         inkscape:connector-curvature="0" />
      <path
         id="path3362"
         d="m 286.10914,372.31669 86.20755,0 0,1.24939 -86.20755,0 0,-1.24939 z"
         style="fill:#ffffff;fill-opacity:1;fill-rule:evenodd;stroke:none"
         inkscape:connector-curvature="0" />
      <path
         id="path3364"
         d="m 372.31669,286.10914 1.24939,0 0,87.45694 -1.24939,0 0,-87.45694 z"
         style="fill:#ffffff;fill-opacity:1;fill-rule:evenodd;stroke:none"
         inkscape:connector-curvature="0" />
      <path
         id="path3366"
         d="m 287.35852,287.35852 1.24939,0 0,83.70879 -1.24939,0 0,-83.70879 z"
         style="fill:#696969;fill-opacity:1;fill-rule:evenodd;stroke:none"
         inkscape:connector-curvature="0" />
      <path
         id="path3368"
         d="m 287.35852,287.35852 83.70879,0 0,1.24939 -83.70879,0 0,-1.24939 z"
         style="fill:#696969;fill-opacity:1;fill-rule:evenodd;stroke:none"
         inkscape:connector-curvature="0" />
      <path
         id="path3370"
         d="m 287.35852,371.06731 83.70879,0 0,1.24938 -83.70879,0 0,-1.24938 z"
         style="fill:#ffffff;fill-opacity:1;fill-rule:evenodd;stroke:none"
         inkscape:connector-curvature="0" />
      <path
         id="path3372"
         d="m 371.06731,287.35852 1.24938,0 0,84.95817 -1.24938,0 0,-84.95817 z"
         style="fill:#ffffff;fill-opacity:1;fill-rule:evenodd;stroke:none"
         inkscape:connector-curvature="0" />
      <path
         id="path3374"
         d="m 288.60791,288.60791 82.4594,0 0,82.4594 -82.4594,0 0,-82.4594 z"
         style="fill:#f0f0f5;fill-opacity:1;fill-rule:evenodd;stroke:none"
         inkscape:connector-curvature="0" />
      <path
         id="path3376"
         d="m 297.3536,362.32162 64.96802,0 0,-64.96802 -64.96802,0 0,64.96802 z"
         style="fill:#ffffff;fill-opacity:1;fill-rule:evenodd;stroke:#0000ff;stroke-width:1.24938488px;stroke-linecap:round;stroke-linejoin:round;stroke-opacity:1;stroke-dasharray:none"
         inkscape:connector-curvature="0" />
      <path
         id="path3378"
         d="M 298.65295,322.04146"
         clip-path="url(#clipEmfPath1)"
         style="fill:none;stroke:#0000ff;stroke-width:1.24938488px;stroke-linecap:round;stroke-linejoin:round;stroke-opacity:1;stroke-dasharray:none"
         inkscape:connector-curvature="0" />
      <text
         id="text3380"
         style="font-size:13.74323368px;font-style:normal;font-weight:normal;text-align:start;text-anchor:start;fill:#0000ff;font-family:Arial"
         y="339.21204"
         x="314.89496"
         xml:space="preserve">plant</text>
      <path
         id="path3382"
         d="M 298.65295,322.04146"
         style="fill:none;stroke:#0000ff;stroke-width:1.24938488px;stroke-linecap:round;stroke-linejoin:round;stroke-opacity:1;stroke-dasharray:none"
         inkscape:connector-curvature="0" />
      <path
         id="path3384"
         d="m 154.92373,284.85975 1.24938,0 0,88.70633 -1.24938,0 0,-88.70633 z"
         style="fill:#a0a0a0;fill-opacity:1;fill-rule:evenodd;stroke:none"
         inkscape:connector-curvature="0" />
      <path
         id="path3386"
         d="m 154.92373,284.85975 88.70632,0 0,1.24939 -88.70632,0 0,-1.24939 z"
         style="fill:#a0a0a0;fill-opacity:1;fill-rule:evenodd;stroke:none"
         inkscape:connector-curvature="0" />
      <path
         id="path3388"
         d="m 154.92373,373.56608 88.70632,0 0,1.24938 -88.70632,0 0,-1.24938 z"
         style="fill:#a0a0a0;fill-opacity:1;fill-rule:evenodd;stroke:none"
         inkscape:connector-curvature="0" />
      <path
         id="path3390"
         d="m 243.63005,284.85975 1.24939,0 0,89.95571 -1.24939,0 0,-89.95571 z"
         style="fill:#a0a0a0;fill-opacity:1;fill-rule:evenodd;stroke:none"
         inkscape:connector-curvature="0" />
      <path
         id="path3392"
         d="m 156.17311,286.10914 1.24938,0 0,86.20755 -1.24938,0 0,-86.20755 z"
         style="fill:#a0a0a0;fill-opacity:1;fill-rule:evenodd;stroke:none"
         inkscape:connector-curvature="0" />
      <path
         id="path3394"
         d="m 156.17311,286.10914 86.20756,0 0,1.24938 -86.20756,0 0,-1.24938 z"
         style="fill:#a0a0a0;fill-opacity:1;fill-rule:evenodd;stroke:none"
         inkscape:connector-curvature="0" />
      <path
         id="path3396"
         d="m 156.17311,372.31669 86.20756,0 0,1.24939 -86.20756,0 0,-1.24939 z"
         style="fill:#a0a0a0;fill-opacity:1;fill-rule:evenodd;stroke:none"
         inkscape:connector-curvature="0" />
      <path
         id="path3398"
         d="m 242.38067,286.10914 1.24938,0 0,87.45694 -1.24938,0 0,-87.45694 z"
         style="fill:#a0a0a0;fill-opacity:1;fill-rule:evenodd;stroke:none"
         inkscape:connector-curvature="0" />
      <path
         id="path3400"
         d="m 156.17311,286.10914 1.24938,0 0,86.20755 -1.24938,0 0,-86.20755 z"
         style="fill:#a0a0a0;fill-opacity:1;fill-rule:evenodd;stroke:none"
         inkscape:connector-curvature="0" />
      <path
         id="path3402"
         d="m 156.17311,286.10914 86.20756,0 0,1.24938 -86.20756,0 0,-1.24938 z"
         style="fill:#a0a0a0;fill-opacity:1;fill-rule:evenodd;stroke:none"
         inkscape:connector-curvature="0" />
      <path
         id="path3404"
         d="m 156.17311,372.31669 86.20756,0 0,1.24939 -86.20756,0 0,-1.24939 z"
         style="fill:#ffffff;fill-opacity:1;fill-rule:evenodd;stroke:none"
         inkscape:connector-curvature="0" />
      <path
         id="path3406"
         d="m 242.38067,286.10914 1.24938,0 0,87.45694 -1.24938,0 0,-87.45694 z"
         style="fill:#ffffff;fill-opacity:1;fill-rule:evenodd;stroke:none"
         inkscape:connector-curvature="0" />
      <path
         id="path3408"
         d="m 157.42249,287.35852 1.24939,0 0,83.70879 -1.24939,0 0,-83.70879 z"
         style="fill:#696969;fill-opacity:1;fill-rule:evenodd;stroke:none"
         inkscape:connector-curvature="0" />
      <path
         id="path3410"
         d="m 157.42249,287.35852 83.70879,0 0,1.24939 -83.70879,0 0,-1.24939 z"
         style="fill:#696969;fill-opacity:1;fill-rule:evenodd;stroke:none"
         inkscape:connector-curvature="0" />
      <path
         id="path3412"
         d="m 157.42249,371.06731 83.70879,0 0,1.24938 -83.70879,0 0,-1.24938 z"
         style="fill:#ffffff;fill-opacity:1;fill-rule:evenodd;stroke:none"
         inkscape:connector-curvature="0" />
      <path
         id="path3414"
         d="m 241.13128,287.35852 1.24939,0 0,84.95817 -1.24939,0 0,-84.95817 z"
         style="fill:#ffffff;fill-opacity:1;fill-rule:evenodd;stroke:none"
         inkscape:connector-curvature="0" />
      <path
         id="path3416"
         d="m 158.67188,288.60791 82.4594,0 0,82.4594 -82.4594,0 0,-82.4594 z"
         style="fill:#f0f0f5;fill-opacity:1;fill-rule:evenodd;stroke:none"
         inkscape:connector-curvature="0" />
      <path
         id="path3418"
         d="m 167.41757,362.32162 64.96802,0 0,-64.96802 -64.96802,0 0,64.96802 z"
         style="fill:#ffffff;fill-opacity:1;fill-rule:evenodd;stroke:#0000ff;stroke-width:1.24938488px;stroke-linecap:round;stroke-linejoin:round;stroke-opacity:1;stroke-dasharray:none"
         inkscape:connector-curvature="0" />
      <path
         id="path3420"
         d="M 168.71693,322.04146"
         clip-path="url(#clipEmfPath2)"
         style="fill:none;stroke:#0000ff;stroke-width:1.24938488px;stroke-linecap:round;stroke-linejoin:round;stroke-opacity:1;stroke-dasharray:none"
         inkscape:connector-curvature="0" />
      <text
         id="text3422"
         style="font-size:13.74323368px;font-style:normal;font-weight:normal;text-align:start;text-anchor:start;fill:#0000ff;font-family:Arial"
         y="339.21204"
         x="173.71448"
         xml:space="preserve">actuator</text>
      <path
         id="path3424"
         d="M 168.71693,322.04146"
         style="fill:none;stroke:#0000ff;stroke-width:1.24938488px;stroke-linecap:round;stroke-linejoin:round;stroke-opacity:1;stroke-dasharray:none"
         inkscape:connector-curvature="0" />
      <path
         id="path3426"
         d="m 284.85975,89.955711 1.24939,0 0,88.706329 -1.24939,0 0,-88.706329 z"
         style="fill:#a0a0a0;fill-opacity:1;fill-rule:evenodd;stroke:none"
         inkscape:connector-curvature="0" />
      <path
         id="path3428"
         d="m 284.85975,89.955711 88.70633,0 0,1.249385 -88.70633,0 0,-1.249385 z"
         style="fill:#a0a0a0;fill-opacity:1;fill-rule:evenodd;stroke:none"
         inkscape:connector-curvature="0" />
      <path
         id="path3430"
         d="m 284.85975,178.66204 88.70633,0 0,1.24938 -88.70633,0 0,-1.24938 z"
         style="fill:#a0a0a0;fill-opacity:1;fill-rule:evenodd;stroke:none"
         inkscape:connector-curvature="0" />
      <path
         id="path3432"
         d="m 373.56608,89.955711 1.24938,0 0,89.955709 -1.24938,0 0,-89.955709 z"
         style="fill:#a0a0a0;fill-opacity:1;fill-rule:evenodd;stroke:none"
         inkscape:connector-curvature="0" />
      <path
         id="path3434"
         d="m 286.10914,91.205096 1.24938,0 0,86.207554 -1.24938,0 0,-86.207554 z"
         style="fill:#a0a0a0;fill-opacity:1;fill-rule:evenodd;stroke:none"
         inkscape:connector-curvature="0" />
      <path
         id="path3436"
         d="m 286.10914,91.205096 86.20755,0 0,1.249385 -86.20755,0 0,-1.249385 z"
         style="fill:#a0a0a0;fill-opacity:1;fill-rule:evenodd;stroke:none"
         inkscape:connector-curvature="0" />
      <path
         id="path3438"
         d="m 286.10914,177.41265 86.20755,0 0,1.24939 -86.20755,0 0,-1.24939 z"
         style="fill:#a0a0a0;fill-opacity:1;fill-rule:evenodd;stroke:none"
         inkscape:connector-curvature="0" />
      <path
         id="path3440"
         d="m 372.31669,91.205096 1.24939,0 0,87.456944 -1.24939,0 0,-87.456944 z"
         style="fill:#a0a0a0;fill-opacity:1;fill-rule:evenodd;stroke:none"
         inkscape:connector-curvature="0" />
      <path
         id="path3442"
         d="m 286.10914,91.205096 1.24938,0 0,86.207554 -1.24938,0 0,-86.207554 z"
         style="fill:#a0a0a0;fill-opacity:1;fill-rule:evenodd;stroke:none"
         inkscape:connector-curvature="0" />
      <path
         id="path3444"
         d="m 286.10914,91.205096 86.20755,0 0,1.249385 -86.20755,0 0,-1.249385 z"
         style="fill:#a0a0a0;fill-opacity:1;fill-rule:evenodd;stroke:none"
         inkscape:connector-curvature="0" />
      <path
         id="path3446"
         d="m 286.10914,177.41265 86.20755,0 0,1.24939 -86.20755,0 0,-1.24939 z"
         style="fill:#ffffff;fill-opacity:1;fill-rule:evenodd;stroke:none"
         inkscape:connector-curvature="0" />
      <path
         id="path3448"
         d="m 372.31669,91.205096 1.24939,0 0,87.456944 -1.24939,0 0,-87.456944 z"
         style="fill:#ffffff;fill-opacity:1;fill-rule:evenodd;stroke:none"
         inkscape:connector-curvature="0" />
      <path
         id="path3450"
         d="m 287.35852,92.454481 1.24939,0 0,83.708789 -1.24939,0 0,-83.708789 z"
         style="fill:#696969;fill-opacity:1;fill-rule:evenodd;stroke:none"
         inkscape:connector-curvature="0" />
      <path
         id="path3452"
         d="m 287.35852,92.454481 83.70879,0 0,1.249385 -83.70879,0 0,-1.249385 z"
         style="fill:#696969;fill-opacity:1;fill-rule:evenodd;stroke:none"
         inkscape:connector-curvature="0" />
      <path
         id="path3454"
         d="m 287.35852,176.16327 83.70879,0 0,1.24938 -83.70879,0 0,-1.24938 z"
         style="fill:#ffffff;fill-opacity:1;fill-rule:evenodd;stroke:none"
         inkscape:connector-curvature="0" />
      <path
         id="path3456"
         d="m 371.06731,92.454481 1.24938,0 0,84.958169 -1.24938,0 0,-84.958169 z"
         style="fill:#ffffff;fill-opacity:1;fill-rule:evenodd;stroke:none"
         inkscape:connector-curvature="0" />
      <path
         id="path3458"
         d="m 288.60791,93.703866 82.4594,0 0,82.459404 -82.4594,0 0,-82.459404 z"
         style="fill:#f0f0f5;fill-opacity:1;fill-rule:evenodd;stroke:none"
         inkscape:connector-curvature="0" />
      <path
         id="path3460"
         d="m 297.3536,167.41757 64.96802,0 0,-64.96801 -64.96802,0 0,64.96801 z"
         style="fill:#ffffff;fill-opacity:1;fill-rule:evenodd;stroke:#0000ff;stroke-width:1.24938488px;stroke-linecap:round;stroke-linejoin:round;stroke-opacity:1;stroke-dasharray:none"
         inkscape:connector-curvature="0" />
      <path
         id="path3462"
         d="M 298.65295,127.13741"
         clip-path="url(#clipEmfPath3)"
         style="fill:none;stroke:#0000ff;stroke-width:1.24938488px;stroke-linecap:round;stroke-linejoin:round;stroke-opacity:1;stroke-dasharray:none"
         inkscape:connector-curvature="0" />
      <text
         id="text3464"
         style="font-size:13.74323368px;font-style:normal;font-weight:normal;text-align:start;text-anchor:start;fill:#0000ff;font-family:Arial"
         y="144.308"
         x="301.15173"
         xml:space="preserve">controller</text>
      <path
         id="path3466"
         d="M 298.65295,127.13741"
         style="fill:none;stroke:#0000ff;stroke-width:1.24938488px;stroke-linecap:round;stroke-linejoin:round;stroke-opacity:1;stroke-dasharray:none"
         inkscape:connector-curvature="0" />
      <path
         id="path3468"
         d="m 414.79578,284.85975 1.24939,0 0,88.70633 -1.24939,0 0,-88.70633 z"
         style="fill:#a0a0a0;fill-opacity:1;fill-rule:evenodd;stroke:none"
         inkscape:connector-curvature="0" />
      <path
         id="path3470"
         d="m 414.79578,284.85975 88.70633,0 0,1.24939 -88.70633,0 0,-1.24939 z"
         style="fill:#a0a0a0;fill-opacity:1;fill-rule:evenodd;stroke:none"
         inkscape:connector-curvature="0" />
      <path
         id="path3472"
         d="m 414.79578,373.56608 88.70633,0 0,1.24938 -88.70633,0 0,-1.24938 z"
         style="fill:#a0a0a0;fill-opacity:1;fill-rule:evenodd;stroke:none"
         inkscape:connector-curvature="0" />
      <path
         id="path3474"
         d="m 503.50211,284.85975 1.24938,0 0,89.95571 -1.24938,0 0,-89.95571 z"
         style="fill:#a0a0a0;fill-opacity:1;fill-rule:evenodd;stroke:none"
         inkscape:connector-curvature="0" />
      <path
         id="path3476"
         d="m 416.04517,286.10914 1.24938,0 0,86.20755 -1.24938,0 0,-86.20755 z"
         style="fill:#a0a0a0;fill-opacity:1;fill-rule:evenodd;stroke:none"
         inkscape:connector-curvature="0" />
      <path
         id="path3478"
         d="m 416.04517,286.10914 86.20755,0 0,1.24938 -86.20755,0 0,-1.24938 z"
         style="fill:#a0a0a0;fill-opacity:1;fill-rule:evenodd;stroke:none"
         inkscape:connector-curvature="0" />
      <path
         id="path3480"
         d="m 416.04517,372.31669 86.20755,0 0,1.24939 -86.20755,0 0,-1.24939 z"
         style="fill:#a0a0a0;fill-opacity:1;fill-rule:evenodd;stroke:none"
         inkscape:connector-curvature="0" />
      <path
         id="path3482"
         d="m 502.25272,286.10914 1.24939,0 0,87.45694 -1.24939,0 0,-87.45694 z"
         style="fill:#a0a0a0;fill-opacity:1;fill-rule:evenodd;stroke:none"
         inkscape:connector-curvature="0" />
      <path
         id="path3484"
         d="m 416.04517,286.10914 1.24938,0 0,86.20755 -1.24938,0 0,-86.20755 z"
         style="fill:#a0a0a0;fill-opacity:1;fill-rule:evenodd;stroke:none"
         inkscape:connector-curvature="0" />
      <path
         id="path3486"
         d="m 416.04517,286.10914 86.20755,0 0,1.24938 -86.20755,0 0,-1.24938 z"
         style="fill:#a0a0a0;fill-opacity:1;fill-rule:evenodd;stroke:none"
         inkscape:connector-curvature="0" />
      <path
         id="path3488"
         d="m 416.04517,372.31669 86.20755,0 0,1.24939 -86.20755,0 0,-1.24939 z"
         style="fill:#ffffff;fill-opacity:1;fill-rule:evenodd;stroke:none"
         inkscape:connector-curvature="0" />
      <path
         id="path3490"
         d="m 502.25272,286.10914 1.24939,0 0,87.45694 -1.24939,0 0,-87.45694 z"
         style="fill:#ffffff;fill-opacity:1;fill-rule:evenodd;stroke:none"
         inkscape:connector-curvature="0" />
      <path
         id="path3492"
         d="m 417.29455,287.35852 1.24938,0 0,83.70879 -1.24938,0 0,-83.70879 z"
         style="fill:#696969;fill-opacity:1;fill-rule:evenodd;stroke:none"
         inkscape:connector-curvature="0" />
      <path
         id="path3494"
         d="m 417.29455,287.35852 83.70879,0 0,1.24939 -83.70879,0 0,-1.24939 z"
         style="fill:#696969;fill-opacity:1;fill-rule:evenodd;stroke:none"
         inkscape:connector-curvature="0" />
      <path
         id="path3496"
         d="m 417.29455,371.06731 83.70879,0 0,1.24938 -83.70879,0 0,-1.24938 z"
         style="fill:#ffffff;fill-opacity:1;fill-rule:evenodd;stroke:none"
         inkscape:connector-curvature="0" />
      <path
         id="path3498"
         d="m 501.00334,287.35852 1.24938,0 0,84.95817 -1.24938,0 0,-84.95817 z"
         style="fill:#ffffff;fill-opacity:1;fill-rule:evenodd;stroke:none"
         inkscape:connector-curvature="0" />
      <path
         id="path3500"
         d="m 418.54393,288.60791 82.45941,0 0,82.4594 -82.45941,0 0,-82.4594 z"
         style="fill:#f0f0f5;fill-opacity:1;fill-rule:evenodd;stroke:none"
         inkscape:connector-curvature="0" />
      <path
         id="path3502"
         d="m 427.28963,362.32162 64.96801,0 0,-64.96802 -64.96801,0 0,64.96802 z"
         style="fill:#ffffff;fill-opacity:1;fill-rule:evenodd;stroke:#0000ff;stroke-width:1.24938488px;stroke-linecap:round;stroke-linejoin:round;stroke-opacity:1;stroke-dasharray:none"
         inkscape:connector-curvature="0" />
      <path
         id="path3504"
         d="M 428.589,322.04146"
         clip-path="url(#clipEmfPath4)"
         style="fill:none;stroke:#0000ff;stroke-width:1.24938488px;stroke-linecap:round;stroke-linejoin:round;stroke-opacity:1;stroke-dasharray:none"
         inkscape:connector-curvature="0" />
      <text
         id="text3506"
         style="font-size:13.74323368px;font-style:normal;font-weight:normal;text-align:start;text-anchor:start;fill:#0000ff;font-family:Arial"
         y="339.21204"
         x="437.33469"
         xml:space="preserve">sensor</text>
      <path
         id="path3508"
         d="M 428.589,322.04146"
         style="fill:none;stroke:#0000ff;stroke-width:1.24938488px;stroke-linecap:round;stroke-linejoin:round;stroke-opacity:1;stroke-dasharray:none"
         inkscape:connector-curvature="0" />
      <path
         id="path3510"
         d="m 232.38559,329.83761 64.96801,0"
         style="fill:none;stroke:#ffffff;stroke-width:6.2469244px;stroke-linecap:round;stroke-linejoin:round;stroke-opacity:1;stroke-dasharray:none"
         inkscape:connector-curvature="0" />
      <path
         id="path3512"
         d="m 232.38559,329.83761 64.96801,0"
         style="fill:none;stroke:#bf0000;stroke-width:1.24938488px;stroke-linecap:round;stroke-linejoin:round;stroke-opacity:1;stroke-dasharray:none"
         inkscape:connector-curvature="0" />
      <path
         id="path3514"
         d="m 329.83761,167.41757 0,71.21494 -194.90404,0 0,91.2051 32.484,0"
         style="fill:none;stroke:#ffffff;stroke-width:6.2469244px;stroke-linecap:round;stroke-linejoin:round;stroke-opacity:1;stroke-dasharray:none"
         inkscape:connector-curvature="0" />
      <path
         id="path3516"
         d="m 329.83761,167.41757 0,71.21494 -194.90404,0 0,91.2051 32.484,0"
         style="fill:none;stroke:#000000;stroke-width:1.24938488px;stroke-linecap:round;stroke-linejoin:round;stroke-opacity:1;stroke-dasharray:none"
         inkscape:connector-curvature="0" />
      <path
         id="path3518"
         d="m 427.28963,329.83761 -64.96801,0"
         style="fill:none;stroke:#ffffff;stroke-width:6.2469244px;stroke-linecap:round;stroke-linejoin:round;stroke-opacity:1;stroke-dasharray:none"
         inkscape:connector-curvature="0" />
      <path
         id="path3520"
         d="m 427.28963,329.83761 -64.96801,0"
         style="fill:none;stroke:#bf0000;stroke-width:1.24938488px;stroke-linecap:round;stroke-linejoin:round;stroke-opacity:1;stroke-dasharray:none"
         inkscape:connector-curvature="0" />
      <path
         id="path3522"
         d="m 492.25764,329.83761 32.48401,0 0,-91.2051 -194.90404,0 0,-71.21494"
         style="fill:none;stroke:#ffffff;stroke-width:6.2469244px;stroke-linecap:round;stroke-linejoin:round;stroke-opacity:1;stroke-dasharray:none"
         inkscape:connector-curvature="0" />
      <path
         id="path3524"
         d="m 492.25764,329.83761 32.48401,0 0,-91.2051 -194.90404,0 0,-71.21494"
         style="fill:none;stroke:#000000;stroke-width:1.24938488px;stroke-linecap:round;stroke-linejoin:round;stroke-opacity:1;stroke-dasharray:none"
         inkscape:connector-curvature="0" />
      <path
         id="path3526"
         d="m 333.58576,238.63251 0,1.24939 -1.24938,1.24938 -1.24939,1.24939 -1.24938,0 -2.49877,0 -1.24939,-1.24939 -1.24938,-1.24938 0,-1.24939 0,-2.49877 1.24938,-1.24938 1.24939,-1.24939 2.49877,0 1.24938,0 1.24939,1.24939 1.24938,1.24938 0,2.49877 z"
         style="fill:#000000;fill-opacity:1;fill-rule:evenodd;stroke:#000000;stroke-width:1.24938488px;stroke-linecap:round;stroke-linejoin:round;stroke-opacity:1;stroke-dasharray:none"
         inkscape:connector-curvature="0" />
      <path
         id="path3528"
         d="m 358.57346,326.08945 0,7.49631 7.49631,0 0,-7.49631 -7.49631,0 z"
         style="fill:#bf0000;fill-opacity:1;fill-rule:evenodd;stroke:#bf0000;stroke-width:1.24938488px;stroke-linecap:round;stroke-linejoin:round;stroke-opacity:1;stroke-dasharray:none"
         inkscape:connector-curvature="0" />
      <path
         id="path3530"
         d="m 293.60545,326.08945 0,7.49631 7.49631,0 0,-7.49631 -7.49631,0 z"
         style="fill:#ffffff;fill-opacity:1;fill-rule:evenodd;stroke:#bf0000;stroke-width:1.24938488px;stroke-linecap:round;stroke-linejoin:round;stroke-opacity:1;stroke-dasharray:none"
         inkscape:connector-curvature="0" />
      <path
         id="path3532"
         d="m 228.63743,326.08945 0,7.49631 7.49631,0 0,-7.49631 -7.49631,0 z"
         style="fill:#ffffff;fill-opacity:1;fill-rule:evenodd;stroke:#bf0000;stroke-width:1.24938488px;stroke-linecap:round;stroke-linejoin:round;stroke-opacity:1;stroke-dasharray:none"
         inkscape:connector-curvature="0" />
      <path
         id="path3534"
         d="m 171.16573,329.83761 0,0 0,1.24938 0,0 -1.24939,1.24939 0,0 0,0 -1.24938,1.24938 0,0 -1.24939,0 0,0 0,0 -1.24938,0 0,0 -1.24939,-1.24938 0,0 0,0 -1.24938,-1.24939 0,0 0,-1.24938 0,0 0,0 0,-1.24939 0,0 1.24938,-1.24938 0,0 0,0 1.24939,-1.24939 0,0 1.24938,0 0,0 0,0 1.24939,0 0,0 1.24938,1.24939 0,0 0,0 1.24939,1.24938 0,0 0,1.24939 0,0 z"
         style="fill:#d7d7d7;fill-opacity:1;fill-rule:evenodd;stroke:#000000;stroke-width:1.24938488px;stroke-linecap:round;stroke-linejoin:round;stroke-opacity:1;stroke-dasharray:none"
         inkscape:connector-curvature="0" />
      <path
         id="path3536"
         d="m 168.66696,331.08699 0,-2.49877"
         style="fill:none;stroke:#000000;stroke-width:2.49876976px;stroke-linecap:round;stroke-linejoin:round;stroke-opacity:1;stroke-dasharray:1, 1;stroke-dashoffset:0"
         inkscape:connector-curvature="0" />
      <path
         id="path3538"
         d="m 166.16819,328.58822 0,2.49877"
         style="fill:none;stroke:#000000;stroke-width:2.49876976px;stroke-linecap:round;stroke-linejoin:round;stroke-opacity:1;stroke-dasharray:1, 1;stroke-dashoffset:0"
         inkscape:connector-curvature="0" />
      <path
         id="path3540"
         d="m 166.16819,331.08699 0,0 0,0 0,0 z"
         style="fill:#000000;fill-opacity:1;fill-rule:evenodd;stroke:#000000;stroke-width:1.24938488px;stroke-linecap:round;stroke-linejoin:round;stroke-opacity:1;stroke-dasharray:none"
         inkscape:connector-curvature="0" />
      <path
         id="path3542"
         d="m 168.66696,328.58822 0,0 1.24938,0 -1.24938,0 z"
         style="fill:#000000;fill-opacity:1;fill-rule:evenodd;stroke:#000000;stroke-width:1.24938488px;stroke-linecap:round;stroke-linejoin:round;stroke-opacity:1;stroke-dasharray:none"
         inkscape:connector-curvature="0" />
      <path
         id="path3544"
         d="m 333.58576,167.41757 0,0 0,1.24939 0,0 -1.24938,1.24938 0,0 0,0 -1.24939,1.24939 0,0 -1.24938,0 0,0 0,0 -1.24939,0 0,0 -1.24938,-1.24939 0,0 0,0 -1.24939,-1.24938 0,0 0,-1.24939 0,0 0,0 0,-1.24938 0,0 1.24939,-1.24939 0,0 0,0 1.24938,-1.24938 0,0 1.24939,0 0,0 0,0 1.24938,0 0,0 1.24939,1.24938 0,0 0,0 1.24938,1.24939 0,0 0,1.24938 0,0 z"
         style="fill:#d7d7d7;fill-opacity:1;fill-rule:evenodd;stroke:#000000;stroke-width:1.24938488px;stroke-linecap:round;stroke-linejoin:round;stroke-opacity:1;stroke-dasharray:none"
         inkscape:connector-curvature="0" />
      <path
         id="path3546"
         d="m 331.08699,168.66696 0,-2.49877"
         style="fill:none;stroke:#000000;stroke-width:2.49876976px;stroke-linecap:round;stroke-linejoin:round;stroke-opacity:1;stroke-dasharray:1, 1;stroke-dashoffset:0"
         inkscape:connector-curvature="0" />
      <path
         id="path3548"
         d="m 328.58822,166.16819 0,2.49877"
         style="fill:none;stroke:#000000;stroke-width:2.49876976px;stroke-linecap:round;stroke-linejoin:round;stroke-opacity:1;stroke-dasharray:1, 1;stroke-dashoffset:0"
         inkscape:connector-curvature="0" />
      <path
         id="path3550"
         d="m 328.58822,168.66696 0,0 0,0 0,0 z"
         style="fill:#000000;fill-opacity:1;fill-rule:evenodd;stroke:#000000;stroke-width:1.24938488px;stroke-linecap:round;stroke-linejoin:round;stroke-opacity:1;stroke-dasharray:none"
         inkscape:connector-curvature="0" />
      <path
         id="path3552"
         d="m 331.08699,166.16819 0,0 1.24939,0 -1.24939,0 z"
         style="fill:#000000;fill-opacity:1;fill-rule:evenodd;stroke:#000000;stroke-width:1.24938488px;stroke-linecap:round;stroke-linejoin:round;stroke-opacity:1;stroke-dasharray:none"
         inkscape:connector-curvature="0" />
      <path
         id="path3554"
         d="m 423.54147,326.08945 0,7.49631 7.49631,0 0,-7.49631 -7.49631,0 z"
         style="fill:#bf0000;fill-opacity:1;fill-rule:evenodd;stroke:#bf0000;stroke-width:1.24938488px;stroke-linecap:round;stroke-linejoin:round;stroke-opacity:1;stroke-dasharray:none"
         inkscape:connector-curvature="0" />
      <path
         id="path3556"
         d="m 496.0058,329.83761 0,0 0,1.24938 0,0 -1.24939,1.24939 0,0 0,0 -1.24938,1.24938 0,0 -1.24939,0 0,0 0,0 -1.24938,0 0,0 -1.24939,-1.24938 0,0 0,0 -1.24938,-1.24939 0,0 0,-1.24938 0,0 0,0 0,-1.24939 0,0 1.24938,-1.24938 0,0 0,0 1.24939,-1.24939 0,0 1.24938,0 0,0 0,0 1.24939,0 0,0 1.24938,1.24939 0,0 0,0 1.24939,1.24938 0,0 0,1.24939 0,0 z"
         style="fill:#d7d7d7;fill-opacity:1;fill-rule:evenodd;stroke:#000000;stroke-width:1.24938488px;stroke-linecap:round;stroke-linejoin:round;stroke-opacity:1;stroke-dasharray:none"
         inkscape:connector-curvature="0" />
      <path
         id="path3558"
         d="m 493.50703,331.08699 0,-2.49877"
         style="fill:none;stroke:#000000;stroke-width:2.49876976px;stroke-linecap:round;stroke-linejoin:round;stroke-opacity:1;stroke-dasharray:1, 1;stroke-dashoffset:0"
         inkscape:connector-curvature="0" />
      <path
         id="path3560"
         d="m 491.00826,328.58822 0,2.49877"
         style="fill:none;stroke:#000000;stroke-width:2.49876976px;stroke-linecap:round;stroke-linejoin:round;stroke-opacity:1;stroke-dasharray:1, 1;stroke-dashoffset:0"
         inkscape:connector-curvature="0" />
      <path
         id="path3562"
         d="m 491.00826,331.08699 0,0 0,0 0,0 z"
         style="fill:#000000;fill-opacity:1;fill-rule:evenodd;stroke:#000000;stroke-width:1.24938488px;stroke-linecap:round;stroke-linejoin:round;stroke-opacity:1;stroke-dasharray:none"
         inkscape:connector-curvature="0" />
      <path
         id="path3564"
         d="m 493.50703,328.58822 0,0 1.24938,0 -1.24938,0 z"
         style="fill:#000000;fill-opacity:1;fill-rule:evenodd;stroke:#000000;stroke-width:1.24938488px;stroke-linecap:round;stroke-linejoin:round;stroke-opacity:1;stroke-dasharray:none"
         inkscape:connector-curvature="0" />
    </g>
  </g>
</svg>
