<?xml version="1.0" encoding="UTF-8" standalone="no"?>
<svg width="209.197mm" height="261.761mm"
 viewBox="0 0 593 742"
 xmlns="http://www.w3.org/2000/svg" xmlns:xlink="http://www.w3.org/1999/xlink"  version="1.2" baseProfile="tiny">
<title>OMEdit - OpenModelica Connection Editor</title>
<desc>Generated by OMEdit - OpenModelica Connection Editor</desc>
<defs>
</defs>
<g fill="none" stroke="black" stroke-width="1" fill-rule="evenodd" stroke-linecap="square" stroke-linejoin="bevel" >

<g fill="none" stroke="#000000" stroke-opacity="1" stroke-width="1" stroke-linecap="square" stroke-linejoin="bevel" transform="matrix(1,0,0,1,-25,13)"
font-family="Ubuntu" font-size="11" font-weight="400" font-style="normal"
>
</g>

<g fill="none" stroke="#000000" stroke-opacity="1" stroke-width="1" stroke-linecap="square" stroke-linejoin="bevel" transform="matrix(1,0,0,1,-25,13)"
font-family="Ubuntu" font-size="11" font-weight="400" font-style="normal"
>
</g>

<g fill="none" stroke="#000000" stroke-opacity="1" stroke-width="1" stroke-linecap="square" stroke-linejoin="bevel" transform="matrix(1,0,0,1,-25,13)"
font-family="Ubuntu" font-size="11" font-weight="400" font-style="normal"
>
</g>

<g fill="none" stroke="#000000" stroke-opacity="1" stroke-width="1" stroke-linecap="square" stroke-linejoin="bevel" transform="matrix(2.9619,0,0,-2.9619,296,326)"
font-family="Ubuntu" font-size="11" font-weight="400" font-style="normal"
>
</g>

<g fill="none" stroke="#000000" stroke-opacity="1" stroke-width="1" stroke-linecap="square" stroke-linejoin="miter" stroke-miterlimit="2" transform="matrix(2.9619,0,0,2.9619,296,1036.86)"
font-family="" font-size="31.4286" font-weight="400" font-style="normal"
>
<text fill="#000000" fill-opacity="1" stroke="none" xml:space="preserve" x="-59.4844" y="-108.984" font-family="" font-size="31.4286" font-weight="400" font-style="normal"
 >%name</text>
</g>

<g fill="none" stroke="#000000" stroke-opacity="1" stroke-width="1" stroke-linecap="square" stroke-linejoin="bevel" transform="matrix(2.9619,0,0,-2.9619,296,326)"
font-family="Ubuntu" font-size="11" font-weight="400" font-style="normal"
>
</g>

<g fill="none" stroke="#000000" stroke-opacity="1" stroke-width="1" stroke-linecap="square" stroke-linejoin="bevel" transform="matrix(2.9619,0,0,-2.9619,296,326)"
font-family="Ubuntu" font-size="11" font-weight="400" font-style="normal"
>
</g>

<g fill="#ffffff" fill-opacity="1" stroke="#000000" stroke-opacity="1" stroke-width="1" stroke-linecap="square" stroke-linejoin="miter" stroke-miterlimit="2" transform="matrix(2.9619,0,0,-2.9619,296,326)"
font-family="Ubuntu" font-size="11" font-weight="400" font-style="normal"
>
<path vector-effect="non-scaling-stroke" fill-rule="evenodd" d="M-100,-100 L100,-100 L100,100 L-100,100 L-100,-100"/>
</g>

<g fill="none" stroke="#000000" stroke-opacity="1" stroke-width="1" stroke-linecap="square" stroke-linejoin="bevel" transform="matrix(2.9619,0,0,-2.9619,296,326)"
font-family="Ubuntu" font-size="11" font-weight="400" font-style="normal"
>
</g>

<g fill="none" stroke="#000000" stroke-opacity="1" stroke-width="1" stroke-linecap="square" stroke-linejoin="bevel" transform="matrix(2.9619,0,0,-2.9619,296,326)"
font-family="Ubuntu" font-size="11" font-weight="400" font-style="normal"
>
</g>

<g fill="#000000" fill-opacity="1" stroke="#000000" stroke-opacity="1" stroke-width="1" stroke-linecap="square" stroke-linejoin="miter" stroke-miterlimit="2" transform="matrix(2.9619,0,0,2.9619,296,89.0476)"
font-family="Ubuntu" font-size="11" font-weight="400" font-style="normal"
>
<path vector-effect="non-scaling-stroke" fill-rule="evenodd" d="M-20,40 C-20,51.0457 -28.9543,60 -40,60 C-51.0457,60 -60,51.0457 -60,40 C-60,28.9543 -51.0457,20 -40,20 C-28.9543,20 -20,28.9543 -20,40 "/>
</g>

<g fill="none" stroke="#000000" stroke-opacity="1" stroke-width="1" stroke-linecap="square" stroke-linejoin="bevel" transform="matrix(2.9619,0,0,-2.9619,296,326)"
font-family="Ubuntu" font-size="11" font-weight="400" font-style="normal"
>
</g>

<g fill="none" stroke="#000000" stroke-opacity="1" stroke-width="1" stroke-linecap="square" stroke-linejoin="bevel" transform="matrix(2.9619,0,0,-2.9619,296,326)"
font-family="Ubuntu" font-size="11" font-weight="400" font-style="normal"
>
</g>

<g fill="#000000" fill-opacity="1" stroke="#000000" stroke-opacity="1" stroke-width="1" stroke-linecap="square" stroke-linejoin="miter" stroke-miterlimit="2" transform="matrix(2.9619,0,0,-2.9619,296,326)"
font-family="Ubuntu" font-size="11" font-weight="400" font-style="normal"
>
<path vector-effect="non-scaling-stroke" fill-rule="evenodd" d="M-4,28 L4,28 L4,52 L-4,52 L-4,28"/>
</g>

<g fill="none" stroke="#000000" stroke-opacity="1" stroke-width="1" stroke-linecap="square" stroke-linejoin="bevel" transform="matrix(2.9619,0,0,-2.9619,296,326)"
font-family="Ubuntu" font-size="11" font-weight="400" font-style="normal"
>
</g>

<g fill="none" stroke="#000000" stroke-opacity="1" stroke-width="1" stroke-linecap="square" stroke-linejoin="bevel" transform="matrix(2.9619,0,0,-2.9619,296,326)"
font-family="Ubuntu" font-size="11" font-weight="400" font-style="normal"
>
</g>

<g fill="#000000" fill-opacity="1" stroke="#000000" stroke-opacity="1" stroke-width="1" stroke-linecap="square" stroke-linejoin="miter" stroke-miterlimit="2" transform="matrix(2.9619,0,0,-2.9619,296,326)"
font-family="Ubuntu" font-size="11" font-weight="400" font-style="normal"
>
<path vector-effect="non-scaling-stroke" fill-rule="evenodd" d="M-12,36 L12,36 L12,44 L-12,44 L-12,36"/>
</g>

<g fill="none" stroke="#000000" stroke-opacity="1" stroke-width="1" stroke-linecap="square" stroke-linejoin="bevel" transform="matrix(2.9619,0,0,-2.9619,296,326)"
font-family="Ubuntu" font-size="11" font-weight="400" font-style="normal"
>
</g>

<g fill="none" stroke="#000000" stroke-opacity="1" stroke-width="1" stroke-linecap="square" stroke-linejoin="bevel" transform="matrix(2.9619,0,0,-2.9619,296,326)"
font-family="Ubuntu" font-size="11" font-weight="400" font-style="normal"
>
</g>

<g fill="#000000" fill-opacity="1" stroke="#000000" stroke-opacity="1" stroke-width="1" stroke-linecap="square" stroke-linejoin="miter" stroke-miterlimit="2" transform="matrix(2.9619,0,0,2.9619,296,89.0476)"
font-family="Ubuntu" font-size="11" font-weight="400" font-style="normal"
>
<path vector-effect="non-scaling-stroke" fill-rule="evenodd" d="M60,40 C60,51.0457 51.0457,60 40,60 C28.9543,60 20,51.0457 20,40 C20,28.9543 28.9543,20 40,20 C51.0457,20 60,28.9543 60,40 "/>
</g>

<g fill="none" stroke="#000000" stroke-opacity="1" stroke-width="1" stroke-linecap="square" stroke-linejoin="bevel" transform="matrix(2.9619,0,0,-2.9619,296,326)"
font-family="Ubuntu" font-size="11" font-weight="400" font-style="normal"
>
</g>

<g fill="none" stroke="#000000" stroke-opacity="1" stroke-width="1" stroke-linecap="square" stroke-linejoin="bevel" transform="matrix(2.9619,0,0,-2.9619,296,326)"
font-family="Ubuntu" font-size="11" font-weight="400" font-style="normal"
>
</g>

<g fill="#000000" fill-opacity="1" stroke="#000000" stroke-opacity="1" stroke-width="1" stroke-linecap="square" stroke-linejoin="miter" stroke-miterlimit="2" transform="matrix(2.9619,0,0,-2.9619,296,326)"
font-family="Ubuntu" font-size="11" font-weight="400" font-style="normal"
>
<path vector-effect="non-scaling-stroke" fill-rule="evenodd" d="M-12,4 L12,4 L12,12 L-12,12 L-12,4"/>
</g>

<g fill="none" stroke="#000000" stroke-opacity="1" stroke-width="1" stroke-linecap="square" stroke-linejoin="bevel" transform="matrix(2.9619,0,0,-2.9619,296,326)"
font-family="Ubuntu" font-size="11" font-weight="400" font-style="normal"
>
</g>

<g fill="none" stroke="#000000" stroke-opacity="1" stroke-width="1" stroke-linecap="square" stroke-linejoin="bevel" transform="matrix(2.9619,0,0,-2.9619,296,326)"
font-family="Ubuntu" font-size="11" font-weight="400" font-style="normal"
>
</g>

<g fill="#000000" fill-opacity="1" stroke="#000000" stroke-opacity="1" stroke-width="1" stroke-linecap="square" stroke-linejoin="miter" stroke-miterlimit="2" transform="matrix(2.9619,0,0,-2.9619,296,326)"
font-family="Ubuntu" font-size="11" font-weight="400" font-style="normal"
>
<path vector-effect="non-scaling-stroke" fill-rule="evenodd" d="M-12,-12 L12,-12 L12,-4 L-12,-4 L-12,-12"/>
</g>

<g fill="none" stroke="#000000" stroke-opacity="1" stroke-width="1" stroke-linecap="square" stroke-linejoin="bevel" transform="matrix(2.9619,0,0,-2.9619,296,326)"
font-family="Ubuntu" font-size="11" font-weight="400" font-style="normal"
>
</g>

<g fill="none" stroke="#000000" stroke-opacity="1" stroke-width="1" stroke-linecap="square" stroke-linejoin="bevel" transform="matrix(2.9619,0,0,-2.9619,296,326)"
font-family="Ubuntu" font-size="11" font-weight="400" font-style="normal"
>
</g>

<g fill="#000000" fill-opacity="1" stroke="#000000" stroke-opacity="1" stroke-width="1" stroke-linecap="square" stroke-linejoin="miter" stroke-miterlimit="2" transform="matrix(2.9619,0,0,2.9619,296,562.952)"
font-family="Ubuntu" font-size="11" font-weight="400" font-style="normal"
>
<path vector-effect="non-scaling-stroke" fill-rule="evenodd" d="M-30,-40 C-30,-34.4772 -34.4772,-30 -40,-30 C-45.5228,-30 -50,-34.4772 -50,-40 C-50,-45.5228 -45.5228,-50 -40,-50 C-34.4772,-50 -30,-45.5228 -30,-40 "/>
</g>

<g fill="none" stroke="#000000" stroke-opacity="1" stroke-width="1" stroke-linecap="square" stroke-linejoin="bevel" transform="matrix(2.9619,0,0,-2.9619,296,326)"
font-family="Ubuntu" font-size="11" font-weight="400" font-style="normal"
>
</g>

<g fill="none" stroke="#000000" stroke-opacity="1" stroke-width="1" stroke-linecap="square" stroke-linejoin="bevel" transform="matrix(2.9619,0,0,-2.9619,296,326)"
font-family="Ubuntu" font-size="11" font-weight="400" font-style="normal"
>
</g>

<g fill="#000000" fill-opacity="1" stroke="#000000" stroke-opacity="1" stroke-width="1" stroke-linecap="square" stroke-linejoin="miter" stroke-miterlimit="2" transform="matrix(2.9619,0,0,2.9619,296,562.952)"
font-family="Ubuntu" font-size="11" font-weight="400" font-style="normal"
>
<path vector-effect="non-scaling-stroke" fill-rule="evenodd" d="M10,-40 C10,-34.4772 5.52285,-30 0,-30 C-5.52285,-30 -10,-34.4772 -10,-40 C-10,-45.5228 -5.52285,-50 0,-50 C5.52285,-50 10,-45.5228 10,-40 "/>
</g>

<g fill="none" stroke="#000000" stroke-opacity="1" stroke-width="1" stroke-linecap="square" stroke-linejoin="bevel" transform="matrix(2.9619,0,0,-2.9619,296,326)"
font-family="Ubuntu" font-size="11" font-weight="400" font-style="normal"
>
</g>

<g fill="none" stroke="#000000" stroke-opacity="1" stroke-width="1" stroke-linecap="square" stroke-linejoin="bevel" transform="matrix(2.9619,0,0,-2.9619,296,326)"
font-family="Ubuntu" font-size="11" font-weight="400" font-style="normal"
>
</g>

<g fill="#000000" fill-opacity="1" stroke="#000000" stroke-opacity="1" stroke-width="1" stroke-linecap="square" stroke-linejoin="miter" stroke-miterlimit="2" transform="matrix(2.9619,0,0,2.9619,296,562.952)"
font-family="Ubuntu" font-size="11" font-weight="400" font-style="normal"
>
<path vector-effect="non-scaling-stroke" fill-rule="evenodd" d="M50,-40 C50,-34.4772 45.5228,-30 40,-30 C34.4772,-30 30,-34.4772 30,-40 C30,-45.5228 34.4772,-50 40,-50 C45.5228,-50 50,-45.5228 50,-40 "/>
</g>

<g fill="none" stroke="#000000" stroke-opacity="1" stroke-width="1" stroke-linecap="square" stroke-linejoin="bevel" transform="matrix(2.9619,0,0,-2.9619,296,326)"
font-family="Ubuntu" font-size="11" font-weight="400" font-style="normal"
>
</g>

<g fill="none" stroke="#000000" stroke-opacity="1" stroke-width="1" stroke-linecap="square" stroke-linejoin="bevel" transform="matrix(0.29619,0,0,-0.29619,296,29.8095)"
font-family="Ubuntu" font-size="11" font-weight="400" font-style="normal"
>
</g>

<g fill="none" stroke="#000000" stroke-opacity="1" stroke-width="1" stroke-linecap="square" stroke-linejoin="bevel" transform="matrix(0.29619,0,0,-0.29619,296,29.8095)"
font-family="Ubuntu" font-size="11" font-weight="400" font-style="normal"
>
</g>

<g fill="none" stroke="#000000" stroke-opacity="1" stroke-width="1" stroke-linecap="square" stroke-linejoin="bevel" transform="matrix(0.29619,0,0,-0.29619,296,29.8095)"
font-family="Ubuntu" font-size="11" font-weight="400" font-style="normal"
>
</g>

<g fill="#ffffff" fill-opacity="1" stroke="#007f00" stroke-opacity="1" stroke-width="1" stroke-linecap="square" stroke-linejoin="miter" stroke-miterlimit="2" transform="matrix(0.29619,0,0,-0.29619,296,29.8095)"
font-family="Ubuntu" font-size="11" font-weight="400" font-style="normal"
>
<path vector-effect="non-scaling-stroke" fill-rule="evenodd" d="M-100,-100 L100,-100 L100,100 L-100,100 L-100,-100"/>
</g>

<g fill="none" stroke="#000000" stroke-opacity="1" stroke-width="1" stroke-linecap="square" stroke-linejoin="bevel" transform="matrix(0.29619,0,0,-0.29619,296,29.8095)"
font-family="Ubuntu" font-size="11" font-weight="400" font-style="normal"
>
</g>

<g fill="none" stroke="#000000" stroke-opacity="1" stroke-width="1" stroke-linecap="square" stroke-linejoin="bevel" transform="matrix(0.29619,0,0,-0.29619,296,29.8095)"
font-family="Ubuntu" font-size="11" font-weight="400" font-style="normal"
>
</g>

<g fill="#007f00" fill-opacity="1" stroke="#007f00" stroke-opacity="1" stroke-width="1" stroke-linecap="square" stroke-linejoin="miter" stroke-miterlimit="2" transform="matrix(0.29619,0,0,-0.29619,296,29.8095)"
font-family="Ubuntu" font-size="11" font-weight="400" font-style="normal"
>
<path vector-effect="non-scaling-stroke" fill-rule="evenodd" d="M-60,-60 L60,-60 L60,60 L-60,60 L-60,-60"/>
</g>

<g fill="none" stroke="#000000" stroke-opacity="1" stroke-width="1" stroke-linecap="square" stroke-linejoin="bevel" transform="matrix(0.29619,0,0,-0.29619,296,29.8095)"
font-family="Ubuntu" font-size="11" font-weight="400" font-style="normal"
>
</g>

<g fill="none" stroke="#000000" stroke-opacity="1" stroke-width="1" stroke-linecap="square" stroke-linejoin="bevel" transform="matrix(0.29619,0,0,-0.29619,296,29.8095)"
font-family="Ubuntu" font-size="11" font-weight="400" font-style="normal"
>
</g>

<g fill="none" stroke="#007f00" stroke-opacity="1" stroke-width="1" stroke-linecap="square" stroke-linejoin="miter" stroke-miterlimit="2" transform="matrix(0.29619,0,0,0.29619,296,100.895)"
font-family="TextAlignment.Center)" font-size="31.4286" font-weight="400" font-style="normal"
>
<text fill="#007f00" fill-opacity="1" stroke="none" xml:space="preserve" x="-58.6719" y="-110" font-family="TextAlignment.Center)" font-size="31.4286" font-weight="400" font-style="normal"
 >species</text>
</g>

<g fill="none" stroke="#000000" stroke-opacity="1" stroke-width="1" stroke-linecap="square" stroke-linejoin="bevel" transform="matrix(0.29619,0,0,-0.29619,296,29.8095)"
font-family="Ubuntu" font-size="11" font-weight="400" font-style="normal"
>
</g>

<g fill="none" stroke="#000000" stroke-opacity="1" stroke-width="1" stroke-linecap="square" stroke-linejoin="bevel" transform="matrix(1,0,0,1,266.381,59.4286)"
font-family="Ubuntu" font-size="11" font-weight="400" font-style="normal"
>
</g>

<g fill="#000000" fill-opacity="0" stroke="#000000" stroke-opacity="0" stroke-width="1" stroke-linecap="square" stroke-linejoin="bevel" transform="matrix(1,0,0,1,266.381,59.4286)"
font-family="Ubuntu" font-size="11" font-weight="400" font-style="normal"
>
<path vector-effect="non-scaling-stroke" fill-rule="evenodd" d="M-3,-3 L3,-3 L3,3 L-3,3 L-3,-3"/>
</g>

<g fill="none" stroke="#000000" stroke-opacity="1" stroke-width="1" stroke-linecap="square" stroke-linejoin="bevel" transform="matrix(1,0,0,1,266.381,59.4286)"
font-family="Ubuntu" font-size="11" font-weight="400" font-style="normal"
>
</g>

<g fill="none" stroke="#000000" stroke-opacity="1" stroke-width="1" stroke-linecap="square" stroke-linejoin="bevel" transform="matrix(1,0,0,1,266.381,0.190476)"
font-family="Ubuntu" font-size="11" font-weight="400" font-style="normal"
>
</g>

<g fill="#000000" fill-opacity="0" stroke="#000000" stroke-opacity="0" stroke-width="1" stroke-linecap="square" stroke-linejoin="bevel" transform="matrix(1,0,0,1,266.381,0.190476)"
font-family="Ubuntu" font-size="11" font-weight="400" font-style="normal"
>
<path vector-effect="non-scaling-stroke" fill-rule="evenodd" d="M-3,-3 L3,-3 L3,3 L-3,3 L-3,-3"/>
</g>

<g fill="none" stroke="#000000" stroke-opacity="1" stroke-width="1" stroke-linecap="square" stroke-linejoin="bevel" transform="matrix(1,0,0,1,266.381,0.190476)"
font-family="Ubuntu" font-size="11" font-weight="400" font-style="normal"
>
</g>

<g fill="none" stroke="#000000" stroke-opacity="1" stroke-width="1" stroke-linecap="square" stroke-linejoin="bevel" transform="matrix(1,0,0,1,325.619,0.190476)"
font-family="Ubuntu" font-size="11" font-weight="400" font-style="normal"
>
</g>

<g fill="#000000" fill-opacity="0" stroke="#000000" stroke-opacity="0" stroke-width="1" stroke-linecap="square" stroke-linejoin="bevel" transform="matrix(1,0,0,1,325.619,0.190476)"
font-family="Ubuntu" font-size="11" font-weight="400" font-style="normal"
>
<path vector-effect="non-scaling-stroke" fill-rule="evenodd" d="M-3,-3 L3,-3 L3,3 L-3,3 L-3,-3"/>
</g>

<g fill="none" stroke="#000000" stroke-opacity="1" stroke-width="1" stroke-linecap="square" stroke-linejoin="bevel" transform="matrix(1,0,0,1,325.619,0.190476)"
font-family="Ubuntu" font-size="11" font-weight="400" font-style="normal"
>
</g>

<g fill="none" stroke="#000000" stroke-opacity="1" stroke-width="1" stroke-linecap="square" stroke-linejoin="bevel" transform="matrix(1,0,0,1,325.619,59.4286)"
font-family="Ubuntu" font-size="11" font-weight="400" font-style="normal"
>
</g>

<g fill="#000000" fill-opacity="0" stroke="#000000" stroke-opacity="0" stroke-width="1" stroke-linecap="square" stroke-linejoin="bevel" transform="matrix(1,0,0,1,325.619,59.4286)"
font-family="Ubuntu" font-size="11" font-weight="400" font-style="normal"
>
<path vector-effect="non-scaling-stroke" fill-rule="evenodd" d="M-3,-3 L3,-3 L3,3 L-3,3 L-3,-3"/>
</g>

<g fill="none" stroke="#000000" stroke-opacity="1" stroke-width="1" stroke-linecap="square" stroke-linejoin="bevel" transform="matrix(1,0,0,1,325.619,59.4286)"
font-family="Ubuntu" font-size="11" font-weight="400" font-style="normal"
>
</g>

<g fill="none" stroke="#000000" stroke-opacity="1" stroke-width="1" stroke-linecap="square" stroke-linejoin="bevel" transform="matrix(2.9619,0,0,-2.9619,296,326)"
font-family="Ubuntu" font-size="11" font-weight="400" font-style="normal"
>
</g>

<g fill="none" stroke="#000000" stroke-opacity="0" stroke-width="1" stroke-linecap="square" stroke-linejoin="bevel" transform="matrix(2.9619,0,0,-2.9619,296,326)"
font-family="Ubuntu" font-size="11" font-weight="400" font-style="normal"
>
<polyline fill="none" vector-effect="non-scaling-stroke" points="-2,0 2,0 " />
<polyline fill="none" vector-effect="non-scaling-stroke" points="0,-2 0,2 " />
</g>

<g fill="none" stroke="#000000" stroke-opacity="1" stroke-width="1" stroke-linecap="square" stroke-linejoin="bevel" transform="matrix(2.9619,0,0,-2.9619,296,326)"
font-family="Ubuntu" font-size="11" font-weight="400" font-style="normal"
>
</g>

<g fill="none" stroke="#000000" stroke-opacity="1" stroke-width="1" stroke-linecap="square" stroke-linejoin="bevel" transform="matrix(2.9619,0,0,-2.9619,296,326)"
font-family="Ubuntu" font-size="11" font-weight="400" font-style="normal"
>
</g>

<g fill="none" stroke="#000000" stroke-opacity="0" stroke-dasharray="1,2" stroke-dashoffset="0" stroke-width="1" stroke-linecap="square" stroke-linejoin="bevel" transform="matrix(2.9619,0,0,-2.9619,296,326)"
font-family="Ubuntu" font-size="11" font-weight="400" font-style="normal"
>
</g>

<g fill="none" stroke="#000000" stroke-opacity="1" stroke-width="1" stroke-linecap="square" stroke-linejoin="bevel" transform="matrix(2.9619,0,0,-2.9619,296,326)"
font-family="Ubuntu" font-size="11" font-weight="400" font-style="normal"
>
</g>

<g fill="none" stroke="#000000" stroke-opacity="1" stroke-width="1" stroke-linecap="square" stroke-linejoin="bevel" transform="matrix(1,0,0,1,-25,13)"
font-family="Ubuntu" font-size="11" font-weight="400" font-style="normal"
>
</g>
</g>
</svg>
