<?xml version="1.0" encoding="UTF-8" standalone="no"?>
<svg width="75.8472mm" height="90.6639mm"
 viewBox="0 0 215 257"
 xmlns="http://www.w3.org/2000/svg" xmlns:xlink="http://www.w3.org/1999/xlink"  version="1.2" baseProfile="tiny">
<title>OMEdit - OpenModelica Connection Editor</title>
<desc>Generated by OMEdit - OpenModelica Connection Editor</desc>
<defs>
</defs>
<g fill="none" stroke="black" stroke-width="1" fill-rule="evenodd" stroke-linecap="square" stroke-linejoin="bevel" >

<g fill="none" stroke="#000000" stroke-opacity="1" stroke-width="1" stroke-linecap="square" stroke-linejoin="bevel" transform="matrix(1,0,0,1,-194,-7)"
font-family="Ubuntu" font-size="11" font-weight="400" font-style="normal"
>
</g>

<g fill="none" stroke="#000000" stroke-opacity="1" stroke-width="1" stroke-linecap="square" stroke-linejoin="bevel" transform="matrix(1,0,0,1,-194,-7)"
font-family="Ubuntu" font-size="11" font-weight="400" font-style="normal"
>
</g>

<g fill="none" stroke="#000000" stroke-opacity="1" stroke-width="1" stroke-linecap="square" stroke-linejoin="bevel" transform="matrix(1,0,0,1,-194,-7)"
font-family="Ubuntu" font-size="11" font-weight="400" font-style="normal"
>
</g>

<g fill="none" stroke="#000000" stroke-opacity="1" stroke-width="1" stroke-linecap="square" stroke-linejoin="bevel" transform="matrix(1.06667,0,0,-1.06667,107,107)"
font-family="Ubuntu" font-size="11" font-weight="400" font-style="normal"
>
</g>

<g fill="#55aaff" fill-opacity="1" stroke="#0000ff" stroke-opacity="1" stroke-width="1" stroke-linecap="square" stroke-linejoin="miter" stroke-miterlimit="2" transform="matrix(1.06667,0,0,1.06667,107,107)"
font-family="Ubuntu" font-size="11" font-weight="400" font-style="normal"
>
<path vector-effect="non-scaling-stroke" fill-rule="evenodd" d="M100,0 C100,55.2285 55.2285,100 0,100 C-55.2285,100 -100,55.2285 -100,0 C-100,-55.2285 -55.2285,-100 0,-100 C55.2285,-100 100,-55.2285 100,0 "/>
</g>

<g fill="none" stroke="#000000" stroke-opacity="1" stroke-width="1" stroke-linecap="square" stroke-linejoin="bevel" transform="matrix(1.06667,0,0,-1.06667,107,107)"
font-family="Ubuntu" font-size="11" font-weight="400" font-style="normal"
>
</g>

<g fill="none" stroke="#000000" stroke-opacity="1" stroke-width="1" stroke-linecap="square" stroke-linejoin="bevel" transform="matrix(1.06667,0,0,-1.06667,107,107)"
font-family="Ubuntu" font-size="11" font-weight="400" font-style="normal"
>
</g>

<g fill="#0080ff" fill-opacity="1" stroke="none" transform="matrix(1.06667,0,0,-1.06667,107,107)"
font-family="Ubuntu" font-size="11" font-weight="400" font-style="normal"
>
<path vector-effect="non-scaling-stroke" fill-rule="evenodd" d="M-10,-62 L10,-62 L10,58 L-10,58 L-10,-62"/>
</g>

<g fill="none" stroke="#000000" stroke-opacity="1" stroke-width="1" stroke-linecap="square" stroke-linejoin="bevel" transform="matrix(1.06667,0,0,-1.06667,107,107)"
font-family="Ubuntu" font-size="11" font-weight="400" font-style="normal"
>
</g>

<g fill="none" stroke="#000000" stroke-opacity="1" stroke-width="1" stroke-linecap="square" stroke-linejoin="bevel" transform="matrix(1.06667,0,0,-1.06667,107,107)"
font-family="Ubuntu" font-size="11" font-weight="400" font-style="normal"
>
</g>

<g fill="#0080ff" fill-opacity="1" stroke="none" transform="matrix(1.06667,0,0,-1.06667,107,107)"
font-family="Ubuntu" font-size="11" font-weight="400" font-style="normal"
>
<path vector-effect="non-scaling-stroke" fill-rule="evenodd" d="M-60,-10 L60,-10 L60,10 L-60,10 L-60,-10"/>
</g>

<g fill="none" stroke="#000000" stroke-opacity="1" stroke-width="1" stroke-linecap="square" stroke-linejoin="bevel" transform="matrix(1.06667,0,0,-1.06667,107,107)"
font-family="Ubuntu" font-size="11" font-weight="400" font-style="normal"
>
</g>

<g fill="none" stroke="#000000" stroke-opacity="1" stroke-width="1" stroke-linecap="square" stroke-linejoin="bevel" transform="matrix(1.06667,0,0,-1.06667,107,107)"
font-family="Ubuntu" font-size="11" font-weight="400" font-style="normal"
>
</g>

<g fill="none" stroke="#0000ff" stroke-opacity="1" stroke-width="1" stroke-linecap="square" stroke-linejoin="miter" stroke-miterlimit="2" transform="matrix(1.06667,0,0,1.06667,107,363)"
font-family="" font-size="31.4286" font-weight="400" font-style="normal"
>
<text fill="#0000ff" fill-opacity="1" stroke="none" xml:space="preserve" x="-59.4844" y="-109.062" font-family="" font-size="31.4286" font-weight="400" font-style="normal"
 >%name</text>
</g>

<g fill="none" stroke="#000000" stroke-opacity="1" stroke-width="1" stroke-linecap="square" stroke-linejoin="bevel" transform="matrix(1.06667,0,0,-1.06667,107,107)"
font-family="Ubuntu" font-size="11" font-weight="400" font-style="normal"
>
</g>

<g fill="none" stroke="#000000" stroke-opacity="1" stroke-width="1" stroke-linecap="square" stroke-linejoin="bevel" transform="matrix(1,0,0,1,-194,-7)"
font-family="Ubuntu" font-size="11" font-weight="400" font-style="normal"
>
</g>
</g>
</svg>
