<?xml version="1.0" encoding="utf-8" standalone="no"?>
<!DOCTYPE svg PUBLIC "-//W3C//DTD SVG 1.1//EN"
  "http://www.w3.org/Graphics/SVG/1.1/DTD/svg11.dtd">
<svg xmlns:xlink="http://www.w3.org/1999/xlink" width="397.6075pt" height="325.986375pt" viewBox="0 0 397.6075 325.986375" xmlns="http://www.w3.org/2000/svg" version="1.1">
 <metadata>
  <rdf:RDF xmlns:dc="http://purl.org/dc/elements/1.1/" xmlns:cc="http://creativecommons.org/ns#" xmlns:rdf="http://www.w3.org/1999/02/22-rdf-syntax-ns#">
   <cc:Work>
    <dc:type rdf:resource="http://purl.org/dc/dcmitype/StillImage"/>
    <dc:date>2026-07-02T12:40:01.822383</dc:date>
    <dc:format>image/svg+xml</dc:format>
    <dc:creator>
     <cc:Agent>
      <dc:title>Matplotlib v3.7.2, https://matplotlib.org/</dc:title>
     </cc:Agent>
    </dc:creator>
   </cc:Work>
  </rdf:RDF>
 </metadata>
 <defs>
  <style type="text/css">*{stroke-linejoin: round; stroke-linecap: butt}</style>
 </defs>
 <g id="figure_1">
  <g id="patch_1">
   <path d="M 0 325.986375 
L 397.6075 325.986375 
L 397.6075 0 
L 0 0 
z
" style="fill: #ffffff"/>
  </g>
  <g id="axes_1">
   <g id="patch_2">
    <path d="M 33.2875 288.430125 
L 390.4075 288.430125 
L 390.4075 22.318125 
L 33.2875 22.318125 
z
" style="fill: #ffffff"/>
   </g>
   <g id="matplotlib.axis_1">
    <g id="xtick_1">
     <g id="line2d_1">
      <defs>
       <path id="m39b1b247e2" d="M 0 0 
L 0 3.5 
" style="stroke: #000000; stroke-width: 0.8"/>
      </defs>
      <g>
       <use xlink:href="#m39b1b247e2" x="49.520227" y="288.430125" style="stroke: #000000; stroke-width: 0.8"/>
      </g>
     </g>
     <g id="text_1">
      <!-- 0 -->
      <g transform="translate(46.338977 303.028562) scale(0.1 -0.1)">
       <defs>
        <path id="DejaVuSans-30" d="M 2034 4250 
Q 1547 4250 1301 3770 
Q 1056 3291 1056 2328 
Q 1056 1369 1301 889 
Q 1547 409 2034 409 
Q 2525 409 2770 889 
Q 3016 1369 3016 2328 
Q 3016 3291 2770 3770 
Q 2525 4250 2034 4250 
z
M 2034 4750 
Q 2819 4750 3233 4129 
Q 3647 3509 3647 2328 
Q 3647 1150 3233 529 
Q 2819 -91 2034 -91 
Q 1250 -91 836 529 
Q 422 1150 422 2328 
Q 422 3509 836 4129 
Q 1250 4750 2034 4750 
z
" transform="scale(0.015625)"/>
       </defs>
       <use xlink:href="#DejaVuSans-30"/>
      </g>
     </g>
    </g>
    <g id="xtick_2">
     <g id="line2d_2">
      <g>
       <use xlink:href="#m39b1b247e2" x="114.451136" y="288.430125" style="stroke: #000000; stroke-width: 0.8"/>
      </g>
     </g>
     <g id="text_2">
      <!-- 2 -->
      <g transform="translate(111.269886 303.028562) scale(0.1 -0.1)">
       <defs>
        <path id="DejaVuSans-32" d="M 1228 531 
L 3431 531 
L 3431 0 
L 469 0 
L 469 531 
Q 828 903 1448 1529 
Q 2069 2156 2228 2338 
Q 2531 2678 2651 2914 
Q 2772 3150 2772 3378 
Q 2772 3750 2511 3984 
Q 2250 4219 1831 4219 
Q 1534 4219 1204 4116 
Q 875 4013 500 3803 
L 500 4441 
Q 881 4594 1212 4672 
Q 1544 4750 1819 4750 
Q 2544 4750 2975 4387 
Q 3406 4025 3406 3419 
Q 3406 3131 3298 2873 
Q 3191 2616 2906 2266 
Q 2828 2175 2409 1742 
Q 1991 1309 1228 531 
z
" transform="scale(0.015625)"/>
       </defs>
       <use xlink:href="#DejaVuSans-32"/>
      </g>
     </g>
    </g>
    <g id="xtick_3">
     <g id="line2d_3">
      <g>
       <use xlink:href="#m39b1b247e2" x="179.382045" y="288.430125" style="stroke: #000000; stroke-width: 0.8"/>
      </g>
     </g>
     <g id="text_3">
      <!-- 4 -->
      <g transform="translate(176.200795 303.028562) scale(0.1 -0.1)">
       <defs>
        <path id="DejaVuSans-34" d="M 2419 4116 
L 825 1625 
L 2419 1625 
L 2419 4116 
z
M 2253 4666 
L 3047 4666 
L 3047 1625 
L 3713 1625 
L 3713 1100 
L 3047 1100 
L 3047 0 
L 2419 0 
L 2419 1100 
L 313 1100 
L 313 1709 
L 2253 4666 
z
" transform="scale(0.015625)"/>
       </defs>
       <use xlink:href="#DejaVuSans-34"/>
      </g>
     </g>
    </g>
    <g id="xtick_4">
     <g id="line2d_4">
      <g>
       <use xlink:href="#m39b1b247e2" x="244.312955" y="288.430125" style="stroke: #000000; stroke-width: 0.8"/>
      </g>
     </g>
     <g id="text_4">
      <!-- 6 -->
      <g transform="translate(241.131705 303.028562) scale(0.1 -0.1)">
       <defs>
        <path id="DejaVuSans-36" d="M 2113 2584 
Q 1688 2584 1439 2293 
Q 1191 2003 1191 1497 
Q 1191 994 1439 701 
Q 1688 409 2113 409 
Q 2538 409 2786 701 
Q 3034 994 3034 1497 
Q 3034 2003 2786 2293 
Q 2538 2584 2113 2584 
z
M 3366 4563 
L 3366 3988 
Q 3128 4100 2886 4159 
Q 2644 4219 2406 4219 
Q 1781 4219 1451 3797 
Q 1122 3375 1075 2522 
Q 1259 2794 1537 2939 
Q 1816 3084 2150 3084 
Q 2853 3084 3261 2657 
Q 3669 2231 3669 1497 
Q 3669 778 3244 343 
Q 2819 -91 2113 -91 
Q 1303 -91 875 529 
Q 447 1150 447 2328 
Q 447 3434 972 4092 
Q 1497 4750 2381 4750 
Q 2619 4750 2861 4703 
Q 3103 4656 3366 4563 
z
" transform="scale(0.015625)"/>
       </defs>
       <use xlink:href="#DejaVuSans-36"/>
      </g>
     </g>
    </g>
    <g id="xtick_5">
     <g id="line2d_5">
      <g>
       <use xlink:href="#m39b1b247e2" x="309.243864" y="288.430125" style="stroke: #000000; stroke-width: 0.8"/>
      </g>
     </g>
     <g id="text_5">
      <!-- 8 -->
      <g transform="translate(306.062614 303.028562) scale(0.1 -0.1)">
       <defs>
        <path id="DejaVuSans-38" d="M 2034 2216 
Q 1584 2216 1326 1975 
Q 1069 1734 1069 1313 
Q 1069 891 1326 650 
Q 1584 409 2034 409 
Q 2484 409 2743 651 
Q 3003 894 3003 1313 
Q 3003 1734 2745 1975 
Q 2488 2216 2034 2216 
z
M 1403 2484 
Q 997 2584 770 2862 
Q 544 3141 544 3541 
Q 544 4100 942 4425 
Q 1341 4750 2034 4750 
Q 2731 4750 3128 4425 
Q 3525 4100 3525 3541 
Q 3525 3141 3298 2862 
Q 3072 2584 2669 2484 
Q 3125 2378 3379 2068 
Q 3634 1759 3634 1313 
Q 3634 634 3220 271 
Q 2806 -91 2034 -91 
Q 1263 -91 848 271 
Q 434 634 434 1313 
Q 434 1759 690 2068 
Q 947 2378 1403 2484 
z
M 1172 3481 
Q 1172 3119 1398 2916 
Q 1625 2713 2034 2713 
Q 2441 2713 2670 2916 
Q 2900 3119 2900 3481 
Q 2900 3844 2670 4047 
Q 2441 4250 2034 4250 
Q 1625 4250 1398 4047 
Q 1172 3844 1172 3481 
z
" transform="scale(0.015625)"/>
       </defs>
       <use xlink:href="#DejaVuSans-38"/>
      </g>
     </g>
    </g>
    <g id="xtick_6">
     <g id="line2d_6">
      <g>
       <use xlink:href="#m39b1b247e2" x="374.174773" y="288.430125" style="stroke: #000000; stroke-width: 0.8"/>
      </g>
     </g>
     <g id="text_6">
      <!-- 10 -->
      <g transform="translate(367.812273 303.028562) scale(0.1 -0.1)">
       <defs>
        <path id="DejaVuSans-31" d="M 794 531 
L 1825 531 
L 1825 4091 
L 703 3866 
L 703 4441 
L 1819 4666 
L 2450 4666 
L 2450 531 
L 3481 531 
L 3481 0 
L 794 0 
L 794 531 
z
" transform="scale(0.015625)"/>
       </defs>
       <use xlink:href="#DejaVuSans-31"/>
       <use xlink:href="#DejaVuSans-30" x="63.623047"/>
      </g>
     </g>
    </g>
    <g id="text_7">
     <!-- Time [s] -->
     <g transform="translate(191.518594 316.706687) scale(0.1 -0.1)">
      <defs>
       <path id="DejaVuSans-54" d="M -19 4666 
L 3928 4666 
L 3928 4134 
L 2272 4134 
L 2272 0 
L 1638 0 
L 1638 4134 
L -19 4134 
L -19 4666 
z
" transform="scale(0.015625)"/>
       <path id="DejaVuSans-69" d="M 603 3500 
L 1178 3500 
L 1178 0 
L 603 0 
L 603 3500 
z
M 603 4863 
L 1178 4863 
L 1178 4134 
L 603 4134 
L 603 4863 
z
" transform="scale(0.015625)"/>
       <path id="DejaVuSans-6d" d="M 3328 2828 
Q 3544 3216 3844 3400 
Q 4144 3584 4550 3584 
Q 5097 3584 5394 3201 
Q 5691 2819 5691 2113 
L 5691 0 
L 5113 0 
L 5113 2094 
Q 5113 2597 4934 2840 
Q 4756 3084 4391 3084 
Q 3944 3084 3684 2787 
Q 3425 2491 3425 1978 
L 3425 0 
L 2847 0 
L 2847 2094 
Q 2847 2600 2669 2842 
Q 2491 3084 2119 3084 
Q 1678 3084 1418 2786 
Q 1159 2488 1159 1978 
L 1159 0 
L 581 0 
L 581 3500 
L 1159 3500 
L 1159 2956 
Q 1356 3278 1631 3431 
Q 1906 3584 2284 3584 
Q 2666 3584 2933 3390 
Q 3200 3197 3328 2828 
z
" transform="scale(0.015625)"/>
       <path id="DejaVuSans-65" d="M 3597 1894 
L 3597 1613 
L 953 1613 
Q 991 1019 1311 708 
Q 1631 397 2203 397 
Q 2534 397 2845 478 
Q 3156 559 3463 722 
L 3463 178 
Q 3153 47 2828 -22 
Q 2503 -91 2169 -91 
Q 1331 -91 842 396 
Q 353 884 353 1716 
Q 353 2575 817 3079 
Q 1281 3584 2069 3584 
Q 2775 3584 3186 3129 
Q 3597 2675 3597 1894 
z
M 3022 2063 
Q 3016 2534 2758 2815 
Q 2500 3097 2075 3097 
Q 1594 3097 1305 2825 
Q 1016 2553 972 2059 
L 3022 2063 
z
" transform="scale(0.015625)"/>
       <path id="DejaVuSans-20" transform="scale(0.015625)"/>
       <path id="DejaVuSans-5b" d="M 550 4863 
L 1875 4863 
L 1875 4416 
L 1125 4416 
L 1125 -397 
L 1875 -397 
L 1875 -844 
L 550 -844 
L 550 4863 
z
" transform="scale(0.015625)"/>
       <path id="DejaVuSans-73" d="M 2834 3397 
L 2834 2853 
Q 2591 2978 2328 3040 
Q 2066 3103 1784 3103 
Q 1356 3103 1142 2972 
Q 928 2841 928 2578 
Q 928 2378 1081 2264 
Q 1234 2150 1697 2047 
L 1894 2003 
Q 2506 1872 2764 1633 
Q 3022 1394 3022 966 
Q 3022 478 2636 193 
Q 2250 -91 1575 -91 
Q 1294 -91 989 -36 
Q 684 19 347 128 
L 347 722 
Q 666 556 975 473 
Q 1284 391 1588 391 
Q 1994 391 2212 530 
Q 2431 669 2431 922 
Q 2431 1156 2273 1281 
Q 2116 1406 1581 1522 
L 1381 1569 
Q 847 1681 609 1914 
Q 372 2147 372 2553 
Q 372 3047 722 3315 
Q 1072 3584 1716 3584 
Q 2034 3584 2315 3537 
Q 2597 3491 2834 3397 
z
" transform="scale(0.015625)"/>
       <path id="DejaVuSans-5d" d="M 1947 4863 
L 1947 -844 
L 622 -844 
L 622 -397 
L 1369 -397 
L 1369 4416 
L 622 4416 
L 622 4863 
L 1947 4863 
z
" transform="scale(0.015625)"/>
      </defs>
      <use xlink:href="#DejaVuSans-54"/>
      <use xlink:href="#DejaVuSans-69" x="57.958984"/>
      <use xlink:href="#DejaVuSans-6d" x="85.742188"/>
      <use xlink:href="#DejaVuSans-65" x="183.154297"/>
      <use xlink:href="#DejaVuSans-20" x="244.677734"/>
      <use xlink:href="#DejaVuSans-5b" x="276.464844"/>
      <use xlink:href="#DejaVuSans-73" x="315.478516"/>
      <use xlink:href="#DejaVuSans-5d" x="367.578125"/>
     </g>
    </g>
   </g>
   <g id="matplotlib.axis_2">
    <g id="ytick_1">
     <g id="line2d_7">
      <defs>
       <path id="md6506e5b24" d="M 0 0 
L -3.5 0 
" style="stroke: #000000; stroke-width: 0.8"/>
      </defs>
      <g>
       <use xlink:href="#md6506e5b24" x="33.2875" y="272.439146" style="stroke: #000000; stroke-width: 0.8"/>
      </g>
     </g>
     <g id="text_8">
      <!-- 293 -->
      <g transform="translate(7.2 276.238364) scale(0.1 -0.1)">
       <defs>
        <path id="DejaVuSans-39" d="M 703 97 
L 703 672 
Q 941 559 1184 500 
Q 1428 441 1663 441 
Q 2288 441 2617 861 
Q 2947 1281 2994 2138 
Q 2813 1869 2534 1725 
Q 2256 1581 1919 1581 
Q 1219 1581 811 2004 
Q 403 2428 403 3163 
Q 403 3881 828 4315 
Q 1253 4750 1959 4750 
Q 2769 4750 3195 4129 
Q 3622 3509 3622 2328 
Q 3622 1225 3098 567 
Q 2575 -91 1691 -91 
Q 1453 -91 1209 -44 
Q 966 3 703 97 
z
M 1959 2075 
Q 2384 2075 2632 2365 
Q 2881 2656 2881 3163 
Q 2881 3666 2632 3958 
Q 2384 4250 1959 4250 
Q 1534 4250 1286 3958 
Q 1038 3666 1038 3163 
Q 1038 2656 1286 2365 
Q 1534 2075 1959 2075 
z
" transform="scale(0.015625)"/>
        <path id="DejaVuSans-33" d="M 2597 2516 
Q 3050 2419 3304 2112 
Q 3559 1806 3559 1356 
Q 3559 666 3084 287 
Q 2609 -91 1734 -91 
Q 1441 -91 1130 -33 
Q 819 25 488 141 
L 488 750 
Q 750 597 1062 519 
Q 1375 441 1716 441 
Q 2309 441 2620 675 
Q 2931 909 2931 1356 
Q 2931 1769 2642 2001 
Q 2353 2234 1838 2234 
L 1294 2234 
L 1294 2753 
L 1863 2753 
Q 2328 2753 2575 2939 
Q 2822 3125 2822 3475 
Q 2822 3834 2567 4026 
Q 2313 4219 1838 4219 
Q 1578 4219 1281 4162 
Q 984 4106 628 3988 
L 628 4550 
Q 988 4650 1302 4700 
Q 1616 4750 1894 4750 
Q 2613 4750 3031 4423 
Q 3450 4097 3450 3541 
Q 3450 3153 3228 2886 
Q 3006 2619 2597 2516 
z
" transform="scale(0.015625)"/>
       </defs>
       <use xlink:href="#DejaVuSans-32"/>
       <use xlink:href="#DejaVuSans-39" x="63.623047"/>
       <use xlink:href="#DejaVuSans-33" x="127.246094"/>
      </g>
     </g>
    </g>
    <g id="ytick_2">
     <g id="line2d_8">
      <g>
       <use xlink:href="#md6506e5b24" x="33.2875" y="238.435571" style="stroke: #000000; stroke-width: 0.8"/>
      </g>
     </g>
     <g id="text_9">
      <!-- 294 -->
      <g transform="translate(7.2 242.23479) scale(0.1 -0.1)">
       <use xlink:href="#DejaVuSans-32"/>
       <use xlink:href="#DejaVuSans-39" x="63.623047"/>
       <use xlink:href="#DejaVuSans-34" x="127.246094"/>
      </g>
     </g>
    </g>
    <g id="ytick_3">
     <g id="line2d_9">
      <g>
       <use xlink:href="#md6506e5b24" x="33.2875" y="204.431997" style="stroke: #000000; stroke-width: 0.8"/>
      </g>
     </g>
     <g id="text_10">
      <!-- 295 -->
      <g transform="translate(7.2 208.231216) scale(0.1 -0.1)">
       <defs>
        <path id="DejaVuSans-35" d="M 691 4666 
L 3169 4666 
L 3169 4134 
L 1269 4134 
L 1269 2991 
Q 1406 3038 1543 3061 
Q 1681 3084 1819 3084 
Q 2600 3084 3056 2656 
Q 3513 2228 3513 1497 
Q 3513 744 3044 326 
Q 2575 -91 1722 -91 
Q 1428 -91 1123 -41 
Q 819 9 494 109 
L 494 744 
Q 775 591 1075 516 
Q 1375 441 1709 441 
Q 2250 441 2565 725 
Q 2881 1009 2881 1497 
Q 2881 1984 2565 2268 
Q 2250 2553 1709 2553 
Q 1456 2553 1204 2497 
Q 953 2441 691 2322 
L 691 4666 
z
" transform="scale(0.015625)"/>
       </defs>
       <use xlink:href="#DejaVuSans-32"/>
       <use xlink:href="#DejaVuSans-39" x="63.623047"/>
       <use xlink:href="#DejaVuSans-35" x="127.246094"/>
      </g>
     </g>
    </g>
    <g id="ytick_4">
     <g id="line2d_10">
      <g>
       <use xlink:href="#md6506e5b24" x="33.2875" y="170.428422" style="stroke: #000000; stroke-width: 0.8"/>
      </g>
     </g>
     <g id="text_11">
      <!-- 296 -->
      <g transform="translate(7.2 174.227641) scale(0.1 -0.1)">
       <use xlink:href="#DejaVuSans-32"/>
       <use xlink:href="#DejaVuSans-39" x="63.623047"/>
       <use xlink:href="#DejaVuSans-36" x="127.246094"/>
      </g>
     </g>
    </g>
    <g id="ytick_5">
     <g id="line2d_11">
      <g>
       <use xlink:href="#md6506e5b24" x="33.2875" y="136.424848" style="stroke: #000000; stroke-width: 0.8"/>
      </g>
     </g>
     <g id="text_12">
      <!-- 297 -->
      <g transform="translate(7.2 140.224067) scale(0.1 -0.1)">
       <defs>
        <path id="DejaVuSans-37" d="M 525 4666 
L 3525 4666 
L 3525 4397 
L 1831 0 
L 1172 0 
L 2766 4134 
L 525 4134 
L 525 4666 
z
" transform="scale(0.015625)"/>
       </defs>
       <use xlink:href="#DejaVuSans-32"/>
       <use xlink:href="#DejaVuSans-39" x="63.623047"/>
       <use xlink:href="#DejaVuSans-37" x="127.246094"/>
      </g>
     </g>
    </g>
    <g id="ytick_6">
     <g id="line2d_12">
      <g>
       <use xlink:href="#md6506e5b24" x="33.2875" y="102.421274" style="stroke: #000000; stroke-width: 0.8"/>
      </g>
     </g>
     <g id="text_13">
      <!-- 298 -->
      <g transform="translate(7.2 106.220492) scale(0.1 -0.1)">
       <use xlink:href="#DejaVuSans-32"/>
       <use xlink:href="#DejaVuSans-39" x="63.623047"/>
       <use xlink:href="#DejaVuSans-38" x="127.246094"/>
      </g>
     </g>
    </g>
    <g id="ytick_7">
     <g id="line2d_13">
      <g>
       <use xlink:href="#md6506e5b24" x="33.2875" y="68.417699" style="stroke: #000000; stroke-width: 0.8"/>
      </g>
     </g>
     <g id="text_14">
      <!-- 299 -->
      <g transform="translate(7.2 72.216918) scale(0.1 -0.1)">
       <use xlink:href="#DejaVuSans-32"/>
       <use xlink:href="#DejaVuSans-39" x="63.623047"/>
       <use xlink:href="#DejaVuSans-39" x="127.246094"/>
      </g>
     </g>
    </g>
    <g id="ytick_8">
     <g id="line2d_14">
      <g>
       <use xlink:href="#md6506e5b24" x="33.2875" y="34.414125" style="stroke: #000000; stroke-width: 0.8"/>
      </g>
     </g>
     <g id="text_15">
      <!-- 300 -->
      <g transform="translate(7.2 38.213344) scale(0.1 -0.1)">
       <use xlink:href="#DejaVuSans-33"/>
       <use xlink:href="#DejaVuSans-30" x="63.623047"/>
       <use xlink:href="#DejaVuSans-30" x="127.246094"/>
      </g>
     </g>
    </g>
   </g>
   <g id="line2d_15">
    <path d="M 49.520227 34.414125 
L 51.468155 92.091491 
L 51.468155 92.091491 
L 53.416082 143.246644 
L 53.416082 143.246644 
L 55.364009 188.617122 
L 55.364009 188.617122 
L 57.311936 228.857061 
L 57.311936 228.857061 
L 59.259864 264.546628 
L 59.259864 264.546628 
L 59.909173 275.522636 
L 59.909173 275.522636 
L 61.8571 257.870742 
L 61.8571 257.870742 
L 63.805027 242.214941 
L 63.805027 242.214941 
L 65.752955 228.329514 
L 65.752955 228.329514 
L 67.700882 216.014265 
L 67.700882 216.014265 
L 69.648809 205.091636 
L 69.648809 205.091636 
L 71.596736 195.404149 
L 71.596736 195.404149 
L 73.544664 186.812133 
L 73.544664 186.812133 
L 75.492591 179.19171 
L 75.492591 179.19171 
L 77.440518 172.433012 
L 77.440518 172.433012 
L 79.388445 166.438595 
L 79.388445 166.438595 
L 81.336373 161.122032 
L 81.336373 161.122032 
L 83.2843 156.406671 
L 83.2843 156.406671 
L 85.232227 152.224528 
L 85.232227 152.224528 
L 87.180155 148.515306 
L 87.180155 148.515306 
L 89.128082 145.225526 
L 89.128082 145.225526 
L 91.400664 141.854604 
L 91.400664 141.854604 
L 93.673245 138.924071 
L 93.673245 138.924071 
L 95.945827 136.376393 
L 95.945827 136.376393 
L 97.893755 182.523765 
L 97.893755 182.523765 
L 99.841682 223.452747 
L 99.841682 223.452747 
L 101.789609 259.75344 
L 101.789609 259.75344 
L 102.763573 276.334125 
L 102.763573 276.334125 
L 104.7115 258.590467 
L 104.7115 258.590467 
L 106.659427 242.853279 
L 106.659427 242.853279 
L 108.607355 228.895668 
L 108.607355 228.895668 
L 110.555282 216.516398 
L 110.555282 216.516398 
L 112.503209 205.536988 
L 112.503209 205.536988 
L 114.451136 195.79914 
L 114.451136 195.79914 
L 116.399064 187.162457 
L 116.399064 187.162457 
L 118.346991 179.50242 
L 120.294918 172.708586 
L 122.242845 166.683007 
L 124.190773 161.338805 
L 126.1387 156.598932 
L 128.086627 152.395047 
L 130.034555 148.666543 
L 131.982482 145.359661 
L 134.255064 141.971215 
L 134.255064 141.971215 
L 136.527645 139.025448 
L 138.800227 136.464526 
L 138.800227 136.464526 
L 139.124882 136.127078 
L 139.124882 136.127078 
L 141.072809 182.302643 
L 143.020736 223.256629 
L 144.968664 259.579499 
L 145.942627 276.170314 
L 145.942627 276.170314 
L 147.890555 258.44518 
L 147.890555 258.44518 
L 149.838482 242.724421 
L 149.838482 242.724421 
L 151.786409 228.781382 
L 151.786409 228.781382 
L 153.734336 216.415035 
L 153.734336 216.415035 
L 155.682264 205.447087 
L 155.682264 205.447087 
L 157.630191 195.719405 
L 157.630191 195.719405 
L 159.578118 187.091739 
L 159.578118 187.091739 
L 161.526045 179.439698 
L 161.526045 179.439698 
L 163.473973 172.652958 
L 163.473973 172.652958 
L 165.4219 166.633668 
L 165.4219 166.633668 
L 167.369827 161.295046 
L 167.369827 161.295046 
L 169.317755 156.560121 
L 169.317755 156.560121 
L 171.265682 152.360625 
L 171.265682 152.360625 
L 173.213609 148.636013 
L 173.213609 148.636013 
L 175.161536 145.332584 
L 175.161536 145.332584 
L 177.434118 141.947676 
L 179.7067 139.004984 
L 179.7067 139.004984 
L 181.979282 136.446735 
L 182.303936 136.109639 
L 182.303936 136.109639 
L 184.251864 182.287176 
L 184.251864 182.287176 
L 186.199791 223.242912 
L 186.199791 223.242912 
L 188.147718 259.567333 
L 188.147718 259.567333 
L 189.121682 276.158856 
L 189.121682 276.158856 
L 191.069609 258.435018 
L 193.017536 242.715408 
L 194.965464 228.773388 
L 196.913391 216.407945 
L 198.861318 205.440799 
L 200.809245 195.713828 
L 202.757173 187.086793 
L 204.7051 179.435311 
L 206.653027 172.649067 
L 208.600955 166.630217 
L 210.548882 161.291986 
L 212.496809 156.557406 
L 214.444736 152.358218 
L 216.392664 148.633878 
L 218.340591 145.33069 
L 220.613173 141.946029 
L 220.613173 141.946029 
L 222.885755 139.003552 
L 225.158336 136.44549 
L 225.158336 136.44549 
L 225.482991 136.108419 
L 225.482991 136.108419 
L 227.430918 182.286094 
L 229.378845 223.241952 
L 231.326773 259.566482 
L 232.300736 276.158055 
L 232.300736 276.158055 
L 234.248664 258.434307 
L 234.248664 258.434307 
L 236.196591 242.714778 
L 236.196591 242.714778 
L 238.144518 228.772829 
L 238.144518 228.772829 
L 240.092445 216.407449 
L 240.092445 216.407449 
L 242.040373 205.440359 
L 242.040373 205.440359 
L 243.9883 195.713438 
L 243.9883 195.713438 
L 245.936227 187.086447 
L 245.936227 187.086447 
L 247.884155 179.435004 
L 247.884155 179.435004 
L 249.832082 172.648795 
L 249.832082 172.648795 
L 251.780009 166.629976 
L 251.780009 166.629976 
L 253.727936 161.291771 
L 253.727936 161.291771 
L 255.675864 156.557216 
L 255.675864 156.557216 
L 257.623791 152.358049 
L 257.623791 152.358049 
L 259.571718 148.633728 
L 259.571718 148.633728 
L 261.519645 145.330557 
L 261.519645 145.330557 
L 263.792227 141.945914 
L 266.064809 139.003452 
L 266.064809 139.003452 
L 268.337391 136.445403 
L 268.662045 136.108334 
L 268.662045 136.108334 
L 270.609973 182.214756 
L 270.609973 182.214756 
L 272.5579 223.083531 
L 272.5579 223.083531 
L 274.505827 259.341333 
L 274.505827 259.341333 
L 275.479791 275.91939 
L 275.479791 275.91939 
L 277.427718 258.263954 
L 279.375645 242.600376 
L 281.323573 228.703919 
L 283.2715 216.375196 
L 285.219427 205.437313 
L 287.167355 195.733362 
L 289.115282 187.124112 
L 291.063209 179.486078 
L 293.011136 172.709673 
L 294.959064 166.697735 
L 296.906991 161.364003 
L 298.854918 156.63195 
L 300.802845 152.433721 
L 302.750773 148.70908 
L 305.023355 144.892485 
L 305.023355 144.892485 
L 306.971282 142.018566 
L 306.971282 142.018566 
L 309.243864 139.07191 
L 311.516445 136.510989 
L 311.516445 136.510989 
L 311.8411 136.172621 
L 311.8411 136.172621 
L 313.789027 182.24805 
L 315.736955 223.125915 
L 317.684882 259.391816 
L 318.658845 275.9489 
L 318.658845 275.9489 
L 320.606773 258.28246 
L 320.606773 258.28246 
L 322.5547 242.609337 
L 322.5547 242.609337 
L 324.502627 228.704676 
L 324.502627 228.704676 
L 326.450555 216.368983 
L 326.450555 216.368983 
L 328.398482 205.425252 
L 328.398482 205.425252 
L 330.346409 195.716455 
L 330.346409 195.716455 
L 332.294336 187.103279 
L 332.294336 187.103279 
L 334.242264 179.461919 
L 334.242264 179.461919 
L 336.190191 172.683473 
L 336.190191 172.683473 
L 338.138118 166.670472 
L 338.138118 166.670472 
L 340.086045 161.336461 
L 340.086045 161.336461 
L 342.033973 156.604808 
L 342.033973 156.604808 
L 343.9819 152.407366 
L 343.9819 152.407366 
L 345.929827 148.68386 
L 345.929827 148.68386 
L 347.877755 145.380805 
L 347.877755 145.380805 
L 349.825682 142.450675 
L 349.825682 142.450675 
L 352.098264 139.446845 
L 354.370845 136.836262 
L 354.370845 136.836262 
L 355.020155 136.154784 
L 355.020155 136.154784 
L 356.968082 182.241525 
L 356.968082 182.241525 
L 358.916009 223.12557 
L 358.916009 223.12557 
L 360.863936 259.394366 
L 360.863936 259.394366 
L 361.8379 275.97422 
L 361.8379 275.97422 
L 363.785827 258.305335 
L 365.733755 242.630913 
L 367.681682 228.725781 
L 369.629609 216.390299 
L 371.577536 205.447139 
L 373.525464 195.739123 
L 374.174773 192.753041 
L 374.174773 192.753041 
" clip-path="url(#pec51341714)" style="fill: none; stroke: #1f77b4; stroke-width: 1.5; stroke-linecap: square"/>
   </g>
   <g id="line2d_16">
    <path d="M 49.520227 204.431997 
L 374.174773 204.431997 
L 374.174773 204.431997 
" clip-path="url(#pec51341714)" style="fill: none; stroke: #ff7f0e; stroke-width: 1.5; stroke-linecap: square"/>
   </g>
   <g id="patch_3">
    <path d="M 33.2875 288.430125 
L 33.2875 22.318125 
" style="fill: none; stroke: #000000; stroke-width: 0.8; stroke-linejoin: miter; stroke-linecap: square"/>
   </g>
   <g id="patch_4">
    <path d="M 390.4075 288.430125 
L 390.4075 22.318125 
" style="fill: none; stroke: #000000; stroke-width: 0.8; stroke-linejoin: miter; stroke-linecap: square"/>
   </g>
   <g id="patch_5">
    <path d="M 33.2875 288.430125 
L 390.4075 288.430125 
" style="fill: none; stroke: #000000; stroke-width: 0.8; stroke-linejoin: miter; stroke-linecap: square"/>
   </g>
   <g id="patch_6">
    <path d="M 33.2875 22.318125 
L 390.4075 22.318125 
" style="fill: none; stroke: #000000; stroke-width: 0.8; stroke-linejoin: miter; stroke-linecap: square"/>
   </g>
   <g id="text_16">
    <!-- Embedded Hysteresis Control -->
    <g transform="translate(122.918125 16.318125) scale(0.12 -0.12)">
     <defs>
      <path id="DejaVuSans-45" d="M 628 4666 
L 3578 4666 
L 3578 4134 
L 1259 4134 
L 1259 2753 
L 3481 2753 
L 3481 2222 
L 1259 2222 
L 1259 531 
L 3634 531 
L 3634 0 
L 628 0 
L 628 4666 
z
" transform="scale(0.015625)"/>
      <path id="DejaVuSans-62" d="M 3116 1747 
Q 3116 2381 2855 2742 
Q 2594 3103 2138 3103 
Q 1681 3103 1420 2742 
Q 1159 2381 1159 1747 
Q 1159 1113 1420 752 
Q 1681 391 2138 391 
Q 2594 391 2855 752 
Q 3116 1113 3116 1747 
z
M 1159 2969 
Q 1341 3281 1617 3432 
Q 1894 3584 2278 3584 
Q 2916 3584 3314 3078 
Q 3713 2572 3713 1747 
Q 3713 922 3314 415 
Q 2916 -91 2278 -91 
Q 1894 -91 1617 61 
Q 1341 213 1159 525 
L 1159 0 
L 581 0 
L 581 4863 
L 1159 4863 
L 1159 2969 
z
" transform="scale(0.015625)"/>
      <path id="DejaVuSans-64" d="M 2906 2969 
L 2906 4863 
L 3481 4863 
L 3481 0 
L 2906 0 
L 2906 525 
Q 2725 213 2448 61 
Q 2172 -91 1784 -91 
Q 1150 -91 751 415 
Q 353 922 353 1747 
Q 353 2572 751 3078 
Q 1150 3584 1784 3584 
Q 2172 3584 2448 3432 
Q 2725 3281 2906 2969 
z
M 947 1747 
Q 947 1113 1208 752 
Q 1469 391 1925 391 
Q 2381 391 2643 752 
Q 2906 1113 2906 1747 
Q 2906 2381 2643 2742 
Q 2381 3103 1925 3103 
Q 1469 3103 1208 2742 
Q 947 2381 947 1747 
z
" transform="scale(0.015625)"/>
      <path id="DejaVuSans-48" d="M 628 4666 
L 1259 4666 
L 1259 2753 
L 3553 2753 
L 3553 4666 
L 4184 4666 
L 4184 0 
L 3553 0 
L 3553 2222 
L 1259 2222 
L 1259 0 
L 628 0 
L 628 4666 
z
" transform="scale(0.015625)"/>
      <path id="DejaVuSans-79" d="M 2059 -325 
Q 1816 -950 1584 -1140 
Q 1353 -1331 966 -1331 
L 506 -1331 
L 506 -850 
L 844 -850 
Q 1081 -850 1212 -737 
Q 1344 -625 1503 -206 
L 1606 56 
L 191 3500 
L 800 3500 
L 1894 763 
L 2988 3500 
L 3597 3500 
L 2059 -325 
z
" transform="scale(0.015625)"/>
      <path id="DejaVuSans-74" d="M 1172 4494 
L 1172 3500 
L 2356 3500 
L 2356 3053 
L 1172 3053 
L 1172 1153 
Q 1172 725 1289 603 
Q 1406 481 1766 481 
L 2356 481 
L 2356 0 
L 1766 0 
Q 1100 0 847 248 
Q 594 497 594 1153 
L 594 3053 
L 172 3053 
L 172 3500 
L 594 3500 
L 594 4494 
L 1172 4494 
z
" transform="scale(0.015625)"/>
      <path id="DejaVuSans-72" d="M 2631 2963 
Q 2534 3019 2420 3045 
Q 2306 3072 2169 3072 
Q 1681 3072 1420 2755 
Q 1159 2438 1159 1844 
L 1159 0 
L 581 0 
L 581 3500 
L 1159 3500 
L 1159 2956 
Q 1341 3275 1631 3429 
Q 1922 3584 2338 3584 
Q 2397 3584 2469 3576 
Q 2541 3569 2628 3553 
L 2631 2963 
z
" transform="scale(0.015625)"/>
      <path id="DejaVuSans-43" d="M 4122 4306 
L 4122 3641 
Q 3803 3938 3442 4084 
Q 3081 4231 2675 4231 
Q 1875 4231 1450 3742 
Q 1025 3253 1025 2328 
Q 1025 1406 1450 917 
Q 1875 428 2675 428 
Q 3081 428 3442 575 
Q 3803 722 4122 1019 
L 4122 359 
Q 3791 134 3420 21 
Q 3050 -91 2638 -91 
Q 1578 -91 968 557 
Q 359 1206 359 2328 
Q 359 3453 968 4101 
Q 1578 4750 2638 4750 
Q 3056 4750 3426 4639 
Q 3797 4528 4122 4306 
z
" transform="scale(0.015625)"/>
      <path id="DejaVuSans-6f" d="M 1959 3097 
Q 1497 3097 1228 2736 
Q 959 2375 959 1747 
Q 959 1119 1226 758 
Q 1494 397 1959 397 
Q 2419 397 2687 759 
Q 2956 1122 2956 1747 
Q 2956 2369 2687 2733 
Q 2419 3097 1959 3097 
z
M 1959 3584 
Q 2709 3584 3137 3096 
Q 3566 2609 3566 1747 
Q 3566 888 3137 398 
Q 2709 -91 1959 -91 
Q 1206 -91 779 398 
Q 353 888 353 1747 
Q 353 2609 779 3096 
Q 1206 3584 1959 3584 
z
" transform="scale(0.015625)"/>
      <path id="DejaVuSans-6e" d="M 3513 2113 
L 3513 0 
L 2938 0 
L 2938 2094 
Q 2938 2591 2744 2837 
Q 2550 3084 2163 3084 
Q 1697 3084 1428 2787 
Q 1159 2491 1159 1978 
L 1159 0 
L 581 0 
L 581 3500 
L 1159 3500 
L 1159 2956 
Q 1366 3272 1645 3428 
Q 1925 3584 2291 3584 
Q 2894 3584 3203 3211 
Q 3513 2838 3513 2113 
z
" transform="scale(0.015625)"/>
      <path id="DejaVuSans-6c" d="M 603 4863 
L 1178 4863 
L 1178 0 
L 603 0 
L 603 4863 
z
" transform="scale(0.015625)"/>
     </defs>
     <use xlink:href="#DejaVuSans-45"/>
     <use xlink:href="#DejaVuSans-6d" x="63.183594"/>
     <use xlink:href="#DejaVuSans-62" x="160.595703"/>
     <use xlink:href="#DejaVuSans-65" x="224.072266"/>
     <use xlink:href="#DejaVuSans-64" x="285.595703"/>
     <use xlink:href="#DejaVuSans-64" x="349.072266"/>
     <use xlink:href="#DejaVuSans-65" x="412.548828"/>
     <use xlink:href="#DejaVuSans-64" x="474.072266"/>
     <use xlink:href="#DejaVuSans-20" x="537.548828"/>
     <use xlink:href="#DejaVuSans-48" x="569.335938"/>
     <use xlink:href="#DejaVuSans-79" x="644.53125"/>
     <use xlink:href="#DejaVuSans-73" x="703.710938"/>
     <use xlink:href="#DejaVuSans-74" x="755.810547"/>
     <use xlink:href="#DejaVuSans-65" x="795.019531"/>
     <use xlink:href="#DejaVuSans-72" x="856.542969"/>
     <use xlink:href="#DejaVuSans-65" x="895.40625"/>
     <use xlink:href="#DejaVuSans-73" x="956.929688"/>
     <use xlink:href="#DejaVuSans-69" x="1009.029297"/>
     <use xlink:href="#DejaVuSans-73" x="1036.8125"/>
     <use xlink:href="#DejaVuSans-20" x="1088.912109"/>
     <use xlink:href="#DejaVuSans-43" x="1120.699219"/>
     <use xlink:href="#DejaVuSans-6f" x="1190.523438"/>
     <use xlink:href="#DejaVuSans-6e" x="1251.705078"/>
     <use xlink:href="#DejaVuSans-74" x="1315.083984"/>
     <use xlink:href="#DejaVuSans-72" x="1354.292969"/>
     <use xlink:href="#DejaVuSans-6f" x="1393.15625"/>
     <use xlink:href="#DejaVuSans-6c" x="1454.337891"/>
    </g>
   </g>
   <g id="legend_1">
    <g id="patch_7">
     <path d="M 330.712188 61.674375 
L 385.4075 61.674375 
Q 387.4075 61.674375 387.4075 59.674375 
L 387.4075 31.318125 
Q 387.4075 29.318125 385.4075 29.318125 
L 330.712188 29.318125 
Q 328.712188 29.318125 328.712188 31.318125 
L 328.712188 59.674375 
Q 328.712188 61.674375 330.712188 61.674375 
z
" style="fill: #4c4c4c; opacity: 0.5; stroke: #4c4c4c; stroke-linejoin: miter"/>
    </g>
    <g id="patch_8">
     <path d="M 328.712188 59.674375 
L 383.4075 59.674375 
Q 385.4075 59.674375 385.4075 57.674375 
L 385.4075 29.318125 
Q 385.4075 27.318125 383.4075 27.318125 
L 328.712188 27.318125 
Q 326.712188 27.318125 326.712188 29.318125 
L 326.712188 57.674375 
Q 326.712188 59.674375 328.712188 59.674375 
z
" style="fill: #ffffff; stroke: #cccccc; stroke-linejoin: miter"/>
    </g>
    <g id="line2d_17">
     <path d="M 330.712188 35.416562 
L 340.712188 35.416562 
L 350.712188 35.416562 
" style="fill: none; stroke: #1f77b4; stroke-width: 1.5; stroke-linecap: square"/>
    </g>
    <g id="text_17">
     <!-- T -->
     <g transform="translate(358.712188 38.916562) scale(0.1 -0.1)">
      <use xlink:href="#DejaVuSans-54"/>
     </g>
    </g>
    <g id="line2d_18">
     <path d="M 330.712188 50.094687 
L 340.712188 50.094687 
L 350.712188 50.094687 
" style="fill: none; stroke: #ff7f0e; stroke-width: 1.5; stroke-linecap: square"/>
    </g>
    <g id="text_18">
     <!-- Tbar -->
     <g transform="translate(358.712188 53.594687) scale(0.1 -0.1)">
      <defs>
       <path id="DejaVuSans-61" d="M 2194 1759 
Q 1497 1759 1228 1600 
Q 959 1441 959 1056 
Q 959 750 1161 570 
Q 1363 391 1709 391 
Q 2188 391 2477 730 
Q 2766 1069 2766 1631 
L 2766 1759 
L 2194 1759 
z
M 3341 1997 
L 3341 0 
L 2766 0 
L 2766 531 
Q 2569 213 2275 61 
Q 1981 -91 1556 -91 
Q 1019 -91 701 211 
Q 384 513 384 1019 
Q 384 1609 779 1909 
Q 1175 2209 1959 2209 
L 2766 2209 
L 2766 2266 
Q 2766 2663 2505 2880 
Q 2244 3097 1772 3097 
Q 1472 3097 1187 3025 
Q 903 2953 641 2809 
L 641 3341 
Q 956 3463 1253 3523 
Q 1550 3584 1831 3584 
Q 2591 3584 2966 3190 
Q 3341 2797 3341 1997 
z
" transform="scale(0.015625)"/>
      </defs>
      <use xlink:href="#DejaVuSans-54"/>
      <use xlink:href="#DejaVuSans-62" x="61.083984"/>
      <use xlink:href="#DejaVuSans-61" x="124.560547"/>
      <use xlink:href="#DejaVuSans-72" x="185.839844"/>
     </g>
    </g>
   </g>
  </g>
 </g>
 <defs>
  <clipPath id="pec51341714">
   <rect x="33.2875" y="22.318125" width="357.12" height="266.112"/>
  </clipPath>
 </defs>
</svg>
